<svg xmlns="http://www.w3.org/2000/svg" viewBox="0 0 120 78" role="img" aria-label="Africa map outline">
  <style>
    .continent-country{fill:rgba(7,9,12,.76);stroke:rgb(159, 244, 215);stroke-width:.52;stroke-linejoin:round;vector-effect:non-scaling-stroke}
  </style>
  <title>Africa</title>
  <desc>Country polygons generated from Natural Earth public domain Admin 0 data.</desc>
  <g><path class="continent-country" d="M76.16 41.09 L76.32 41.19 L79.73 43.11 L79.8 43.66 L81.15 44.6 L80.72 45.76 L80.77 46.29 L81.38 46.64 L81.4 46.88 L81.14 47.45 L81.2 47.74 L81.14 48.19 L81.47 48.78 L81.86 49.71 L82.2 49.91 L82.2 49.91 L81.45 50.46 L80.42 50.83 L79.86 50.81 L79.52 51.09 L78.86 51.12 L78.62 51.24 L77.49 50.97 L76.78 51.05 L76.51 49.77 L76.19 49.33 L76 49.07 L75.08 48.89 L74.55 48.61 L73.95 48.45 L73.57 48.29 L73.18 48.05 L73.18 48.05 L72.67 46.86 L72.12 46.34 L71.93 45.79 L72.03 45.3 L71.86 44.43 L72.25 44.39 L72.59 44.05 L72.96 43.55 L73.19 43.36 L73.18 43.05 L72.98 42.84 L72.92 42.47 L72.92 42.47 L73.19 42.35 L73.25 41.79 L72.88 41.26 L73.21 41.15 L74.24 41.16 L76.16 41.09 Z"/><path class="continent-country" d="M36.05 14.13 L36.05 14.2 L36.03 14.38 L36.03 15.81 L32.94 15.76 L32.97 18.17 L32.08 18.25 L31.85 18.74 L32.03 20.1 L28.34 20.09 L28.14 20.41 L28.18 20.01 L28.19 20.01 L30.31 19.93 L30.43 19.59 L30.81 19.17 L31.12 17.87 L32.43 16.85 L32.88 15.67 L33.17 15.6 L33.48 14.86 L34.27 14.76 L34.61 14.88 L35.04 14.88 L35.34 14.67 L35.93 14.64 L35.91 14.13 L36.05 14.13 Z"/><path class="continent-country" d="M71.86 44.43 L72.03 45.3 L71.93 45.79 L72.12 46.34 L72.67 46.86 L73.18 48.05 L73.18 48.05 L72.81 47.95 L71.54 48.11 L71.29 48.23 L71.02 48.83 L71.23 49.24 L71.06 50.36 L70.95 51.3 L71.2 51.47 L71.86 51.84 L72.12 51.67 L72.2 52.68 L71.48 52.68 L71.09 52.16 L70.74 51.76 L70.02 51.62 L69.81 51.13 L69.23 51.43 L68.48 51.3 L68.16 50.87 L67.56 50.78 L67.12 50.8 L67.07 50.51 L66.74 50.49 L66.32 50.43 L65.73 50.57 L65.32 50.55 L65.09 50.64 L65.14 49.52 L64.82 49.17 L64.76 48.59 L64.89 48.02 L64.7 47.65 L64.69 47.06 L63.54 47.07 L63.63 46.73 L63.14 46.73 L63.09 46.9 L62.51 46.93 L62.27 47.48 L62.13 47.72 L61.61 47.59 L61.3 47.72 L60.68 47.79 L60.32 47.3 L60.1 47 L59.83 46.43 L59.6 45.73 L56.82 45.72 L56.49 45.83 L56.21 45.81 L55.82 45.94 L55.69 45.65 L55.93 45.55 L55.96 45.14 L56.12 44.9 L56.46 44.7 L56.71 44.79 L57.03 44.43 L57.54 44.44 L57.6 44.71 L57.95 44.88 L58.51 44.28 L59.06 43.82 L59.3 43.52 L59.26 42.75 L59.67 41.83 L60.1 41.35 L60.72 40.89 L60.83 40.59 L60.86 40.25 L61.01 39.92 L60.96 39.39 L61.08 38.55 L61.26 37.96 L61.54 37.46 L61.6 36.89 L61.69 36.23 L62.05 35.75 L62.56 35.45 L63.33 35.77 L63.93 36.12 L64.62 36.21 L65.32 36.4 L65.61 35.83 L65.74 35.75 L66.16 35.85 L67.21 35.38 L67.59 35.58 L67.89 35.55 L68.03 35.32 L68.38 35.24 L69.09 35.34 L69.7 35.36 L70.01 35.26 L70.58 36.04 L71 36.15 L71.25 35.99 L71.69 36.06 L72.21 35.86 L72.44 36.26 L73.27 36.89 L73.27 36.89 L73.21 37.99 L73.59 38.12 L73.28 38.45 L72.92 38.7 L72.56 39.19 L72.36 39.63 L72.31 40.39 L72.09 40.75 L72.08 41.46 L71.81 41.72 L71.78 42.28 L71.65 42.35 L71.56 42.87 L71.8 43.3 L71.86 44.43 Z"/><path class="continent-country" d="M83.4 41.78 L82.84 41 L82.83 37.57 L83.65 36.5 L83.91 36.2 L84.51 36.19 L85.35 35.52 L86.58 35.48 L89.24 32.65 L89.9 31.87 L90.32 31.29 L90.32 30.79 L90.32 29.84 L90.33 29.46 L90.33 29.44 L90.33 29.44 L90.64 29.42 L91.07 29.28 L91.57 29.19 L92.01 28.86 L92.37 28.86 L92.39 29.12 L92.31 29.67 L92.31 30.17 L92.11 30.51 L91.85 31.52 L91.39 32.58 L90.81 33.78 L90 35.16 L89.2 36.22 L88.09 37.5 L87.15 38.26 L85.74 39.2 L84.86 39.92 L83.83 41.06 L83.61 41.56 L83.4 41.78 Z"/><path class="continent-country" d="M81.15 44.6 L79.8 43.66 L79.73 43.11 L76.32 41.19 L76.16 41.09 L76.15 40.09 L76.42 39.71 L76.88 39.08 L77.23 38.4 L76.81 37.31 L76.7 36.84 L76.25 36.19 L76.83 35.63 L77.47 35 L77.96 35.16 L77.96 35.69 L78.28 36 L78.94 36 L80.13 36.8 L80.43 36.81 L80.65 36.79 L80.86 36.89 L81.49 36.97 L81.77 36.58 L82.63 36.18 L83.01 36.5 L83.65 36.5 L82.83 37.57 L82.84 41 L83.4 41.78 L82.74 42.15 L82.5 42.55 L82.15 42.62 L82.02 43.28 L81.71 43.66 L81.53 44.29 L81.15 44.6 Z"/><path class="continent-country" d="M67.36 32.44 L66.64 32.03 L66.32 31.76 L66.26 31.46 L66.41 31.07 L66.41 30.69 L65.86 30.1 L65.76 29.69 L65.77 29.47 L65.42 29.19 L65.41 28.64 L65.21 28.28 L64.88 28.33 L64.98 27.99 L65.22 27.59 L65.12 27.2 L65.42 26.91 L65.23 26.69 L65.48 26.11 L65.91 25.42 L66.72 25.48 L66.67 21.74 L66.69 21.35 L67.77 21.34 L67.77 19.46 L71.56 19.46 L75.21 19.46 L78.95 19.46 L79.25 20.39 L79.05 20.56 L79.18 21.53 L79.53 22.65 L79.89 22.89 L80.4 23.23 L79.93 23.77 L79.23 23.93 L78.94 24.22 L78.84 24.84 L78.44 26.23 L78.54 26.6 L78.39 27.41 L78.01 28.34 L77.44 28.81 L77.03 29.53 L76.94 29.91 L76.49 30.18 L76.21 31.16 L76.23 32.01 L76.21 31.27 L76.08 31.26 L76.1 30.79 L75.99 30.46 L75.5 30.09 L75.39 29.41 L75.5 28.72 L75.07 28.65 L75 28.86 L74.43 28.91 L74.66 29.19 L74.74 29.75 L74.22 30.27 L73.76 30.95 L73.27 31.05 L72.48 30.5 L72.12 30.69 L72.02 30.96 L71.54 31.14 L71.51 31.34 L70.57 31.34 L70.44 31.14 L69.76 31.11 L69.42 31.27 L69.16 31.19 L68.68 30.64 L68.51 30.38 L67.83 30.51 L67.58 30.95 L67.33 31.79 L67.01 31.97 L66.72 32.07 L67.36 32.44 Z"/><path class="continent-country" d="M66.67 21.74 L66.72 25.48 L65.91 25.42 L65.48 26.11 L65.23 26.69 L65.42 26.91 L65.12 27.2 L65.22 27.59 L64.98 27.99 L64.88 28.33 L65.21 28.28 L65.41 28.64 L65.42 29.19 L65.77 29.47 L65.76 29.69 L65.16 29.85 L64.68 30.24 L64 31.26 L63.11 31.7 L62.2 31.64 L61.94 31.73 L62.03 32.06 L61.54 32.39 L61.14 32.76 L59.95 33.12 L59.72 32.9 L59.56 32.89 L59.39 33.13 L58.61 33.2 L58.76 32.94 L58.46 32.29 L58.33 31.9 L57.92 31.74 L57.36 31.19 L57.57 30.75 L58 30.84 L58.26 30.78 L58.79 30.79 L58.27 29.93 L58.31 29.3 L58.25 28.68 L57.87 28.08 L57.97 27.63 L57.36 27.61 L57.36 27 L56.97 26.66 L57.38 25.41 L58.58 24.53 L58.63 23.3 L58.99 21.39 L59.2 20.98 L58.81 20.66 L58.79 20.36 L58.44 20.11 L58.21 18.65 L59.16 18.13 L62.92 19.94 L66.67 21.74 Z"/><path class="continent-country" d="M59.61 67.12 L60.07 66.65 L60.44 66.91 L60.6 67.31 L61.02 67.38 L61.61 67.56 L62.12 67.49 L62.96 67.01 L62.96 63.53 L63.21 63.67 L63.77 64.57 L63.69 65.14 L63.9 65.47 L64.57 65.37 L65.04 64.95 L65.49 64.67 L65.72 64.22 L66.18 64 L66.58 64.12 L67.03 64.38 L67.79 64.43 L68.4 64.21 L68.49 63.91 L68.66 63.46 L69.17 63.39 L69.45 63.03 L69.77 62.4 L70.61 61.7 L71.95 61.01 L72.33 61.02 L72.78 61.18 L73.1 61.06 L73.6 61.16 L74.05 62.48 L74.3 63.15 L74.13 64.2 L74.21 64.54 L73.74 64.37 L73.46 64.44 L73.38 64.71 L73.12 65.07 L73.13 65.39 L73.69 65.9 L74.24 65.8 L74.43 65.38 L75.15 65.39 L74.91 66.08 L74.8 66.86 L74.56 67.28 L73.91 67.76 L73.73 67.9 L73.33 68.37 L73.07 68.86 L72.53 69.53 L71.47 70.51 L70.8 71.07 L70.09 71.5 L69.11 71.87 L68.63 71.91 L68.5 72.18 L67.93 72.04 L67.47 72.22 L66.44 72.03 L65.87 72.15 L65.48 72.1 L64.51 72.47 L63.71 72.62 L63.13 72.98 L62.7 73 L62.3 72.66 L61.98 72.65 L61.57 72.23 L61.53 72.36 L61.4 72.1 L61.41 71.55 L61.1 70.92 L61.41 70.75 L61.38 70.02 L60.77 69.14 L60.29 68.34 L60.29 68.34 L59.61 67.12 Z"/><path class="continent-country" d="M71.52 67.48 L71.11 67.18 L70.67 67.38 L70.16 67.75 L69.65 68.34 L70.36 69.07 L70.7 68.97 L70.87 68.67 L71.4 68.53 L71.56 68.22 L71.84 67.76 L71.52 67.48 Z"/><path class="continent-country" d="M71.52 67.48 L71.84 67.76 L71.56 68.22 L71.4 68.53 L70.87 68.67 L70.7 68.97 L70.36 69.07 L69.65 68.34 L70.16 67.75 L70.67 67.38 L71.11 67.18 L71.52 67.48 Z"/><path class="continent-country" d="M73.6 61.16 L73.1 61.06 L72.78 61.18 L72.33 61.02 L71.95 61.01 L71.34 60.58 L70.62 60.44 L70.34 59.84 L70.34 59.51 L69.93 59.41 L68.87 58.37 L68.57 57.83 L68.38 57.66 L68.02 56.9 L69.07 57.01 L69.38 57.12 L69.7 57.09 L70.22 56.48 L71.04 55.71 L71.37 55.64 L71.49 55.31 L72.03 54.93 L72.74 54.8 L72.8 55.16 L73.59 55.14 L74.02 55.34 L74.23 55.57 L74.67 55.64 L75.16 55.94 L75.17 57.13 L74.98 57.79 L74.94 58.49 L75.09 58.77 L74.99 59.32 L74.84 59.41 L74.6 60.09 L73.6 61.16 Z"/><path class="continent-country" d="M71.95 61.01 L70.61 61.7 L69.77 62.4 L69.45 63.03 L69.17 63.39 L68.66 63.46 L68.49 63.91 L68.4 64.21 L67.79 64.43 L67.03 64.38 L66.58 64.12 L66.18 64 L65.72 64.22 L65.49 64.67 L65.04 64.95 L64.57 65.37 L63.9 65.47 L63.69 65.14 L63.77 64.57 L63.21 63.67 L62.96 63.53 L62.96 60.78 L63.89 60.75 L63.92 57.39 L64.62 57.36 L66.07 57.03 L66.43 57.42 L67.03 57.05 L67.32 57.05 L67.85 56.83 L68.02 56.9 L68.38 57.66 L68.57 57.83 L68.87 58.37 L69.93 59.41 L70.34 59.51 L70.34 59.84 L70.62 60.44 L71.34 60.58 L71.95 61.01 Z"/><path class="continent-country" d="M62.96 63.53 L62.96 67.01 L62.12 67.49 L61.61 67.56 L61.02 67.38 L60.6 67.31 L60.44 66.91 L60.07 66.65 L59.61 67.12 L58.91 66.41 L58.55 65.72 L58.34 64.8 L58.1 64.12 L57.79 62.67 L57.77 61.54 L57.65 61.03 L57.28 60.64 L56.79 59.86 L56.3 58.73 L56.09 58.14 L55.33 57.22 L55.27 56.49 L55.72 56.32 L56.29 56.15 L56.9 56.18 L57.46 56.61 L57.6 56.54 L61.42 56.5 L62.07 56.95 L64.36 57.09 L66.09 56.7 L66.86 56.49 L67.47 56.54 L67.84 56.76 L67.85 56.83 L67.32 57.05 L67.03 57.05 L66.43 57.42 L66.07 57.03 L64.62 57.36 L63.92 57.39 L63.89 60.75 L62.96 60.78 L62.96 63.53 Z"/><path class="continent-country" d="M28.47 27.38 L28.08 26.65 L27.61 26.31 L28.02 26.13 L28.48 25.47 L28.7 24.99 L29.02 24.69 L29.49 24.77 L29.95 24.56 L30.48 24.55 L30.93 24.83 L31.55 25.08 L32.12 25.77 L32.75 26.42 L32.79 27.01 L32.97 27.55 L33.33 27.81 L33.41 28.17 L33.36 28.47 L33.23 28.52 L32.71 28.45 L32.64 28.55 L32.44 28.57 L31.76 28.34 L31.3 28.33 L29.56 28.29 L29.31 28.4 L29 28.37 L28.5 28.52 L28.34 27.8 L29.2 27.82 L29.43 27.69 L29.6 27.68 L29.95 27.46 L30.35 27.66 L30.76 27.68 L31.17 27.47 L30.98 27.2 L30.67 27.35 L30.37 27.35 L30 27.12 L29.7 27.13 L29.49 27.36 L28.47 27.38 Z"/><path class="continent-country" d="M33.36 28.47 L33.41 28.17 L33.33 27.81 L32.97 27.55 L32.79 27.01 L32.75 26.42 L33.06 26.25 L33.22 25.69 L33.52 25.67 L34.18 25.93 L34.71 25.75 L35.07 25.81 L35.21 25.6 L39 25.59 L39.21 24.93 L39.04 24.81 L38.59 20.74 L38.13 16.68 L39.57 16.66 L42.75 18.72 L45.93 20.77 L46.16 21.21 L46.74 21.48 L47.18 21.64 L47.19 22.24 L48.23 22.14 L48.24 24.31 L47.72 24.94 L47.64 25.52 L46.8 25.67 L45.52 25.75 L45.17 26.09 L44.57 26.13 L43.96 26.13 L43.73 25.95 L43.21 26.08 L42.33 26.47 L42.15 26.77 L41.42 27.19 L41.29 27.43 L40.89 27.63 L40.44 27.5 L40.18 27.73 L40.04 28.37 L39.29 29.16 L39.32 29.47 L39.06 29.87 L39.12 30.42 L38.73 30.56 L38.51 30.68 L38.37 30.28 L38.09 30.38 L37.93 30.36 L37.76 30.64 L37.03 30.63 L36.77 30.49 L36.65 30.58 L36.36 30.3 L36.41 30.02 L36.29 29.91 L36.09 30.01 L36.13 29.7 L36.32 29.46 L35.93 29.06 L35.82 28.8 L35.61 28.6 L35.42 28.57 L35.2 28.7 L34.89 28.83 L34.64 29.03 L34.23 28.96 L33.97 28.72 L33.81 28.69 L33.57 28.81 L33.42 28.81 L33.36 28.47 Z"/><path class="continent-country" d="M28.14 20.41 L28.34 20.09 L32.03 20.1 L31.85 18.74 L32.08 18.25 L32.97 18.17 L32.94 15.76 L36.03 15.81 L36.03 14.38 L39.57 16.66 L38.13 16.68 L38.59 20.74 L39.04 24.81 L39.21 24.93 L39 25.59 L35.21 25.6 L35.07 25.81 L34.71 25.75 L34.18 25.93 L33.52 25.67 L33.22 25.69 L33.06 26.25 L32.75 26.42 L32.12 25.77 L31.55 25.08 L30.93 24.83 L30.48 24.55 L29.95 24.56 L29.49 24.77 L29.02 24.69 L28.7 24.99 L28.62 24.48 L28.88 24.02 L29 23.13 L28.9 22.2 L28.78 21.73 L28.88 21.26 L28.63 20.81 L28.14 20.41 Z"/><path class="continent-country" d="M46.75 34.3 L45.97 34.4 L45.74 33.75 L45.78 31.59 L45.59 31.4 L45.56 30.93 L45.23 30.6 L44.94 30.33 L45.06 29.83 L45.39 29.72 L45.58 29.31 L46.04 29.22 L46.24 28.94 L46.56 28.67 L46.9 28.66 L47.62 29.21 L47.58 29.52 L47.79 30.08 L47.61 30.46 L47.7 30.71 L47.25 31.29 L46.96 31.58 L46.78 32.18 L46.8 32.78 L46.75 34.3 Z"/><path class="continent-country" d="M58.21 18.65 L58.44 20.11 L58.79 20.36 L58.81 20.66 L59.2 20.98 L58.99 21.39 L58.63 23.3 L58.58 24.53 L57.38 25.41 L56.97 26.66 L57.36 27 L57.36 27.61 L57.97 27.63 L57.87 28.08 L57.61 28.13 L57.58 28.43 L57.4 28.45 L56.76 27.42 L56.54 27.38 L55.8 27.91 L55.08 27.63 L54.57 27.58 L54.3 27.71 L53.74 27.68 L53.19 28.08 L52.71 28.11 L51.57 27.62 L51.12 27.85 L50.64 27.83 L50.29 27.48 L49.34 27.13 L48.33 27.24 L48.08 27.44 L47.95 27.98 L47.68 28.36 L47.62 29.21 L46.9 28.66 L46.56 28.67 L46.24 28.94 L46.26 28.3 L45.18 28.08 L45.15 27.63 L44.62 27.01 L44.49 26.58 L44.57 26.13 L45.17 26.09 L45.52 25.75 L46.8 25.67 L47.64 25.52 L47.72 24.94 L48.24 24.31 L48.23 22.14 L49.56 21.72 L52.29 19.87 L55.52 18.08 L57.01 18.48 L57.54 19 L58.21 18.65 Z"/><path class="continent-country" d="M46.75 34.3 L46.8 32.78 L46.78 32.18 L46.96 31.58 L47.25 31.29 L47.7 30.71 L47.61 30.46 L47.79 30.08 L47.58 29.52 L47.62 29.21 L47.68 28.36 L47.95 27.98 L48.08 27.44 L48.33 27.24 L49.34 27.13 L50.29 27.48 L50.64 27.83 L51.12 27.85 L51.57 27.62 L52.71 28.11 L53.19 28.08 L53.74 27.68 L54.3 27.71 L54.57 27.58 L55.08 27.63 L55.8 27.91 L56.54 27.38 L56.76 27.42 L57.4 28.45 L57.58 28.43 L57.95 28.81 L57.85 28.98 L57.8 29.29 L57 30.02 L56.75 30.62 L56.62 31.11 L56.42 31.32 L56.23 31.98 L55.73 32.37 L55.58 32.84 L55.37 33.22 L55.28 33.61 L54.63 33.93 L54.1 33.54 L53.75 33.56 L53.19 34.11 L52.91 34.12 L52.47 35.03 L52.22 35.7 L51.24 36.04 L50.89 35.99 L50.52 36.2 L49.77 36.18 L49.27 35.59 L48.96 34.9 L48.29 34.28 L47.58 34.3 L46.75 34.3 Z"/><path class="continent-country" d="M57.87 28.08 L58.25 28.68 L58.31 29.3 L58.27 29.93 L58.79 30.79 L58.26 30.78 L58 30.84 L57.57 30.75 L57.36 31.19 L57.92 31.74 L58.33 31.9 L58.46 32.29 L58.76 32.94 L58.61 33.2 L58.14 34.15 L57.91 34.33 L57.84 35.06 L57.93 35.45 L57.86 35.73 L58.3 36.23 L58.38 36.56 L58.73 37.05 L59.16 37.35 L59.2 37.78 L59.3 38.06 L59.23 38.56 L58.48 38.34 L57.72 38.09 L56.53 38.06 L56.42 38 L55.86 38.13 L55.29 38 L54.84 38.06 L53.31 38.04 L53.44 37.3 L53.07 36.67 L52.64 36.51 L52.45 36.09 L52.21 35.96 L52.22 35.7 L52.47 35.03 L52.91 34.12 L53.19 34.11 L53.75 33.56 L54.1 33.54 L54.63 33.93 L55.28 33.61 L55.37 33.22 L55.58 32.84 L55.73 32.37 L56.23 31.98 L56.42 31.32 L56.62 31.11 L56.75 30.62 L57 30.02 L57.8 29.29 L57.85 28.98 L57.95 28.81 L57.58 28.43 L57.61 28.13 L57.87 28.08 Z"/><path class="continent-country" d="M45.06 29.83 L44.94 30.33 L45.23 30.6 L45.56 30.93 L45.59 31.4 L45.78 31.59 L45.74 33.75 L45.97 34.4 L45.21 34.61 L45 34.28 L44.75 33.68 L44.68 33.21 L44.88 32.36 L44.65 32.02 L44.56 31.27 L44.56 30.59 L44.17 30.1 L44.24 29.81 L45.06 29.83 Z"/><path class="continent-country" d="M44.24 29.81 L44.17 30.1 L44.56 30.59 L44.56 31.27 L44.65 32.02 L44.88 32.36 L44.68 33.21 L44.75 33.68 L45 34.28 L45.21 34.61 L43.74 35.16 L43.21 35.48 L42.36 35.75 L41.52 35.49 L41.57 35.11 L41.16 34.3 L41.4 33.24 L41.8 32.45 L41.55 31.11 L41.42 30.4 L41.44 29.86 L43.08 29.82 L43.5 29.89 L43.8 29.74 L44.24 29.81 Z"/><path class="continent-country" d="M36.65 30.58 L36.77 30.49 L37.03 30.63 L37.76 30.64 L37.93 30.36 L38.09 30.38 L38.37 30.28 L38.51 30.68 L38.73 30.56 L39.12 30.42 L39.55 30.63 L39.71 30.94 L40.13 31.14 L40.46 30.9 L40.9 30.86 L41.55 31.11 L41.8 32.45 L41.4 33.24 L41.16 34.3 L41.57 35.11 L41.52 35.49 L41.09 35.5 L40.44 35.31 L39.83 35.32 L38.72 35.49 L38.06 35.76 L37.13 36.1 L36.95 36.08 L37.02 35.3 L37.11 35.19 L37.08 34.81 L36.68 34.42 L36.38 34.36 L36.11 34.1 L36.31 33.68 L36.22 33.22 L36.26 32.95 L36.41 32.95 L36.47 32.54 L36.39 32.36 L36.48 32.23 L36.83 32.11 L36.6 31.36 L36.38 30.97 L36.46 30.65 L36.65 30.58 Z"/><path class="continent-country" d="M31.3 28.33 L31.76 28.34 L32.44 28.57 L32.64 28.55 L32.71 28.45 L33.23 28.52 L33.36 28.47 L33.42 28.81 L33.57 28.81 L33.81 28.69 L33.97 28.72 L34.23 28.96 L34.64 29.03 L34.89 28.83 L35.2 28.7 L35.42 28.57 L35.61 28.6 L35.82 28.8 L35.93 29.06 L36.32 29.46 L36.13 29.7 L36.09 30.01 L36.29 29.91 L36.41 30.02 L36.36 30.3 L36.65 30.58 L36.46 30.65 L36.38 30.97 L36.6 31.36 L36.83 32.11 L36.48 32.23 L36.39 32.36 L36.47 32.54 L36.41 32.95 L36.26 32.95 L36 32.93 L35.8 33.31 L35.54 33.3 L35.35 33.1 L35.42 32.72 L35.02 32.14 L34.78 32.25 L34.57 32.27 L34.31 32.33 L34.33 31.98 L34.17 31.73 L34.2 31.46 L34 31.06 L33.74 30.73 L32.98 30.73 L32.77 30.9 L32.51 30.92 L32.34 31.13 L32.24 31.39 L31.73 31.8 L31.32 31.25 L30.95 30.88 L30.71 30.76 L30.48 30.57 L30.37 30.15 L30.23 29.94 L29.96 29.79 L30.38 29.33 L30.66 29.35 L30.91 29.19 L31.12 29.19 L31.26 29.06 L31.18 28.75 L31.29 28.65 L31.3 28.33 Z"/><path class="continent-country" d="M28.5 28.52 L29 28.37 L29.31 28.4 L29.56 28.29 L31.3 28.33 L31.29 28.65 L31.18 28.75 L31.26 29.06 L31.12 29.19 L30.91 29.19 L30.66 29.35 L30.38 29.33 L29.96 29.79 L29.45 29.4 L29.06 29.33 L28.84 29.07 L28.85 28.92 L28.56 28.72 L28.5 28.52 Z"/><path class="continent-country" d="M36.26 32.95 L36.22 33.22 L36.31 33.68 L36.11 34.1 L36.38 34.36 L36.68 34.42 L37.08 34.81 L37.11 35.19 L37.02 35.3 L36.95 36.08 L36.7 36.09 L35.73 35.64 L34.87 34.92 L34.07 34.41 L33.44 33.8 L33.66 33.5 L33.71 33.22 L34.14 32.71 L34.57 32.27 L34.78 32.25 L35.02 32.14 L35.42 32.72 L35.35 33.1 L35.54 33.3 L35.8 33.31 L36 32.93 L36.26 32.95 Z"/><path class="continent-country" d="M31.73 31.8 L32.24 31.39 L32.34 31.13 L32.51 30.92 L32.77 30.9 L32.98 30.73 L33.74 30.73 L34 31.06 L34.2 31.46 L34.17 31.73 L34.33 31.98 L34.31 32.33 L34.57 32.27 L34.14 32.71 L33.71 33.22 L33.66 33.5 L33.44 33.8 L33.18 33.73 L32.5 33.35 L32.01 32.84 L31.85 32.5 L31.73 31.8 Z"/><path class="continent-country" d="M39.12 30.42 L39.06 29.87 L39.32 29.47 L39.29 29.16 L40.04 28.37 L40.18 27.73 L40.44 27.5 L40.89 27.63 L41.29 27.43 L41.42 27.19 L42.15 26.77 L42.33 26.47 L43.21 26.08 L43.73 25.95 L43.96 26.13 L44.57 26.13 L44.49 26.58 L44.62 27.01 L45.15 27.63 L45.18 28.08 L46.26 28.3 L46.24 28.94 L46.04 29.22 L45.58 29.31 L45.39 29.72 L45.06 29.83 L44.24 29.81 L43.8 29.74 L43.5 29.89 L43.08 29.82 L41.44 29.86 L41.42 30.4 L41.55 31.11 L40.9 30.86 L40.46 30.9 L40.13 31.14 L39.71 30.94 L39.55 30.63 L39.12 30.42 Z"/><path class="continent-country" d="M70.01 35.26 L69.7 35.36 L69.09 35.34 L68.38 35.24 L68.03 35.32 L67.89 35.55 L67.59 35.58 L67.21 35.38 L66.16 35.85 L65.74 35.75 L65.61 35.83 L65.32 36.4 L64.62 36.21 L63.93 36.12 L63.33 35.77 L62.56 35.45 L62.05 35.75 L61.69 36.23 L61.6 36.89 L60.99 36.84 L60.36 36.68 L59.8 37.18 L59.3 38.06 L59.2 37.78 L59.16 37.35 L58.73 37.05 L58.38 36.56 L58.3 36.23 L57.86 35.73 L57.93 35.45 L57.84 35.06 L57.91 34.33 L58.14 34.15 L58.61 33.2 L59.39 33.13 L59.56 32.89 L59.72 32.9 L59.95 33.12 L61.14 32.76 L61.54 32.39 L62.03 32.06 L61.94 31.73 L62.2 31.64 L63.11 31.7 L64 31.26 L64.68 30.24 L65.16 29.85 L65.76 29.69 L65.86 30.1 L66.41 30.69 L66.41 31.07 L66.26 31.46 L66.32 31.76 L66.64 32.03 L67.36 32.44 L67.88 32.82 L67.89 33.13 L68.52 33.62 L68.91 34.02 L69.15 34.59 L69.85 34.96 L70.01 35.26 Z"/><path class="continent-country" d="M61.6 36.89 L61.54 37.46 L61.26 37.96 L61.08 38.55 L60.96 39.39 L61.01 39.92 L60.86 40.25 L60.83 40.59 L60.72 40.89 L60.1 41.35 L59.67 41.83 L59.26 42.75 L59.3 43.52 L59.06 43.82 L58.51 44.28 L57.95 44.88 L57.6 44.71 L57.54 44.44 L57.03 44.43 L56.71 44.79 L56.46 44.7 L56.11 44.37 L55.82 44.53 L55.44 44.94 L54.67 43.94 L55.38 43.42 L55.03 42.8 L55.35 42.56 L55.99 42.45 L56.06 42.03 L56.57 42.48 L57.4 42.52 L57.69 42.08 L57.81 41.45 L57.7 40.71 L57.26 40.16 L57.67 39.06 L57.43 38.88 L56.73 38.95 L56.47 38.47 L56.53 38.06 L57.72 38.09 L58.48 38.34 L59.23 38.56 L59.3 38.06 L59.8 37.18 L60.36 36.68 L60.99 36.84 L61.6 36.89 Z"/><path class="continent-country" d="M54.84 38.06 L55.29 38 L55.86 38.13 L56.42 38 L56.53 38.06 L56.47 38.47 L56.73 38.95 L57.43 38.88 L57.67 39.06 L57.26 40.16 L57.7 40.71 L57.81 41.45 L57.69 42.08 L57.4 42.52 L56.57 42.48 L56.06 42.03 L55.99 42.45 L55.35 42.56 L55.03 42.8 L55.38 43.42 L54.67 43.94 L53.7 42.99 L53.08 42.21 L52.5 41.24 L52.53 40.93 L52.74 40.63 L52.97 39.94 L53.16 39.24 L53.48 39.19 L54.85 39.2 L54.84 38.06 Z"/><path class="continent-country" d="M53.31 38.04 L54.84 38.06 L54.85 39.2 L53.48 39.19 L53.16 39.24 L52.98 39.1 L53.31 38.04 Z"/><path class="continent-country" d="M73.18 48.05 L73.57 48.29 L73.95 48.45 L74.55 48.61 L75.08 48.89 L75.53 49.31 L75.76 50.11 L75.6 50.37 L75.41 51.13 L75.6 51.91 L75.3 52.24 L75.01 53.11 L75.51 53.36 L72.65 54.13 L72.74 54.8 L72.03 54.93 L71.49 55.31 L71.37 55.64 L71.04 55.71 L70.22 56.48 L69.7 57.09 L69.38 57.12 L69.07 57.01 L68.02 56.9 L67.85 56.83 L67.84 56.76 L67.47 56.54 L66.86 56.49 L66.09 56.7 L65.47 56.11 L64.84 55.34 L64.88 52.35 L66.84 52.36 L66.76 52.03 L66.9 51.68 L66.74 51.24 L66.84 50.78 L66.74 50.49 L67.07 50.51 L67.12 50.8 L67.56 50.78 L68.16 50.87 L68.48 51.3 L69.23 51.43 L69.81 51.13 L70.02 51.62 L70.74 51.76 L71.09 52.16 L71.48 52.68 L72.2 52.68 L72.12 51.67 L71.86 51.84 L71.2 51.47 L70.95 51.3 L71.06 50.36 L71.23 49.24 L71.02 48.83 L71.29 48.23 L71.54 48.11 L72.81 47.95 L73.18 48.05 Z"/><path class="continent-country" d="M75.08 48.89 L76 49.07 L76.19 49.33 L76.51 49.77 L76.78 51.05 L76.51 51.76 L76.78 52.99 L77.1 52.97 L77.44 53.28 L77.84 53.96 L77.92 55.17 L77.51 55.37 L77.22 56.02 L76.61 55.44 L76.54 54.78 L76.74 54.34 L76.68 53.96 L76.31 53.72 L76.05 53.81 L75.51 53.36 L75.01 53.11 L75.3 52.24 L75.6 51.91 L75.41 51.13 L75.6 50.37 L75.76 50.11 L75.53 49.31 L75.08 48.89 Z"/><path class="continent-country" d="M76.78 51.05 L77.49 50.97 L78.62 51.24 L78.86 51.12 L79.52 51.09 L79.86 50.81 L80.42 50.83 L81.45 50.46 L82.2 49.91 L82.2 49.91 L82.2 49.91 L82.35 50.34 L82.31 51.27 L82.43 52.1 L82.47 53.57 L82.63 54.04 L82.35 54.71 L81.99 55.36 L81.39 55.95 L80.53 56.31 L79.46 56.76 L78.4 57.77 L78.04 57.95 L77.38 58.62 L76.99 58.83 L76.91 59.51 L77.36 60.22 L77.54 60.77 L77.56 61.05 L77.72 61.01 L77.69 61.93 L77.54 62.37 L77.76 62.53 L77.62 62.92 L77.23 63.26 L76.45 63.58 L75.32 64.08 L74.91 64.43 L74.99 64.83 L75.23 64.89 L75.15 65.39 L74.43 65.38 L74.35 64.97 L74.21 64.54 L74.13 64.2 L74.3 63.15 L74.05 62.48 L73.6 61.16 L74.6 60.09 L74.84 59.41 L74.99 59.32 L75.09 58.77 L74.94 58.49 L74.98 57.79 L75.17 57.13 L75.16 55.94 L74.67 55.64 L74.23 55.57 L74.02 55.34 L73.59 55.14 L72.8 55.16 L72.74 54.8 L72.65 54.13 L75.51 53.36 L76.05 53.81 L76.31 53.72 L76.68 53.96 L76.74 54.34 L76.54 54.78 L76.61 55.44 L77.22 56.02 L77.51 55.37 L77.92 55.17 L77.84 53.96 L77.44 53.28 L77.1 52.97 L76.78 52.99 L76.51 51.76 L76.78 51.05 Z"/><path class="continent-country" d="M74.43 65.38 L74.24 65.8 L73.69 65.9 L73.13 65.39 L73.12 65.07 L73.38 64.71 L73.46 64.44 L73.74 64.37 L74.21 64.54 L74.35 64.97 L74.43 65.38 Z"/><path class="continent-country" d="M56.46 44.7 L56.12 44.9 L55.96 45.14 L55.93 45.55 L55.69 45.65 L55.44 44.94 L55.82 44.53 L56.11 44.37 L56.46 44.7 Z"/><path class="continent-country" d="M55.82 45.94 L56.21 45.81 L56.49 45.83 L56.82 45.72 L59.6 45.73 L59.83 46.43 L60.1 47 L60.32 47.3 L60.68 47.79 L61.3 47.72 L61.61 47.59 L62.13 47.72 L62.27 47.48 L62.51 46.93 L63.09 46.9 L63.14 46.73 L63.63 46.73 L63.54 47.07 L64.69 47.06 L64.7 47.65 L64.89 48.02 L64.76 48.59 L64.82 49.17 L65.14 49.52 L65.09 50.64 L65.32 50.55 L65.73 50.57 L66.32 50.43 L66.74 50.49 L66.84 50.78 L66.74 51.24 L66.9 51.68 L66.76 52.03 L66.84 52.36 L64.88 52.35 L64.84 55.34 L65.47 56.11 L66.09 56.7 L64.36 57.09 L62.07 56.95 L61.42 56.5 L57.6 56.54 L57.46 56.61 L56.9 56.18 L56.29 56.15 L55.72 56.32 L55.27 56.49 L55.18 55.9 L55.31 55.07 L55.64 54.21 L55.69 53.81 L55.99 52.96 L56.22 52.57 L56.76 51.95 L57.06 51.54 L57.16 50.84 L57.11 50.3 L56.83 49.97 L56.58 49.39 L56.35 48.83 L56.4 48.63 L56.69 48.26 L56.4 47.35 L56.21 46.72 L55.73 46.12 L55.82 45.94 Z"/><path class="continent-country" d="M72.92 42.47 L72.98 42.84 L73.18 43.05 L73.19 43.36 L72.96 43.55 L72.59 44.05 L72.25 44.39 L71.86 44.43 L71.8 43.3 L71.56 42.87 L72.13 42.94 L72.42 42.41 L72.92 42.47 Z"/><path class="continent-country" d="M90.89 51.94 L91.15 52.34 L91.38 52.96 L91.53 54.1 L91.77 54.54 L91.68 54.99 L91.51 55.27 L91.19 54.72 L91.02 54.99 L91.2 55.69 L91.11 56.09 L90.85 56.31 L90.79 57.11 L90.42 58.21 L89.96 59.51 L89.38 61.29 L89.01 62.6 L88.59 63.69 L87.82 63.92 L87 64.31 L86.46 64.07 L85.71 63.74 L85.45 63.24 L85.39 62.4 L85.06 61.65 L84.97 60.98 L85.14 60.3 L85.57 60.13 L85.57 59.82 L86.02 59.11 L86.11 58.5 L85.89 58.06 L85.71 57.46 L85.64 56.6 L85.97 56.07 L86.09 55.47 L86.56 55.44 L87.09 55.24 L87.44 55.07 L87.85 55.06 L88.39 54.52 L89.16 53.94 L89.45 53.47 L89.32 53.07 L89.72 53.18 L90.24 52.53 L90.25 51.96 L90.57 51.54 L90.89 51.94 Z"/><path class="continent-country" d="M28.47 27.38 L29.49 27.36 L29.7 27.13 L30 27.12 L30.37 27.35 L30.67 27.35 L30.98 27.2 L31.17 27.47 L30.76 27.68 L30.35 27.66 L29.95 27.46 L29.6 27.68 L29.43 27.69 L29.2 27.82 L28.34 27.8 L28.47 27.38 Z"/><path class="continent-country" d="M53.15 11.64 L52.75 9.94 L52.17 9.56 L52.16 9.34 L51.39 8.77 L51.3 8.06 L51.88 7.54 L52.11 6.76 L51.96 5.86 L52.15 5.38 L53.17 5 L53.83 5.11 L53.81 5.59 L54.61 5.24 L54.67 5.42 L54.2 5.89 L54.19 6.32 L54.52 6.56 L54.4 7.37 L53.78 7.84 L53.96 8.36 L54.44 8.37 L54.68 8.82 L55.04 8.97 L54.99 9.69 L54.53 9.96 L54.24 10.27 L53.59 10.63 L53.69 11.02 L53.61 11.42 L53.15 11.64 Z"/><path class="continent-country" d="M36.03 14.38 L36.05 14.2 L36.05 14.13 L36.04 13.02 L37.56 12.32 L38.5 12.18 L39.27 11.92 L39.63 11.45 L40.74 11.08 L40.78 10.38 L41.32 10.3 L41.75 9.95 L42.98 9.79 L43.15 9.43 L42.91 9.23 L42.58 8.23 L42.52 7.66 L42.17 7.06 L43.07 6.54 L44.09 6.38 L44.69 5.99 L45.6 5.7 L47.19 5.53 L48.75 5.46 L49.23 5.6 L50.11 5.23 L51.12 5.22 L51.5 5.44 L52.15 5.38 L51.96 5.86 L52.11 6.76 L51.88 7.54 L51.3 8.06 L51.39 8.77 L52.16 9.34 L52.17 9.56 L52.75 9.94 L53.15 11.64 L53.45 12.47 L53.5 12.91 L53.34 13.67 L53.41 14.1 L53.29 14.62 L53.37 15.21 L52.99 15.61 L53.55 16.29 L53.59 16.7 L53.92 17.22 L54.36 17.05 L55.11 17.49 L55.52 18.08 L52.29 19.87 L49.56 21.72 L48.23 22.14 L47.19 22.24 L47.18 21.64 L46.74 21.48 L46.16 21.21 L45.93 20.77 L42.75 18.72 L39.57 16.66 L36.03 14.38 Z"/><path class="continent-country" d="M78.54 26.6 L78.44 26.23 L78.84 24.84 L78.94 24.22 L79.23 23.93 L79.93 23.77 L80.4 23.23 L80.95 24.32 L81.21 25.19 L81.73 25.65 L83.01 26.54 L83.54 27.08 L84.05 27.62 L84.34 27.94 L84.81 28.23 L84.52 28.46 L84.12 28.37 L83.8 28.07 L83.41 27.52 L82.99 27.21 L82.75 26.89 L81.93 26.51 L81.28 26.5 L81.05 26.3 L80.5 26.52 L79.93 26.1 L79.64 26.8 L78.54 26.6 Z"/><path class="continent-country" d="M42.17 7.06 L42.52 7.66 L42.58 8.23 L42.91 9.23 L43.15 9.43 L42.98 9.79 L41.75 9.95 L41.32 10.3 L40.78 10.38 L40.74 11.08 L39.63 11.45 L39.27 11.92 L38.5 12.18 L37.56 12.32 L36.04 13.02 L36.05 14.13 L35.91 14.13 L35.93 14.64 L35.34 14.67 L35.04 14.88 L34.61 14.88 L34.27 14.76 L33.48 14.86 L33.17 15.6 L32.88 15.67 L32.43 16.85 L31.12 17.87 L30.81 19.17 L30.43 19.59 L30.31 19.93 L28.19 20.01 L28.18 20.01 L28.22 19.57 L28.58 19.31 L28.89 18.82 L28.83 18.5 L29.15 17.84 L29.68 17.24 L30 17.09 L30.25 16.54 L30.27 16.04 L30.61 15.45 L31.24 15.11 L31.83 14.15 L31.85 14.14 L32.32 13.77 L33.2 13.67 L33.94 13.03 L34.41 12.77 L35.2 11.99 L34.97 10.82 L35.32 10.01 L35.45 9.51 L36.06 8.87 L37 8.44 L37.7 8.05 L38.33 7.08 L38.63 6.5 L39.32 6.5 L39.89 6.9 L40.78 6.84 L41.76 7.05 L42.17 7.06 Z"/><path class="continent-country" d="M78.95 19.46 L75.21 19.46 L71.56 19.46 L67.77 19.46 L67.77 15.99 L67.77 12.64 L67.49 11.88 L67.73 11.3 L67.58 10.9 L67.92 10.45 L69.18 10.43 L70.08 10.68 L71.02 10.96 L71.46 11.11 L72.18 10.81 L72.57 10.54 L73.4 10.46 L74.07 10.58 L74.33 11.05 L74.55 10.74 L75.3 10.96 L76.04 11.01 L76.5 10.78 L76.5 10.78 L77.03 12.15 L77.12 12.4 L76.85 12.77 L76.65 13.49 L76.39 13.98 L76.18 14.14 L75.86 13.84 L75.44 13.42 L74.76 12.07 L74.67 12.15 L75.06 13.15 L75.64 14.09 L76.35 15.56 L76.7 16.07 L77 16.6 L77.84 17.65 L77.66 17.81 L77.69 18.42 L78.78 19.27 L78.95 19.46 Z"/><path class="continent-country" d="M67.77 19.46 L67.77 21.34 L66.69 21.35 L66.67 21.74 L62.92 19.94 L59.16 18.13 L58.21 18.65 L57.54 19 L57.01 18.48 L55.52 18.08 L55.11 17.49 L54.36 17.05 L53.92 17.22 L53.59 16.7 L53.55 16.29 L52.99 15.61 L53.37 15.21 L53.29 14.62 L53.41 14.1 L53.34 13.67 L53.5 12.91 L53.45 12.47 L53.15 11.64 L53.61 11.42 L53.69 11.02 L53.59 10.63 L54.24 10.27 L54.53 9.96 L54.99 9.69 L55.04 8.97 L56.15 9.29 L56.54 9.21 L57.33 9.37 L58.58 9.79 L59.02 10.63 L59.87 10.81 L61.19 11.21 L62.2 11.67 L62.66 11.43 L63.11 11 L62.89 10.27 L63.18 9.82 L63.86 9.37 L64.51 9.25 L65.79 9.44 L66.11 9.86 L66.46 9.86 L66.76 10.03 L67.69 10.14 L67.92 10.45 L67.58 10.9 L67.73 11.3 L67.49 11.88 L67.77 12.64 L67.77 15.99 L67.77 19.46 Z"/><path class="continent-country" d="M89.24 32.65 L86.58 35.48 L85.35 35.52 L84.51 36.19 L83.91 36.2 L83.65 36.5 L83.01 36.5 L82.63 36.18 L81.77 36.58 L81.49 36.97 L80.86 36.89 L80.65 36.79 L80.43 36.81 L80.13 36.8 L78.94 36 L78.28 36 L77.96 35.69 L77.96 35.16 L77.47 35 L76.92 33.98 L76.49 33.76 L76.32 33.38 L75.84 32.92 L75.26 32.86 L75.58 32.32 L76.08 32.3 L76.23 32.01 L76.21 31.16 L76.49 30.18 L76.94 29.91 L77.03 29.53 L77.44 28.81 L78.01 28.34 L78.39 27.41 L78.54 26.6 L79.64 26.8 L79.93 26.1 L80.5 26.52 L81.05 26.3 L81.28 26.5 L81.93 26.51 L82.75 26.89 L82.99 27.21 L83.41 27.52 L83.8 28.07 L84.12 28.37 L83.79 28.79 L83.47 29.23 L83.54 29.49 L83.56 29.78 L84.08 29.8 L84.31 29.73 L84.52 29.9 L84.31 30.23 L84.66 30.75 L85.01 31.2 L85.37 31.54 L88.45 32.66 L89.24 32.65 Z"/><path class="continent-country" d="M84.12 28.37 L84.52 28.46 L84.81 28.23 L85.03 28.52 L85 28.91 L84.46 29.13 L84.87 29.39 L84.52 29.9 L84.31 29.73 L84.08 29.8 L83.56 29.78 L83.54 29.49 L83.47 29.23 L83.79 28.79 L84.12 28.37 Z"/><path class="continent-country" d="M90.33 29.44 L90.33 29.44 L90.33 29.46 L90.32 29.84 L90.32 30.79 L90.32 31.29 L89.9 31.87 L89.24 32.65 L88.45 32.66 L85.37 31.54 L85.01 31.2 L84.66 30.75 L84.31 30.23 L84.52 29.9 L84.87 29.39 L85.17 29.57 L85.36 29.96 L85.78 30.35 L86.25 30.35 L87.14 30.11 L88.16 30 L88.99 29.71 L89.46 29.65 L89.8 29.47 L90.33 29.44 L90.33 29.44 Z"/><path class="continent-country" d="M76.16 41.09 L74.24 41.16 L73.21 41.15 L72.88 41.26 L72.31 41.55 L72.08 41.46 L72.09 40.75 L72.31 40.39 L72.36 39.63 L72.56 39.19 L72.92 38.7 L73.28 38.45 L73.59 38.12 L73.21 37.99 L73.27 36.89 L73.27 36.89 L73.65 36.63 L74.25 36.84 L75.01 36.62 L75.67 36.62 L76.25 36.19 L76.7 36.84 L76.81 37.31 L77.23 38.4 L76.88 39.08 L76.42 39.71 L76.15 40.09 L76.16 41.09 Z"/><path class="continent-country" d="M72.88 41.26 L73.25 41.79 L73.19 42.35 L72.92 42.47 L72.92 42.47 L72.42 42.41 L72.13 42.94 L71.56 42.87 L71.65 42.35 L71.78 42.28 L71.81 41.72 L72.08 41.46 L72.31 41.55 L72.88 41.26 Z"/><path class="continent-country" d="M73.27 36.89 L72.44 36.26 L72.21 35.86 L71.69 36.06 L71.25 35.99 L71 36.15 L70.58 36.04 L70.01 35.26 L69.85 34.96 L69.15 34.59 L68.91 34.02 L68.52 33.62 L67.89 33.13 L67.88 32.82 L67.36 32.44 L66.72 32.07 L67.01 31.97 L67.33 31.79 L67.58 30.95 L67.83 30.51 L68.51 30.38 L68.68 30.64 L69.16 31.19 L69.42 31.27 L69.76 31.11 L70.44 31.14 L70.57 31.34 L71.51 31.34 L71.54 31.14 L72.02 30.96 L72.12 30.69 L72.48 30.5 L73.27 31.05 L73.76 30.95 L74.22 30.27 L74.74 29.75 L74.66 29.19 L74.43 28.91 L75 28.86 L75.07 28.65 L75.5 28.72 L75.39 29.41 L75.5 30.09 L75.99 30.46 L76.1 30.79 L76.08 31.26 L76.21 31.27 L76.23 32.01 L76.08 32.3 L75.58 32.32 L75.26 32.86 L75.84 32.92 L76.32 33.38 L76.49 33.76 L76.92 33.98 L77.47 35 L76.83 35.63 L76.25 36.19 L75.67 36.62 L75.01 36.62 L74.25 36.84 L73.65 36.63 L73.27 36.89 Z"/></g>
</svg>
