<svg xmlns="http://www.w3.org/2000/svg" viewBox="64 23 54 34" role="img" aria-label="Asia map outline">
  <style>
    .continent-country{fill:rgba(9,8,11,.76);stroke:rgb(178, 199, 255);stroke-width:.52;stroke-linejoin:round;vector-effect:non-scaling-stroke}
  </style>
  <title>Asia</title>
  <desc>Country polygons generated from Natural Earth public domain Admin 0 data.</desc>
  <g><path class="continent-country" d="M86.69 34.79 L86.46 35 L86.21 35.02 L86.19 35.33 L86.02 35.47 L85.42 35.37 L85.2 35.92 L85.04 35.98 L84.43 36.11 L84.71 36.64 L84.5 36.72 L84.52 36.89 L84.34 36.85 L84.18 36.74 L83.73 36.7 L83.22 36.7 L83.11 36.73 L82.68 36.6 L82.5 36.66 L82.46 36.84 L81.95 36.74 L81.75 36.78 L81.68 36.92 L81.51 36.97 L81.1 37.19 L80.97 37.4 L80.86 37.41 L80.77 37.26 L80.38 37.25 L80.32 37 L80.17 37 L80.2 36.69 L79.83 36.47 L79.31 36.49 L78.95 36.54 L78.66 36.26 L78.41 36.15 L77.93 35.93 L77.88 35.9 L77.09 36.08 L77.1 37.21 L76.94 37.22 L76.73 36.98 L76.52 36.9 L76.18 36.96 L76.04 37.06 L76.03 36.99 L76.1 36.86 L76.04 36.76 L75.69 36.65 L75.55 36.38 L75.38 36.3 L75.37 36.2 L75.67 36.23 L75.68 36.01 L75.94 35.96 L76.21 36 L76.26 35.7 L76.21 35.51 L75.9 35.53 L75.64 35.45 L75.29 35.59 L75 35.65 L74.85 35.6 L74.88 35.45 L74.68 35.24 L74.46 35.25 L74.2 35.04 L74.37 34.81 L74.29 34.75 L74.53 34.41 L74.84 34.59 L74.88 34.37 L75.51 34.04 L75.99 34.03 L76.66 34.24 L77.02 34.36 L77.35 34.23 L77.83 34.23 L78.22 34.39 L78.31 34.3 L78.74 34.31 L78.82 34.16 L78.32 33.95 L78.62 33.8 L78.56 33.72 L78.85 33.64 L78.63 33.43 L78.77 33.33 L79.92 33.22 L80.06 33.15 L80.83 33.03 L81.1 32.91 L81.65 32.97 L81.75 33.29 L82.07 33.22 L82.46 33.32 L82.44 33.49 L82.73 33.47 L83.49 33.18 L83.38 33.28 L83.77 33.51 L84.46 34.29 L84.62 34.13 L85.04 34.3 L85.48 34.23 L85.65 34.28 L85.79 34.46 L86.01 34.52 L86.14 34.65 L86.53 34.61 L86.69 34.79 Z"/><path class="continent-country" d="M77.1 37.21 L77.09 36.08 L77.88 35.9 L77.93 35.93 L78.41 36.15 L78.66 36.26 L78.95 36.54 L79.31 36.49 L79.83 36.47 L80.2 36.69 L80.17 37 L80.32 37 L80.38 37.25 L80.77 37.26 L80.86 37.41 L80.97 37.4 L81.1 37.19 L81.51 36.97 L81.68 36.92 L81.77 36.95 L81.52 37.14 L81.74 37.26 L81.96 37.18 L82.32 37.34 L81.93 37.56 L81.7 37.53 L81.57 37.54 L81.53 37.46 L81.59 37.31 L81.18 37.39 L81.09 37.58 L80.94 37.75 L80.69 37.74 L80.61 37.87 L80.83 37.94 L80.9 38.17 L80.73 38.48 L80.5 38.42 L80.33 38.41 L80.33 38.23 L79.93 38.1 L79.61 37.95 L79.41 37.8 L79.06 37.59 L78.91 37.28 L78.81 37.22 L78.48 37.24 L78.36 37.17 L78.33 36.93 L77.91 36.77 L77.66 36.95 L77.4 37.05 L77.45 37.2 L77.1 37.21 Z"/><path class="continent-country" d="M103.08 50.62 L103.09 51.62 L103.09 52.62 L102.82 52.37 L102.51 52.3 L102.44 52.39 L102.05 52.4 L102.18 52.15 L102.37 52.07 L102.29 51.73 L102.14 51.48 L101.55 51.22 L101.3 51.19 L100.84 50.91 L100.75 51.06 L100.63 51.09 L100.56 50.98 L100.56 50.84 L100.33 50.69 L100.66 50.58 L100.88 50.59 L100.85 50.51 L100.4 50.51 L100.28 50.32 L100.01 50.27 L99.88 50.12 L100.29 50.04 L100.45 49.94 L100.94 50.07 L100.99 50.18 L101.07 50.68 L101.39 50.86 L101.65 50.54 L102 50.35 L102.27 50.35 L102.53 50.46 L102.76 50.57 L103.08 50.62 Z"/><path class="continent-country" d="M98.18 52.55 L98.22 52.61 L98.22 52.7 L98.02 52.93 L97.76 53 L97.72 52.96 L97.75 52.86 L97.88 52.67 L98.18 52.55 Z"/><path class="continent-country" d="M101.01 51.94 L100.98 51.71 L101.03 51.6 L101.1 51.49 L101.17 51.58 L101.17 51.73 L101.01 51.94 Z"/><path class="continent-country" d="M96.02 48.57 L95.85 48.84 L96.07 49.13 L96.02 49.27 L96.36 49.55 L96 49.59 L95.9 49.8 L95.91 50.08 L95.62 50.29 L95.61 50.59 L95.49 51.06 L95.44 50.95 L95.1 51.09 L94.98 50.9 L94.76 50.88 L94.61 50.78 L94.24 50.89 L94.13 50.75 L93.93 50.76 L93.68 50.73 L93.63 50.32 L93.48 50.23 L93.33 49.97 L93.29 49.7 L93.33 49.42 L93.51 49.22 L93.56 49.42 L93.77 49.59 L93.97 49.53 L94.16 49.55 L94.34 49.4 L94.48 49.37 L94.77 49.46 L95.02 49.39 L95.18 48.97 L95.3 48.86 L95.4 48.51 L95.75 48.51 L96.02 48.57 Z"/><path class="continent-country" d="M99.53 50.69 L99.87 50.78 L99.98 51.01 L99.72 50.88 L99.46 50.86 L99.29 50.88 L99.08 50.87 L99.15 50.7 L99.53 50.69 Z"/><path class="continent-country" d="M98.77 50.99 L98.56 50.93 L98.5 50.8 L98.81 50.79 L98.88 50.89 L98.77 50.99 Z"/><path class="continent-country" d="M99.09 49.17 L99.11 49.33 L99.29 49.36 L99.32 49.48 L99.31 49.75 L99.15 49.72 L99.1 49.91 L99.23 50.07 L99.14 50.11 L99.02 49.91 L98.93 49.52 L98.99 49.28 L99.09 49.17 Z"/><path class="continent-country" d="M97.56 49.56 L97.91 49.55 L98.21 49.33 L98.27 49.4 L98.02 49.7 L97.79 49.76 L97.5 49.7 L96.99 49.71 L96.72 49.76 L96.68 49.99 L96.95 50.26 L97.12 50.12 L97.69 50.02 L97.66 50.16 L97.53 50.11 L97.4 50.29 L97.13 50.41 L97.42 50.8 L97.36 50.91 L97.64 51.26 L97.63 51.46 L97.47 51.55 L97.35 51.44 L97.5 51.19 L97.2 51.31 L97.12 51.23 L97.16 51.11 L96.94 50.93 L96.96 50.63 L96.76 50.73 L96.79 51.08 L96.8 51.52 L96.6 51.56 L96.47 51.47 L96.56 51.19 L96.51 50.9 L96.39 50.9 L96.29 50.69 L96.42 50.49 L96.46 50.24 L96.61 49.78 L96.68 49.66 L96.94 49.43 L97.18 49.52 L97.56 49.56 Z"/><path class="continent-country" d="M96.76 52.97 L96.35 52.75 L96.64 52.69 L96.8 52.78 L96.9 52.88 L96.89 52.96 L96.76 52.97 Z"/><path class="continent-country" d="M97.08 52.44 L97.28 52.42 L97.55 52.3 L97.51 52.47 L97.05 52.56 L96.64 52.52 L96.64 52.41 L96.89 52.35 L97.08 52.44 Z"/><path class="continent-country" d="M96.14 52.39 L96.32 52.36 L96.4 52.49 L96.05 52.55 L95.83 52.59 L95.67 52.59 L95.78 52.41 L95.94 52.41 L96.03 52.3 L96.14 52.39 Z"/><path class="continent-country" d="M93.15 51.79 L93.19 51.9 L93.78 51.93 L93.84 51.81 L94.41 51.95 L94.52 52.15 L94.98 52.21 L95.35 52.39 L95.01 52.5 L94.67 52.38 L94.39 52.39 L94.08 52.37 L93.79 52.31 L93.44 52.2 L93.21 52.17 L93.08 52.2 L92.53 52.08 L92.47 51.95 L92.2 51.92 L92.4 51.63 L92.78 51.65 L93.02 51.77 L93.15 51.79 Z"/><path class="continent-country" d="M91.89 50.16 L91.94 50.38 L92.05 50.55 L92.27 50.57 L92.42 50.77 L92.35 51.15 L92.33 51.62 L91.99 51.63 L91.74 51.37 L91.35 51.12 L91.21 50.93 L90.98 50.69 L90.83 50.46 L90.6 50.03 L90.33 49.77 L90.24 49.51 L90.13 49.27 L89.85 49.08 L89.69 48.82 L89.46 48.65 L89.14 48.31 L89.12 48.16 L89.31 48.17 L89.79 48.23 L90.06 48.53 L90.29 48.73 L90.46 48.86 L90.75 49.19 L91.06 49.19 L91.32 49.4 L91.5 49.66 L91.73 49.8 L91.61 50.05 L91.78 50.15 L91.89 50.16 Z"/><path class="continent-country" d="M114.61 28.11 L115 27.98 L115 28.19 L114.66 28.2 L114.61 28.11 Z"/><path class="continent-country" d="M75 35.65 L74.86 35.83 L74.57 35.88 L74.26 36.2 L74.54 36.49 L74.51 36.7 L74.85 37.06 L74.85 37.06 L74.66 37.18 L74.61 37.26 L74.48 37.24 L74.27 37.05 L74.18 37.04 L73.99 36.97 L73.89 36.84 L73.61 36.78 L73.42 36.83 L73.37 36.77 L72.95 36.62 L72.5 36.57 L72.25 36.52 L72.21 36.56 L71.82 36.3 L71.47 36.19 L71.21 36.01 L71.43 35.96 L71.68 35.7 L71.51 35.58 L71.96 35.46 L71.95 35.39 L71.68 35.44 L71.69 35.3 L71.85 35.22 L72.14 35.19 L72.19 35.09 L72.12 34.92 L72.25 34.76 L72.24 34.67 L71.79 34.58 L71.61 34.58 L71.43 34.44 L71.19 34.48 L70.8 34.38 L70.81 34.32 L70.7 34.18 L70.46 34.17 L70.43 34.07 L70.51 34.01 L70.31 33.84 L70 33.87 L69.9 33.85 L69.83 33.92 L69.71 33.91 L69.71 33.91 L69.64 33.71 L69.57 33.61 L69.62 33.58 L69.87 33.6 L69.99 33.53 L69.9 33.45 L69.7 33.39 L69.71 33.34 L69.59 33.28 L69.4 33.08 L69.46 33 L69.43 32.86 L69.13 32.78 L68.97 32.82 L68.93 32.74 L68.61 32.67 L68.51 32.49 L68.49 32.34 L68.34 32.27 L68.47 32.17 L68.38 31.89 L68.6 31.71 L68.55 31.66 L68.55 31.66 L68.9 31.49 L68.58 31.34 L68.58 31.34 L69.23 30.95 L69.51 30.78 L69.63 30.62 L69.18 30.41 L69.3 30.21 L69.03 29.99 L69.23 29.72 L68.88 29.38 L69.16 29.14 L68.69 28.94 L68.74 28.73 L68.98 28.7 L69.5 28.58 L69.5 28.58 L69.82 28.47 L70.32 28.66 L71.16 28.73 L72.31 29.07 L72.55 29.22 L72.57 29.42 L72.23 29.58 L71.73 29.66 L70.36 29.43 L70.14 29.47 L70.64 29.69 L70.66 29.84 L70.68 30.15 L71.07 30.24 L71.31 30.32 L71.35 30.17 L71.16 30.04 L71.36 29.93 L72.1 30.12 L72.36 30.04 L72.15 29.82 L72.86 29.52 L73.14 29.54 L73.43 29.64 L73.61 29.43 L73.35 29.25 L73.5 29.07 L73.28 28.88 L74.13 28.98 L74.31 29.15 L73.92 29.19 L73.92 29.36 L74.16 29.46 L74.63 29.39 L74.71 29.2 L75.35 29.05 L76.41 28.79 L76.64 28.81 L76.34 28.99 L76.72 29.02 L76.94 28.92 L77.51 28.91 L77.97 28.78 L78.32 28.97 L78.66 28.77 L78.34 28.59 L78.5 28.49 L79.4 28.58 L79.83 28.68 L80.93 29.02 L81.14 28.86 L80.83 28.7 L80.82 28.64 L80.45 28.61 L80.55 28.46 L80.39 28.22 L80.38 28.13 L80.94 27.85 L81.14 27.57 L81.37 27.51 L82.18 27.59 L82.24 27.76 L81.95 28.01 L82.14 28.11 L82.24 28.32 L82.17 28.74 L82.51 28.93 L82.38 29.13 L81.78 29.57 L82.13 29.61 L82.25 29.5 L82.59 29.42 L82.67 29.27 L82.93 29.13 L82.75 28.95 L82.9 28.75 L82.56 28.73 L82.49 28.56 L82.73 28.25 L82.34 28 L82.88 27.79 L82.81 27.58 L82.96 27.57 L83.13 27.74 L83 28.03 L83.33 28.09 L83.19 27.87 L83.7 27.75 L84.34 27.73 L84.9 27.91 L84.63 27.65 L84.6 27.33 L85.13 27.27 L85.87 27.28 L86.53 27.24 L86.28 27.08 L86.63 26.88 L86.99 26.87 L87.58 26.72 L88.39 26.68 L88.49 26.59 L89.29 26.57 L89.54 26.63 L90.23 26.47 L90.79 26.48 L90.87 26.34 L91.16 26.21 L91.89 26.09 L92.41 26.19 L91.99 26.26 L92.69 26.31 L92.77 26.46 L93.05 26.39 L93.94 26.39 L94.63 26.54 L94.87 26.65 L94.8 26.81 L94.46 26.9 L93.66 27.07 L93.43 27.16 L93.81 27.21 L94.26 27.28 L94.53 27.23 L94.69 27.42 L94.82 27.34 L95.31 27.29 L96.29 27.35 L96.37 27.49 L97.64 27.53 L97.66 27.3 L98.31 27.35 L98.8 27.35 L99.29 27.51 L99.43 27.71 L99.25 27.84 L99.64 28.08 L100.12 28.2 L100.41 27.88 L100.9 28.02 L101.42 27.94 L102.01 28.03 L102.24 27.94 L102.74 27.99 L102.52 27.7 L102.92 27.57 L105.68 27.77 L105.94 27.95 L106.74 28.18 L107.97 28.13 L108.58 28.18 L108.84 28.3 L108.8 28.53 L109.18 28.61 L109.59 28.55 L110.13 28.54 L110.7 28.6 L111.28 28.57 L111.82 28.84 L112.19 28.74 L111.95 28.55 L112.08 28.41 L113.06 28.5 L113.69 28.48 L114.57 28.62 L115 28.76 L115 29.98 L115 29.98 L114.6 30.11 L114.21 30.09 L114.48 30.25 L114.67 30.5 L114.81 30.59 L114.84 30.71 L114.76 30.79 L114.19 30.73 L113.34 30.96 L113.07 30.99 L112.6 31.21 L112.16 31.39 L112.05 31.53 L111.61 31.32 L110.81 31.56 L110.67 31.45 L110.38 31.58 L109.97 31.54 L109.87 31.74 L109.51 32.03 L109.52 32.16 L109.86 32.23 L109.82 32.67 L109.54 32.68 L109.41 32.94 L109.54 33.07 L109 33.23 L108.9 33.57 L108.44 33.65 L108.35 33.96 L107.91 34.24 L107.79 34.03 L107.66 33.59 L107.49 32.91 L107.64 32.48 L107.9 32.3 L107.91 32.16 L108.39 32.09 L108.93 31.71 L109.46 31.39 L110.01 31.15 L110.26 30.72 L109.88 30.74 L109.7 31 L108.93 31.33 L108.68 30.96 L107.89 31.06 L107.12 31.57 L107.37 31.76 L106.69 31.84 L106.22 31.87 L106.24 31.65 L105.77 31.6 L105.39 31.75 L104.45 31.7 L103.45 31.79 L102.46 32.39 L101.29 33.11 L101.77 33.15 L101.92 33.34 L102.22 33.41 L102.41 33.25 L102.75 33.27 L103.19 33.61 L103.2 33.87 L102.96 34.17 L102.93 34.54 L102.8 35.03 L102.34 35.47 L102.23 35.68 L101.82 36.04 L101.41 36.39 L101.21 36.57 L100.8 36.75 L100.61 36.75 L100.42 36.6 L100.01 36.83 L99.96 36.93 L99.96 36.93 L99.96 36.93 L99.96 36.93 L99.92 36.88 L99.92 36.88 L99.92 36.72 L100.07 36.71 L100.12 36.35 L100.04 36.09 L100.3 35.98 L100.67 36.04 L100.87 35.74 L100.98 35.4 L101.1 35.29 L101.26 35.02 L100.75 35.11 L100.49 35.23 L100.02 35.23 L99.9 34.94 L99.54 34.72 L99.01 34.63 L98.89 34.33 L98.79 34.14 L98.67 34.01 L98.48 33.7 L98.22 33.59 L97.76 33.5 L97.35 33.5 L96.97 33.56 L96.72 33.71 L96.89 33.78 L96.89 33.95 L96.72 34.05 L96.45 34.37 L96.45 34.51 L96.02 34.7 L95.65 34.59 L95.29 34.61 L95.13 34.51 L94.94 34.48 L94.5 34.69 L94.09 34.74 L93.81 34.82 L93.43 34.77 L93.15 34.77 L92.96 34.62 L92.66 34.47 L92.35 34.43 L91.97 34.47 L91.68 34.53 L91.24 34.4 L91.19 34.17 L90.83 34.09 L90.55 34.05 L90.21 33.93 L89.89 34.24 L90.02 34.42 L89.72 34.64 L89.28 34.56 L88.97 34.55 L88.77 34.41 L88.45 34.4 L88.18 34.31 L87.72 34.45 L87.14 34.71 L86.81 34.77 L86.69 34.79 L86.53 34.61 L86.14 34.65 L86.01 34.52 L85.79 34.46 L85.65 34.28 L85.48 34.23 L85.04 34.3 L84.62 34.13 L84.46 34.29 L83.77 33.51 L83.38 33.28 L83.49 33.18 L82.73 33.47 L82.44 33.49 L82.46 33.32 L82.07 33.22 L81.75 33.29 L81.65 32.97 L81.1 32.91 L80.83 33.03 L80.06 33.15 L79.92 33.22 L78.77 33.33 L78.63 33.43 L78.85 33.64 L78.56 33.72 L78.62 33.8 L78.32 33.95 L78.82 34.16 L78.74 34.31 L78.31 34.3 L78.22 34.39 L77.83 34.23 L77.35 34.23 L77.02 34.36 L76.66 34.24 L75.99 34.03 L75.51 34.04 L74.88 34.37 L74.84 34.59 L74.53 34.41 L74.29 34.75 L74.37 34.81 L74.2 35.04 L74.46 35.25 L74.68 35.24 L74.88 35.45 L74.85 35.6 L75 35.65 Z"/><path class="continent-country" d="M88.65 25.07 L89.32 25 L89.91 25.16 L90.61 25.45 L90.54 25.73 L89.87 25.77 L89.02 25.68 L88.51 25.56 L88.28 25.34 L87.86 25.28 L88.65 25.07 Z"/><path class="continent-country" d="M91.42 25.61 L92.2 25.78 L92.11 25.9 L90.38 26.02 L90.94 25.62 L91.19 25.59 L91.42 25.61 Z"/><path class="continent-country" d="M102.42 26.57 L103.23 26.58 L104.33 26.74 L104.09 26.97 L102.97 26.96 L102.46 27.03 L101.85 26.83 L102.02 26.62 L102.42 26.57 Z"/><path class="continent-country" d="M105.29 26.81 L106.06 26.89 L105.7 27.01 L105.22 26.98 L104.65 26.86 L104.72 26.76 L105.29 26.81 Z"/><path class="continent-country" d="M102.74 27.41 L103.03 27.29 L103.41 27.26 L103.84 27.38 L103.88 27.46 L103.42 27.46 L102.79 27.43 L102.74 27.41 Z"/><path class="continent-country" d="M73.7 25.21 L74.3 25.15 L74.76 25.15 L74.83 25.23 L75 25.16 L75.29 25.11 L75.74 25.17 L75.62 25.22 L75.21 25.26 L74.94 25.28 L74.9 25.33 L74.54 25.38 L74.21 25.31 L74.38 25.22 L73.7 25.21 Z"/><path class="continent-country" d="M66.95 33.23 L66.38 33.23 L66.01 33.2 L66.08 33.07 L66.5 32.97 L66.82 33.02 L66.95 33.07 L66.92 33.15 L66.95 33.23 Z"/><path class="continent-country" d="M76.35 27.3 L77.08 27.03 L77 26.89 L77.68 26.73 L78.69 26.53 L79.71 26.47 L80.23 26.36 L80.83 26.32 L81.04 26.44 L80.83 26.54 L79.75 26.69 L78.82 26.83 L77.87 27.12 L77.41 27.42 L76.93 27.72 L77 27.97 L77.58 28.22 L77.4 28.25 L76.4 28.21 L76.32 28.07 L75.77 27.99 L75.72 27.83 L76.04 27.76 L76.02 27.59 L76.63 27.33 L76.35 27.3 Z"/><path class="continent-country" d="M103.67 33.42 L103.77 33.72 L103.77 34.02 L103.89 34.32 L104.2 34.87 L103.75 34.76 L103.56 35.21 L103.86 35.52 L103.85 35.73 L103.62 35.55 L103.42 35.79 L103.36 35.53 L103.39 35.23 L103.36 34.9 L103.43 34.67 L103.44 34.26 L103.26 33.96 L103.29 33.54 L103.57 33.4 L103.45 33.26 L103.59 33.22 L103.67 33.42 Z"/><path class="continent-country" d="M70.22 35.78 L70.3 35.71 L70.51 35.77 L70.61 35.79 L70.65 35.85 L70.7 35.86 L70.7 35.88 L70.85 35.96 L71.16 35.94 L71.1 36.05 L70.77 36.1 L70.35 36.28 L70.18 36.21 L70.25 36.07 L69.92 35.98 L69.97 35.92 L70.26 35.82 L70.22 35.78 Z"/><path class="continent-country" d="M98.18 52.55 L98.22 52.48 L98.48 52.41 L98.7 52.4 L98.79 52.36 L98.91 52.4 L98.8 52.48 L98.48 52.61 L98.22 52.7 L98.22 52.61 L98.18 52.55 Z"/><path class="continent-country" d="M70.91 39.84 L70.86 39.93 L70.75 39.89 L70.69 40.09 L70.76 40.13 L70.69 40.17 L70.67 40.25 L70.82 40.21 L70.82 40.33 L70.67 40.82 L70.64 40.74 L70.47 40.29 L70.47 40.29 L70.47 40.29 L70.56 40.19 L70.54 40.17 L70.62 40.03 L70.68 39.8 L70.72 39.72 L70.73 39.72 L70.84 39.72 L70.86 39.67 L70.95 39.66 L70.95 39.79 L70.91 39.83 L70.91 39.84 Z"/><path class="continent-country" d="M70.95 39.66 L70.86 39.67 L70.84 39.72 L70.73 39.72 L70.84 39.47 L70.99 39.26 L71 39.24 L71.14 39.26 L71.19 39.38 L71.02 39.5 L70.95 39.66 Z"/><path class="continent-country" d="M70.82 40.21 L70.67 40.25 L70.69 40.17 L70.76 40.13 L70.69 40.09 L70.75 39.89 L70.86 39.93 L70.86 40.12 L70.82 40.21 Z"/><path class="continent-country" d="M70.86 39.93 L70.91 39.84 L71.25 39.96 L71.85 39.63 L71.98 40 L71.92 40.05 L71.31 40.2 L71.61 40.51 L71.51 40.56 L71.46 40.66 L71.23 40.7 L71.15 40.81 L71.02 40.91 L70.68 40.86 L70.67 40.82 L70.82 40.33 L70.82 40.21 L70.86 40.12 L70.86 39.93 Z"/><path class="continent-country" d="M75.76 42.42 L75.81 42.41 L75.83 42.49 L76.07 42.44 L76.32 42.45 L76.5 42.46 L76.71 42.25 L76.94 42.06 L77.13 41.87 L77.19 41.97 L77.23 42.21 L77.08 42.22 L77.05 42.41 L77.11 42.46 L76.97 42.52 L76.97 42.64 L76.88 42.77 L76.87 42.89 L76.81 42.96 L75.89 42.8 L75.77 42.49 L75.76 42.42 Z"/><path class="continent-country" d="M75.53 42.27 L75.51 42.04 L75.59 41.88 L75.67 41.85 L75.76 41.95 L75.77 42.13 L75.7 42.31 L75.62 42.33 L75.53 42.27 Z"/><path class="continent-country" d="M74.66 40.67 L74.72 40.81 L74.7 40.88 L74.79 41.11 L74.58 41.11 L74.5 40.97 L74.23 40.94 L74.45 40.65 L74.66 40.67 Z"/><path class="continent-country" d="M71.98 40 L71.85 39.63 L72.53 39.31 L72.65 38.94 L72.62 38.72 L72.78 38.65 L72.94 38.45 L73.07 38.41 L73.43 38.45 L73.53 38.52 L73.68 38.47 L73.88 38.84 L74.08 38.93 L74.1 39.11 L73.95 39.21 L73.88 39.45 L74.09 39.74 L74.46 39.91 L74.62 40.14 L74.57 40.36 L74.67 40.36 L74.67 40.53 L74.84 40.69 L74.66 40.67 L74.45 40.65 L74.23 40.94 L73.66 40.91 L72.8 40.3 L72.34 40.09 L71.98 40 Z"/><path class="continent-country" d="M76.87 42.89 L76.88 42.77 L76.97 42.64 L76.97 42.52 L77.11 42.46 L77.05 42.41 L77.08 42.22 L77.23 42.21 L77.37 42.42 L77.54 42.53 L77.76 42.57 L77.95 42.63 L78.08 42.81 L78.17 42.91 L78.27 42.95 L78.27 43.01 L78.16 43.2 L78.11 43.28 L77.99 43.38 L77.87 43.59 L77.73 43.57 L77.67 43.65 L77.62 43.8 L77.66 44 L77.63 44.04 L77.49 44.04 L77.3 44.16 L77.27 44.3 L77.2 44.37 L77.01 44.37 L76.89 44.44 L76.89 44.57 L76.74 44.65 L76.57 44.62 L76.37 44.73 L76.23 44.74 L76.13 44.53 L75.89 44.02 L76.81 43.72 L77.01 43.11 L76.87 42.89 Z"/><path class="continent-country" d="M77.19 41.97 L77.13 41.87 L77.22 41.77 L77.26 41.79 L77.23 41.92 L77.19 41.97 Z"/><path class="continent-country" d="M91.35 46.11 L91.27 45.74 L91.47 45.48 L91.86 45.43 L92.15 45.47 L92.4 45.59 L92.54 45.38 L92.81 45.49 L92.88 45.69 L92.84 46.06 L92.33 46.3 L92.47 46.48 L92.14 46.5 L91.88 46.63 L91.62 46.58 L91.5 46.42 L91.35 46.11 Z"/><path class="continent-country" d="M92.15 45.47 L91.86 45.43 L91.47 45.48 L91.27 45.74 L91.35 46.11 L91.07 45.97 L90.81 45.97 L90.85 45.73 L90.59 45.73 L90.56 46.07 L90.4 46.52 L90.3 46.79 L90.32 47.01 L90.52 47.02 L90.64 47.3 L90.7 47.56 L90.87 47.74 L91.05 47.77 L91.21 47.93 L91.11 48.05 L90.91 48.09 L90.88 47.93 L90.63 47.8 L90.58 47.86 L90.46 47.74 L90.41 47.59 L90.25 47.41 L90.1 47.27 L90.05 47.45 L89.99 47.28 L90.02 47.09 L90.11 46.8 L90.26 46.48 L90.43 46.2 L90.31 45.92 L90.31 45.78 L90.28 45.61 L90.08 45.36 L90 45.21 L90.11 45.15 L90.22 44.89 L90.1 44.69 L89.9 44.46 L89.75 44.19 L89.88 44.14 L90.02 43.81 L90.24 43.79 L90.42 43.66 L90.59 43.59 L90.72 43.69 L90.74 43.87 L90.95 43.88 L90.87 44.21 L90.88 44.48 L91.2 44.3 L91.29 44.35 L91.47 44.34 L91.53 44.24 L91.76 44.26 L92 44.5 L92.02 44.81 L92.26 45.07 L92.25 45.33 L92.15 45.47 Z"/><path class="continent-country" d="M92.81 45.49 L92.54 45.38 L92.4 45.59 L92.15 45.47 L92.25 45.33 L92.26 45.07 L92.02 44.81 L92 44.5 L91.76 44.26 L91.53 44.24 L91.47 44.34 L91.29 44.35 L91.2 44.3 L90.88 44.48 L90.87 44.21 L90.95 43.88 L90.74 43.87 L90.72 43.69 L90.59 43.59 L90.66 43.48 L90.92 43.28 L90.94 43.35 L91.11 43.36 L91.06 43.01 L91.22 42.97 L91.4 43.21 L91.53 43.49 L91.91 43.49 L92.03 43.75 L91.83 43.83 L91.75 43.94 L92.11 44.13 L92.37 44.49 L92.56 44.76 L92.79 44.97 L92.87 45.19 L92.81 45.49 Z"/><path class="continent-country" d="M90.59 43.59 L90.42 43.66 L90.24 43.79 L90.02 43.81 L89.88 44.14 L89.75 44.19 L89.9 44.46 L90.1 44.69 L90.22 44.89 L90.11 45.15 L90 45.21 L90.08 45.36 L90.28 45.61 L90.31 45.78 L90.31 45.92 L90.43 46.2 L90.26 46.48 L90.11 46.8 L90.08 46.57 L90.18 46.33 L90.08 46.15 L90.1 45.82 L89.98 45.66 L89.88 45.3 L89.82 44.91 L89.69 44.66 L89.49 44.81 L89.14 45.03 L88.97 45 L88.78 44.93 L88.89 44.55 L88.82 44.27 L88.58 43.91 L88.62 43.8 L88.44 43.76 L88.22 43.51 L88.2 43.27 L88.31 43.31 L88.32 43.1 L88.47 43.02 L88.44 42.89 L88.5 42.79 L88.52 42.47 L88.75 42.54 L88.89 42.29 L88.91 42.14 L89.08 41.89 L89.07 41.71 L89.46 41.5 L89.68 41.55 L89.65 41.37 L89.76 41.31 L89.74 41.19 L89.92 41.17 L90.02 41.35 L90.15 41.43 L90.16 41.66 L90.15 41.91 L89.86 42.17 L89.82 42.53 L90.15 42.48 L90.22 42.76 L90.41 42.82 L90.32 43.07 L90.55 43.19 L90.68 43.24 L90.91 43.15 L90.92 43.28 L90.66 43.48 L90.59 43.59 Z"/><path class="continent-country" d="M91.88 46.63 L92.14 46.5 L92.47 46.48 L92.33 46.3 L92.84 46.06 L92.88 45.69 L92.81 45.49 L92.87 45.19 L92.79 44.97 L92.56 44.76 L92.37 44.49 L92.11 44.13 L91.75 43.94 L91.83 43.83 L92.03 43.75 L91.91 43.49 L91.53 43.49 L91.4 43.21 L91.22 42.97 L91.38 42.89 L91.63 42.89 L91.92 42.86 L92.18 42.7 L92.33 42.81 L92.61 42.87 L92.56 43.04 L92.71 43.17 L93.02 43.25 L92.61 43.51 L92.35 43.8 L92.29 44.01 L92.52 44.33 L92.81 44.73 L93.08 44.92 L93.27 45.16 L93.41 45.73 L93.37 46.27 L93.11 46.47 L92.76 46.66 L92.51 46.92 L92.13 47.2 L92.02 47.01 L92.11 46.8 L91.88 46.63 Z"/><path class="continent-country" d="M99.96 36.93 L99.96 36.93 L99.96 36.93 L99.96 36.93 Z"/><path class="continent-country" d="M99.92 36.88 L99.92 36.88 L99.96 36.93 L99.84 36.91 L99.71 37.02 L99.62 37.12 L99.63 37.34 L99.47 37.41 L99.42 37.46 L99.3 37.55 L99.1 37.6 L98.97 37.68 L98.96 37.81 L98.92 37.85 L99.04 37.9 L99.22 38.03 L99.17 38.11 L99.04 38.13 L98.83 38.14 L98.71 38.28 L98.57 38.27 L98.55 38.3 L98.41 38.24 L98.37 38.3 L98.28 38.32 L98.27 38.26 L98.19 38.24 L98.11 38.19 L98.19 38.05 L98.26 38.02 L98.24 37.96 L98.31 37.8 L98.29 37.75 L98.11 37.71 L97.97 37.63 L98.22 37.43 L98.56 37.27 L98.77 37.05 L98.91 37.15 L99.17 37.16 L99.13 37 L99.6 36.87 L99.72 36.7 L99.92 36.88 Z"/><path class="continent-country" d="M98.55 38.3 L98.57 38.27 L98.71 38.28 L98.83 38.14 L99.04 38.13 L99.17 38.11 L99.22 38.03 L99.48 38.39 L99.56 38.59 L99.56 38.94 L99.44 39.11 L99.17 39.17 L98.92 39.3 L98.65 39.32 L98.61 39.16 L98.67 38.93 L98.54 38.61 L98.76 38.56 L98.55 38.3 Z"/><path class="continent-country" d="M86.81 34.77 L87.14 34.71 L87.72 34.45 L88.18 34.31 L88.45 34.4 L88.77 34.41 L88.97 34.55 L89.28 34.56 L89.72 34.64 L90.02 34.42 L89.89 34.24 L90.21 33.93 L90.55 34.05 L90.83 34.09 L91.19 34.17 L91.24 34.4 L91.68 34.53 L91.97 34.47 L92.35 34.43 L92.66 34.47 L92.96 34.62 L93.15 34.77 L93.43 34.77 L93.81 34.82 L94.09 34.74 L94.5 34.69 L94.94 34.48 L95.13 34.51 L95.29 34.61 L95.65 34.59 L95.5 34.82 L95.29 35.12 L95.37 35.25 L95.54 35.21 L95.84 35.26 L96.08 35.14 L96.32 35.24 L96.6 35.45 L96.56 35.56 L96.32 35.53 L95.88 35.57 L95.66 35.66 L95.44 35.86 L94.97 35.98 L94.67 36.14 L94.36 36.08 L94.18 36.05 L94.02 36.25 L94.12 36.36 L94.17 36.46 L93.96 36.57 L93.74 36.73 L93.38 36.84 L92.92 36.85 L92.43 36.96 L92.07 37.12 L91.94 37.03 L91.57 37.03 L91.12 36.84 L90.81 36.79 L90.41 36.84 L89.78 36.77 L89.44 36.78 L89.26 36.59 L89.12 36.31 L88.93 36.28 L88.56 36.09 L88.15 36.05 L87.79 35.99 L87.68 35.86 L87.8 35.5 L87.59 35.26 L87.15 35.14 L86.89 34.98 L86.81 34.77 Z"/><path class="continent-country" d="M89.74 41.19 L89.76 41.31 L89.65 41.37 L89.68 41.55 L89.46 41.5 L89.07 41.71 L89.08 41.89 L88.91 42.14 L88.89 42.29 L88.75 42.54 L88.52 42.47 L88.5 42.79 L88.44 42.89 L88.47 43.02 L88.32 43.1 L88.16 42.61 L88.07 42.61 L88.02 42.81 L87.85 42.65 L87.95 42.47 L88.09 42.46 L88.23 42.2 L88.05 42.15 L87.77 42.15 L87.48 42.11 L87.45 41.9 L87.3 41.88 L87.06 41.75 L86.95 41.96 L87.17 42.12 L86.98 42.23 L86.91 42.34 L87.1 42.43 L87.05 42.61 L87.16 42.84 L87.2 43.09 L87.16 43.2 L86.95 43.2 L86.58 43.26 L86.59 43.49 L86.43 43.67 L85.99 43.88 L85.65 44.24 L85.42 44.43 L85.11 44.63 L85.11 44.77 L84.96 44.85 L84.69 44.96 L84.54 44.97 L84.45 45.21 L84.52 45.6 L84.53 45.86 L84.4 46.15 L84.4 46.67 L84.24 46.68 L84.1 46.91 L84.2 47.01 L83.92 47.1 L83.82 47.31 L83.69 47.4 L83.4 47.11 L83.26 46.68 L83.14 46.38 L83.04 46.23 L82.88 45.94 L82.8 45.55 L82.75 45.36 L82.47 44.94 L82.34 44.35 L82.25 43.96 L82.25 43.59 L82.19 43.31 L81.75 43.49 L81.53 43.45 L81.13 43.08 L81.28 42.97 L81.19 42.85 L80.83 42.59 L81.04 42.39 L81.71 42.39 L81.65 42.13 L81.48 41.97 L81.44 41.74 L81.24 41.6 L81.58 41.28 L81.93 41.3 L82.25 40.98 L82.44 40.67 L82.74 40.36 L82.74 40.15 L83 39.97 L82.75 39.82 L82.64 39.61 L82.53 39.34 L82.68 39.21 L83.15 39.29 L83.49 39.24 L83.78 38.99 L84.11 39.34 L84.08 39.59 L84.2 39.75 L84.19 39.9 L83.97 39.86 L84.06 40.2 L84.36 40.39 L84.78 40.61 L84.59 40.75 L84.47 41.03 L84.77 41.15 L85.06 41.3 L85.45 41.47 L85.87 41.51 L86.05 41.66 L86.29 41.69 L86.65 41.76 L86.91 41.76 L86.94 41.64 L86.9 41.44 L86.93 41.31 L87.11 41.25 L87.14 41.49 L87.14 41.55 L87.42 41.67 L87.61 41.62 L87.87 41.64 L88.12 41.63 L88.14 41.44 L88.02 41.34 L88.26 41.31 L88.54 41.08 L88.9 40.88 L89.15 40.96 L89.37 40.83 L89.51 41.02 L89.41 41.15 L89.74 41.19 Z"/><path class="continent-country" d="M88.32 43.1 L88.31 43.31 L88.2 43.27 L88.22 43.51 L88.14 43.36 L88.12 43.2 L88.06 43.05 L87.93 42.87 L87.65 42.86 L87.68 42.99 L87.58 43.16 L87.45 43.1 L87.41 43.15 L87.32 43.12 L87.2 43.09 L87.16 42.84 L87.05 42.61 L87.1 42.43 L86.91 42.34 L86.98 42.23 L87.17 42.12 L86.95 41.96 L87.06 41.75 L87.3 41.88 L87.45 41.9 L87.48 42.11 L87.77 42.15 L88.05 42.15 L88.23 42.2 L88.09 42.46 L87.95 42.47 L87.85 42.65 L88.02 42.81 L88.07 42.61 L88.16 42.61 L88.32 43.1 Z"/><path class="continent-country" d="M88.02 41.34 L88.14 41.44 L88.12 41.63 L87.87 41.64 L87.61 41.62 L87.42 41.67 L87.14 41.55 L87.14 41.49 L87.34 41.26 L87.5 41.18 L87.72 41.26 L87.88 41.26 L88.02 41.34 Z"/><path class="continent-country" d="M86.93 41.31 L86.9 41.44 L86.94 41.64 L86.91 41.76 L86.65 41.76 L86.29 41.69 L86.05 41.66 L85.87 41.51 L85.45 41.47 L85.06 41.3 L84.77 41.15 L84.47 41.03 L84.59 40.75 L84.78 40.61 L84.91 40.53 L85.16 40.63 L85.46 40.83 L85.64 40.87 L85.74 41.02 L85.98 41.08 L86.22 41.21 L86.57 41.28 L86.93 41.31 Z"/><path class="continent-country" d="M83.78 38.99 L83.49 39.24 L83.15 39.29 L82.68 39.21 L82.53 39.34 L82.64 39.61 L82.75 39.82 L83 39.97 L82.74 40.15 L82.74 40.36 L82.44 40.67 L82.25 40.98 L81.93 41.3 L81.58 41.28 L81.24 41.6 L81.44 41.74 L81.48 41.97 L81.65 42.13 L81.71 42.39 L81.04 42.39 L80.83 42.59 L80.61 42.51 L80.52 42.29 L80.28 42.06 L79.72 42.12 L79.22 42.12 L78.79 42.17 L78.91 41.81 L79.35 41.65 L79.32 41.51 L79.18 41.46 L79.17 41.2 L78.87 41.06 L78.75 40.88 L78.6 40.72 L79.11 40.87 L79.42 40.83 L79.6 40.87 L79.66 40.8 L79.88 40.83 L80.27 40.7 L80.28 40.44 L80.45 40.27 L80.68 40.27 L80.71 40.18 L80.95 40.14 L81.06 40.17 L81.18 40.08 L81.16 39.9 L81.29 39.71 L81.49 39.64 L81.37 39.44 L81.66 39.44 L81.74 39.33 L81.73 39.22 L81.88 39.09 L81.85 38.94 L81.77 38.81 L81.95 38.67 L82.28 38.61 L82.63 38.57 L82.79 38.52 L82.96 38.48 L83.19 38.63 L83.28 38.86 L83.78 38.99 Z"/><path class="continent-country" d="M80.33 38.41 L80.5 38.42 L80.73 38.48 L80.82 38.52 L81.04 38.42 L81.14 38.48 L81.24 38.34 L81.42 38.35 L81.47 38.3 L81.5 38.18 L81.64 38.07 L81.8 38.14 L81.77 38.23 L81.86 38.25 L81.83 38.5 L81.95 38.6 L82.06 38.54 L82.19 38.51 L82.39 38.37 L82.6 38.4 L82.91 38.4 L82.96 38.48 L82.79 38.52 L82.63 38.57 L82.28 38.61 L81.95 38.67 L81.77 38.81 L81.85 38.94 L81.88 39.09 L81.73 39.22 L81.74 39.33 L81.66 39.44 L81.37 39.44 L81.49 39.64 L81.29 39.71 L81.16 39.9 L81.18 40.08 L81.06 40.17 L80.95 40.14 L80.71 40.18 L80.68 40.27 L80.45 40.27 L80.28 40.44 L80.27 40.7 L79.88 40.83 L79.66 40.8 L79.6 40.87 L79.42 40.83 L79.11 40.87 L78.6 40.72 L78.88 40.44 L78.85 40.24 L78.62 40.19 L78.6 40 L78.5 39.75 L78.63 39.59 L78.49 39.54 L78.58 39.32 L78.7 38.94 L79.01 39.05 L79.25 39.01 L79.31 38.87 L79.55 38.83 L79.72 38.74 L79.78 38.49 L80.04 38.43 L80.09 38.32 L80.23 38.4 L80.33 38.41 Z"/><path class="continent-country" d="M80.73 38.48 L80.9 38.17 L80.83 37.94 L80.61 37.87 L80.69 37.74 L80.94 37.75 L81.09 37.58 L81.18 37.39 L81.59 37.31 L81.53 37.46 L81.57 37.54 L81.7 37.53 L81.59 37.63 L81.25 37.58 L81.23 37.75 L81.56 37.73 L81.93 37.83 L82.51 37.78 L82.59 38.06 L82.69 38.03 L82.88 38.1 L82.86 38.22 L82.91 38.4 L82.6 38.4 L82.39 38.37 L82.19 38.51 L82.06 38.54 L81.95 38.6 L81.83 38.5 L81.86 38.25 L81.77 38.23 L81.8 38.14 L81.64 38.07 L81.5 38.18 L81.47 38.3 L81.42 38.35 L81.24 38.34 L81.14 38.48 L81.04 38.42 L80.82 38.52 L80.73 38.48 Z"/><path class="continent-country" d="M81.68 36.92 L81.75 36.78 L81.95 36.74 L82.46 36.84 L82.5 36.66 L82.68 36.6 L83.11 36.73 L83.22 36.7 L83.73 36.7 L84.18 36.74 L84.34 36.85 L84.52 36.89 L84.48 36.96 L84 37.12 L83.89 37.25 L83.5 37.28 L83.38 37.48 L83.06 37.44 L82.85 37.5 L82.56 37.64 L82.6 37.71 L82.51 37.78 L81.93 37.83 L81.56 37.73 L81.23 37.75 L81.25 37.58 L81.59 37.63 L81.7 37.53 L81.93 37.56 L82.32 37.34 L81.96 37.18 L81.74 37.26 L81.52 37.14 L81.77 36.95 L81.68 36.92 Z"/><path class="continent-country" d="M76.04 37.06 L76.18 36.96 L76.52 36.9 L76.73 36.98 L76.94 37.22 L77.1 37.21 L77.45 37.2 L77.4 37.05 L77.66 36.95 L77.91 36.77 L78.33 36.93 L78.36 37.17 L78.48 37.24 L78.81 37.22 L78.91 37.28 L79.06 37.59 L79.41 37.8 L79.61 37.95 L79.93 38.1 L80.33 38.23 L80.33 38.41 L80.23 38.4 L80.09 38.32 L80.04 38.43 L79.78 38.49 L79.72 38.74 L79.55 38.83 L79.31 38.87 L79.25 39.01 L79.01 39.05 L78.7 38.94 L78.68 38.68 L78.45 38.67 L78.1 38.4 L77.86 38.37 L77.52 38.21 L77.3 38.18 L77.17 38.24 L76.96 38.23 L76.74 38.41 L76.48 38.46 L76.42 38.25 L76.46 37.93 L76.23 37.83 L76.3 37.62 L76.1 37.6 L76.17 37.34 L76.46 37.42 L76.73 37.32 L76.5 37.13 L76.41 36.96 L76.17 37.04 L76.14 37.26 L76.04 37.06 Z"/><path class="continent-country" d="M74.84 40.69 L74.67 40.53 L74.67 40.36 L74.57 40.36 L74.62 40.14 L74.46 39.91 L74.09 39.74 L73.88 39.45 L73.95 39.21 L74.1 39.11 L74.08 38.93 L73.88 38.84 L73.68 38.47 L73.68 38.47 L73.51 38.23 L73.57 38.13 L73.48 37.78 L73.69 37.7 L73.74 37.81 L73.89 37.95 L74.1 37.99 L74.21 37.98 L74.57 37.76 L74.69 37.74 L74.78 37.83 L74.67 37.98 L74.86 38.14 L74.94 38.12 L75.03 38.35 L75.32 38.41 L75.54 38.56 L75.97 38.62 L76.45 38.54 L76.48 38.46 L76.74 38.41 L76.96 38.23 L77.17 38.24 L77.3 38.18 L77.52 38.21 L77.86 38.37 L78.1 38.4 L78.45 38.67 L78.68 38.68 L78.7 38.94 L78.58 39.32 L78.49 39.54 L78.63 39.59 L78.5 39.75 L78.6 40 L78.62 40.19 L78.85 40.24 L78.88 40.44 L78.6 40.72 L78.75 40.88 L78.87 41.06 L79.17 41.2 L79.18 41.46 L79.32 41.51 L79.35 41.65 L78.91 41.81 L78.79 42.17 L78.22 42.08 L77.88 42.01 L77.54 41.97 L77.41 41.59 L77.26 41.54 L77.03 41.59 L76.72 41.74 L76.35 41.64 L76.04 41.4 L75.74 41.32 L75.54 41.03 L75.31 40.62 L75.15 40.67 L74.95 40.57 L74.84 40.69 Z"/><path class="continent-country" d="M70.91 39.84 L70.91 39.83 L70.95 39.79 L70.95 39.66 L71.02 39.5 L71.19 39.38 L71.14 39.26 L71 39.24 L70.97 39.01 L71.05 38.89 L71.13 38.82 L71.21 38.75 L71.23 38.58 L71.33 38.64 L71.66 38.56 L71.82 38.61 L72.08 38.61 L72.43 38.5 L72.59 38.5 L72.94 38.45 L72.78 38.65 L72.62 38.72 L72.65 38.94 L72.53 39.31 L71.85 39.63 L71.25 39.96 L70.91 39.84 Z"/><path class="continent-country" d="M74.21 37.98 L74.1 37.99 L73.97 37.82 L73.98 37.77 L73.84 37.77 L73.75 37.69 L73.69 37.7 L73.57 37.61 L73.34 37.53 L73.37 37.38 L73.32 37.27 L73.74 37.23 L73.8 37.31 L73.92 37.36 L73.86 37.44 L74.02 37.54 L73.94 37.64 L74.07 37.72 L74.2 37.77 L74.21 37.98 Z"/><path class="continent-country" d="M73.68 38.47 L73.53 38.52 L73.43 38.45 L73.07 38.41 L72.94 38.45 L72.59 38.5 L72.43 38.5 L72.08 38.61 L71.82 38.61 L71.66 38.56 L71.33 38.64 L71.23 38.58 L71.21 38.75 L71.13 38.82 L71.05 38.89 L70.93 38.75 L71.05 38.63 L70.86 38.66 L70.61 38.59 L70.4 38.76 L69.93 38.8 L69.69 38.63 L69.36 38.62 L69.29 38.75 L69.07 38.79 L68.78 38.62 L68.45 38.63 L68.26 38.33 L68.04 38.16 L68.19 37.92 L68 37.77 L68.34 37.48 L68.81 37.47 L68.93 37.24 L69.52 37.28 L69.88 37.08 L70.24 36.99 L70.75 36.98 L71.28 37.2 L71.72 37.32 L72.07 37.27 L72.34 37.3 L72.7 37.14 L73.02 37.12 L73.32 37.27 L73.37 37.38 L73.34 37.53 L73.57 37.61 L73.69 37.7 L73.48 37.78 L73.57 38.13 L73.51 38.23 L73.68 38.47 L73.68 38.47 Z"/><path class="continent-country" d="M67.98 37.05 L68.29 36.95 L68.55 36.99 L68.59 37.11 L68.86 37.21 L68.8 37.29 L68.44 37.3 L68.31 37.4 L68.05 37.56 L67.96 37.42 L67.96 37.36 L68.03 37.32 L68.13 37.13 L67.98 37.05 Z"/><path class="continent-country" d="M84.99 47.53 L84.94 47.85 L84.82 47.94 L84.55 48.01 L84.41 47.76 L84.35 47.32 L84.49 46.83 L84.7 47 L84.84 47.21 L84.99 47.53 Z"/><path class="continent-country" d="M93.45 44.27 L93.2 44.18 L93.19 43.91 L93.34 43.77 L93.68 43.69 L93.85 43.7 L93.92 43.81 L93.79 43.95 L93.71 44.12 L93.45 44.27 Z"/><path class="continent-country" d="M84.52 36.89 L84.5 36.72 L84.71 36.64 L84.43 36.11 L85.04 35.98 L85.2 35.92 L85.42 35.37 L86.02 35.47 L86.19 35.33 L86.21 35.02 L86.46 35 L86.69 34.79 L86.81 34.77 L86.89 34.98 L87.15 35.14 L87.59 35.26 L87.8 35.5 L87.68 35.86 L87.79 35.99 L88.15 36.05 L88.56 36.09 L88.93 36.28 L89.12 36.31 L89.26 36.59 L89.44 36.78 L89.78 36.77 L90.41 36.84 L90.81 36.79 L91.12 36.84 L91.57 37.03 L91.94 37.03 L92.07 37.12 L92.43 36.96 L92.92 36.85 L93.38 36.84 L93.74 36.73 L93.96 36.57 L94.17 36.46 L94.12 36.36 L94.02 36.25 L94.18 36.05 L94.36 36.08 L94.67 36.14 L94.97 35.98 L95.44 35.86 L95.66 35.66 L95.88 35.57 L96.32 35.53 L96.56 35.56 L96.6 35.45 L96.32 35.24 L96.08 35.14 L95.84 35.26 L95.54 35.21 L95.37 35.25 L95.29 35.12 L95.5 34.82 L95.65 34.59 L96.02 34.7 L96.45 34.51 L96.45 34.37 L96.72 34.05 L96.89 33.95 L96.89 33.78 L96.72 33.71 L96.97 33.56 L97.35 33.5 L97.76 33.5 L98.22 33.59 L98.48 33.7 L98.67 34.01 L98.79 34.14 L98.89 34.33 L99.01 34.63 L99.54 34.72 L99.9 34.94 L100.02 35.23 L100.49 35.23 L100.75 35.11 L101.26 35.02 L101.1 35.29 L100.98 35.4 L100.87 35.74 L100.67 36.04 L100.3 35.98 L100.04 36.09 L100.12 36.35 L100.07 36.71 L99.92 36.72 L99.92 36.88 L99.72 36.7 L99.6 36.87 L99.13 37 L99.17 37.16 L98.91 37.15 L98.77 37.05 L98.56 37.27 L98.22 37.43 L97.97 37.63 L97.54 37.72 L97.32 37.86 L96.99 37.95 L97.15 37.8 L97.09 37.68 L97.33 37.48 L97.17 37.32 L96.9 37.43 L96.56 37.64 L96.37 37.84 L96.07 37.85 L95.91 37.99 L96.07 38.2 L96.32 38.25 L96.33 38.39 L96.58 38.48 L96.92 38.26 L97.19 38.38 L97.39 38.39 L97.44 38.55 L97 38.63 L96.86 38.8 L96.56 38.95 L96.41 39.16 L96.74 39.33 L96.86 39.63 L97.04 39.91 L97.25 40.15 L97.24 40.37 L97.05 40.46 L97.13 40.62 L97.31 40.71 L97.26 40.96 L97.18 41.21 L97.01 41.23 L96.79 41.56 L96.54 41.97 L96.26 42.33 L95.84 42.61 L95.41 42.87 L95.07 42.9 L94.88 43.04 L94.77 42.94 L94.6 43.09 L94.17 43.25 L93.85 43.29 L93.75 43.62 L93.58 43.63 L93.5 43.41 L93.57 43.29 L93.16 43.2 L93.02 43.25 L92.71 43.17 L92.56 43.04 L92.61 42.87 L92.33 42.81 L92.18 42.7 L91.92 42.86 L91.63 42.89 L91.38 42.89 L91.22 42.97 L91.06 43.01 L91.11 43.36 L90.94 43.35 L90.92 43.28 L90.91 43.15 L90.68 43.24 L90.55 43.19 L90.32 43.07 L90.41 42.82 L90.22 42.76 L90.15 42.48 L89.82 42.53 L89.86 42.17 L90.15 41.91 L90.16 41.66 L90.15 41.43 L90.02 41.35 L89.92 41.17 L89.74 41.19 L89.41 41.15 L89.51 41.02 L89.37 40.83 L89.15 40.96 L88.9 40.88 L88.54 41.08 L88.26 41.31 L88.02 41.34 L87.88 41.26 L87.72 41.26 L87.5 41.18 L87.34 41.26 L87.14 41.49 L87.11 41.25 L86.93 41.31 L86.57 41.28 L86.22 41.21 L85.98 41.08 L85.74 41.02 L85.64 40.87 L85.46 40.83 L85.16 40.63 L84.91 40.53 L84.78 40.61 L84.36 40.39 L84.06 40.2 L83.97 39.86 L84.19 39.9 L84.2 39.75 L84.08 39.59 L84.11 39.34 L83.78 38.99 L83.28 38.86 L83.19 38.63 L82.96 38.48 L82.91 38.4 L82.86 38.22 L82.88 38.1 L82.69 38.03 L82.59 38.06 L82.51 37.78 L82.6 37.71 L82.56 37.64 L82.85 37.5 L83.06 37.44 L83.38 37.48 L83.5 37.28 L83.89 37.25 L84 37.12 L84.48 36.96 L84.52 36.89 Z"/><path class="continent-country" d="M97.21 42.38 L97.03 42.87 L96.89 43.12 L96.73 42.86 L96.7 42.63 L96.88 42.33 L97.12 42.1 L97.26 42.19 L97.21 42.38 Z"/><path class="continent-country" d="M74.18 37.04 L74.27 37.05 L74.48 37.24 L74.61 37.26 L74.66 37.18 L74.85 37.06 L75.01 37.22 L75.16 37.43 L75.3 37.45 L75.4 37.53 L75.15 37.55 L75.09 37.79 L75.04 37.9 L74.93 37.97 L74.94 38.12 L74.86 38.14 L74.67 37.98 L74.78 37.83 L74.69 37.74 L74.57 37.76 L74.21 37.98 L74.2 37.77 L74.07 37.72 L73.94 37.64 L74.02 37.54 L73.86 37.44 L73.92 37.36 L73.8 37.31 L73.74 37.23 L73.82 37.18 L74.04 37.26 L74.21 37.28 L74.25 37.25 L74.1 37.08 L74.18 37.04 Z"/><path class="continent-country" d="M74.1 37.99 L73.89 37.95 L73.74 37.81 L73.69 37.7 L73.75 37.69 L73.84 37.77 L73.98 37.77 L73.97 37.82 L74.1 37.99 Z"/><path class="continent-country" d="M72.21 36.56 L72.25 36.52 L72.5 36.57 L72.95 36.62 L73.37 36.77 L73.42 36.83 L73.61 36.78 L73.89 36.84 L73.99 36.97 L74.18 37.04 L74.1 37.08 L74.25 37.25 L74.21 37.28 L74.04 37.26 L73.82 37.18 L73.74 37.23 L73.32 37.27 L73.02 37.12 L72.7 37.14 L72.74 37.01 L72.67 36.8 L72.49 36.69 L72.32 36.65 L72.21 36.56 Z"/><path class="continent-country" d="M96.92 45.95 L96.77 45.72 L97.03 45.73 L97.13 45.84 L97.05 46.1 L96.92 45.95 Z"/><path class="continent-country" d="M97.46 46.78 L97.53 46.7 L97.57 46.51 L97.74 46.49 L97.69 46.69 L97.91 46.4 L97.88 46.69 L97.77 46.79 L97.68 46.98 L97.58 47.07 L97.39 46.86 L97.46 46.78 Z"/><path class="continent-country" d="M98.62 47.26 L98.65 47.46 L98.66 47.63 L98.56 47.91 L98.45 47.6 L98.31 47.76 L98.4 47.98 L98.32 48.13 L97.96 47.95 L97.87 47.73 L97.96 47.58 L97.77 47.44 L97.67 47.56 L97.53 47.55 L97.3 47.72 L97.25 47.63 L97.37 47.38 L97.57 47.29 L97.73 47.17 L97.84 47.31 L98.07 47.23 L98.12 47.09 L98.34 47.08 L98.32 46.85 L98.57 46.99 L98.59 47.15 L98.62 47.26 Z"/><path class="continent-country" d="M96.21 46.98 L95.8 47.27 L95.95 47.06 L96.17 46.87 L96.36 46.66 L96.52 46.36 L96.57 46.61 L96.37 46.77 L96.21 46.98 Z"/><path class="continent-country" d="M97.38 44.26 L97.33 44.39 L97.44 44.61 L97.35 44.86 L97.17 44.96 L97.13 45.21 L97.19 45.45 L97.36 45.49 L97.49 45.45 L97.87 45.62 L97.84 45.79 L97.94 45.86 L97.91 46 L97.67 45.85 L97.56 45.69 L97.48 45.8 L97.29 45.62 L97.01 45.66 L96.86 45.6 L96.87 45.47 L96.97 45.39 L96.88 45.32 L96.84 45.43 L96.69 45.26 L96.64 45.12 L96.63 44.83 L96.75 44.93 L96.79 44.45 L96.89 44.18 L97.07 44.18 L97.26 44.26 L97.35 44.18 L97.38 44.26 Z"/><path class="continent-country" d="M97.29 46.34 L97.24 46.2 L97.43 46.29 L97.62 46.29 L97.61 46.42 L97.47 46.55 L97.28 46.64 L97.27 46.5 L97.29 46.34 Z"/><path class="continent-country" d="M98.35 46.11 L98.43 46.46 L98.2 46.37 L98.2 46.48 L98.28 46.67 L98.13 46.73 L98.12 46.52 L98.03 46.5 L97.98 46.32 L98.16 46.34 L98.16 46.23 L97.97 45.99 L98.26 46 L98.35 46.11 Z"/><path class="continent-country" d="M90.58 47.86 L90.63 47.8 L90.88 47.93 L90.91 48.09 L91.11 48.05 L91.21 47.93 L91.28 47.96 L91.46 48.14 L91.59 48.35 L91.61 48.55 L91.57 48.69 L91.6 48.8 L91.63 48.98 L91.73 49.06 L91.85 49.33 L91.85 49.44 L91.63 49.46 L91.34 49.23 L90.98 48.99 L90.94 48.83 L90.77 48.63 L90.73 48.37 L90.62 48.21 L90.65 47.98 L90.58 47.86 Z"/><path class="continent-country" d="M96.02 48.57 L95.75 48.51 L95.4 48.51 L95.3 48.86 L95.18 48.97 L95.02 49.39 L94.77 49.46 L94.48 49.37 L94.34 49.4 L94.16 49.55 L93.97 49.53 L93.77 49.59 L93.56 49.42 L93.51 49.22 L93.73 49.32 L93.97 49.27 L94.03 49.01 L94.16 48.95 L94.53 48.88 L94.75 48.64 L94.9 48.45 L95.03 48.61 L95.1 48.5 L95.25 48.51 L95.26 48.32 L95.28 48.17 L95.51 47.95 L95.67 47.71 L95.79 47.71 L95.95 47.87 L95.96 48 L96.16 48.09 L96.42 48.18 L96.39 48.3 L96.19 48.31 L96.24 48.46 L96.02 48.57 Z"/><path class="continent-country" d="M95.28 48.17 L95.26 48.32 L95.25 48.51 L95.1 48.5 L95.03 48.61 L94.9 48.45 L95.02 48.33 L95.28 48.17 Z"/><path class="continent-country" d="M103.35 37.86 L103.07 38.17 L103.08 38.48 L102.96 38.73 L103.01 38.88 L102.86 39.09 L102.46 39.24 L101.93 39.26 L101.49 39.61 L101.29 39.49 L101.27 39.26 L100.74 39.33 L100.38 39.47 L100.02 39.48 L100.33 39.7 L100.13 40.22 L99.93 40.35 L99.78 40.23 L99.86 39.96 L99.67 39.87 L99.54 39.66 L99.83 39.56 L99.99 39.37 L100.3 39.21 L100.52 39 L101.13 38.91 L101.46 38.97 L101.78 38.43 L101.98 38.58 L102.43 38.27 L102.6 38.15 L102.79 37.78 L102.74 37.44 L102.87 37.24 L103.2 37.19 L103.36 37.61 L103.35 37.86 Z"/><path class="continent-country" d="M104.19 36.4 L104.4 36.27 L104.47 36.61 L104.02 36.7 L103.75 37 L103.27 36.79 L103.1 37.12 L102.76 37.13 L102.72 36.82 L102.87 36.59 L103.2 36.57 L103.29 36.15 L103.38 35.91 L103.74 36.23 L103.97 36.33 L104.19 36.4 Z"/><path class="continent-country" d="M100.45 39.61 L100.62 39.42 L100.79 39.46 L100.92 39.33 L101.14 39.4 L101.18 39.5 L101.01 39.69 L100.88 39.59 L100.72 39.66 L100.64 39.84 L100.44 39.75 L100.45 39.61 Z"/><path class="continent-country" d="M75.89 44.02 L76.13 44.53 L76.23 44.74 L76.01 44.82 L75.95 44.96 L75.94 45.06 L75.64 45.19 L75.15 45.34 L74.87 45.55 L74.74 45.57 L74.65 45.55 L74.47 45.68 L74.27 45.74 L74.02 45.75 L73.94 45.77 L73.87 45.85 L73.79 45.87 L73.75 45.95 L73.6 45.94 L73.5 45.98 L73.29 45.97 L73.21 45.79 L73.22 45.62 L73.17 45.53 L73.11 45.31 L73.02 45.18 L73.08 45.17 L73.05 45.03 L73.09 44.97 L73.07 44.84 L73.21 44.74 L73.17 44.61 L73.26 44.46 L73.38 44.54 L73.46 44.51 L73.82 44.5 L73.87 44.53 L74.17 44.56 L74.28 44.55 L74.36 44.65 L74.5 44.6 L74.72 44.28 L75.01 44.14 L75.89 44.02 Z"/><path class="continent-country" d="M70.68 40.86 L71.02 40.91 L71.15 40.81 L71.23 40.7 L71.46 40.66 L71.51 40.56 L71.61 40.51 L71.31 40.2 L71.92 40.05 L71.98 40 L72.34 40.09 L72.8 40.3 L73.66 40.91 L74.23 40.94 L74.5 40.97 L74.58 41.11 L74.79 41.11 L74.91 41.37 L75.06 41.44 L75.12 41.55 L75.32 41.68 L75.34 41.8 L75.31 41.9 L75.35 42.01 L75.44 42.09 L75.48 42.19 L75.53 42.27 L75.62 42.33 L75.7 42.31 L75.76 42.42 L75.77 42.49 L75.89 42.8 L76.81 42.96 L76.87 42.89 L77.01 43.11 L76.81 43.72 L75.89 44.02 L75.01 44.14 L74.72 44.28 L74.5 44.6 L74.36 44.65 L74.28 44.55 L74.17 44.56 L73.87 44.53 L73.82 44.5 L73.46 44.51 L73.38 44.54 L73.26 44.46 L73.17 44.61 L73.21 44.74 L73.07 44.84 L73.03 44.7 L72.94 44.61 L72.92 44.49 L72.76 44.38 L72.6 44.13 L72.51 43.88 L72.3 43.67 L72.16 43.62 L71.96 43.32 L71.92 43.11 L71.94 42.93 L71.76 42.59 L71.62 42.47 L71.45 42.41 L71.35 42.23 L71.37 42.17 L71.28 42.01 L71.2 41.94 L71.08 41.71 L70.89 41.47 L70.73 41.26 L70.58 41.26 L70.63 41.09 L70.64 40.98 L70.68 40.86 Z"/><path class="continent-country" d="M70 39.09 L70.02 39.09 L70.07 39.02 L70.29 39.02 L70.57 38.93 L70.36 39.06 L70.38 39.12 L70.35 39.11 L70.29 39.13 L70.24 39.12 L70.23 39.14 L70.22 39.11 L70.2 39.09 L70.14 39.08 L70.06 39.11 L70 39.09 Z"/><path class="continent-country" d="M70 39.09 L70.06 39.11 L70.14 39.08 L70.2 39.09 L70.22 39.11 L70.23 39.14 L70.24 39.12 L70.29 39.13 L70.35 39.11 L70.38 39.12 L70.39 39.14 L70.08 39.27 L69.93 39.23 L69.86 39.1 L70 39.09 Z"/></g>
</svg>
