<svg xmlns="http://www.w3.org/2000/svg" viewBox="0 0 120 78" role="img" aria-label="Europe map outline">
  <style>
    .continent-country{fill:rgba(148,163,184,.5);stroke:none;stroke-linejoin:round}
  </style>
  <title>Europe</title>
  <desc>Country polygons generated from Natural Earth public domain Admin 0 data.</desc>
  <g><path class="continent-country" d="M79.35 5.85 L79.68 5.55 L80.95 5.52 L82.04 5.83 L84.89 6.47 L82.71 6.81 L82.23 7.45 L81.47 7.61 L81.06 8.33 L80.01 8.36 L78.15 7.83 L78.94 7.53 L77.64 7.28 L75.96 6.55 L75.28 5.87 L77.64 5.56 L78.12 5.86 L79.35 5.85 Z"/><path class="continent-country" d="M93.15 14.6 L91.68 14.95 L90.98 15.03 L91.35 14.42 L90.24 14.08 L88.9 14.37 L88.47 15 L87.65 15.39 L86.72 15.18 L85.59 15.22 L84.63 14.76 L84.11 14.99 L83.57 15.03 L83.44 15.6 L81.81 15.46 L81.59 15.94 L80.75 15.94 L80.18 16.55 L79.32 17.51 L77.97 18.73 L78.29 19.02 L77.99 19.37 L77.13 19.35 L76.57 20.16 L76.62 21.31 L77.17 21.75 L76.89 22.77 L76.17 23.36 L75.79 23.86 L75.21 23.33 L73.5 24.33 L72.35 24.53 L71.15 24.09 L70.84 23.16 L70.57 21.17 L71.36 20.61 L73.65 19.88 L75.36 18.99 L76.94 17.78 L79.02 16.11 L80.47 15.46 L82.84 14.38 L84.74 14 L86.17 14.04 L87.48 13.33 L89.06 13.37 L90.61 13.19 L93.32 13.83 L92.21 14.06 L93.15 14.6 Z"/><path class="continent-country" d="M89.96 5.52 L88.68 5.99 L86.17 6.09 L83.61 5.94 L83.46 5.7 L82.22 5.69 L81.27 5.29 L83.94 5.05 L85.2 5.26 L86.08 5 L88.26 5.22 L89.96 5.52 Z"/><path class="continent-country" d="M87.64 7.43 L85.7 7.78 L84.18 7.58 L84.77 7.35 L84.25 7.08 L86.04 6.91 L86.39 7.23 L87.64 7.43 Z"/><path class="continent-country" d="M21.56 71.18 L21.05 71.97 L20.78 72.61 L20.45 72.94 L20.04 73 L19.92 72.76 L19.72 72.72 L19.46 72.95 L19.08 72.78 L19.3 72.41 L19.38 72.02 L19.53 71.64 L19.19 71.13 L19.12 70.54 L19.57 69.8 L19.86 69.89 L20.5 70.1 L21.42 70.83 L21.56 71.18 Z"/><path class="continent-country" d="M71.6 31.99 L72.01 32.21 L73.25 32.37 L72.82 32.96 L72.71 33.58 L72.47 33.73 L72.08 33.65 L72.1 33.87 L71.47 34.35 L71.46 34.75 L71.87 34.61 L72.17 34.99 L72.13 35.23 L72.39 35.56 L72.09 35.82 L72.31 36.49 L72.78 36.6 L72.68 36.98 L71.9 37.47 L70.19 37.23 L68.93 37.51 L68.83 38.03 L67.83 38.15 L66.85 37.75 L66.54 37.94 L64.95 37.55 L64.6 37.21 L65.05 36.69 L65.21 34.97 L64.32 34.06 L63.68 33.62 L62.36 33.29 L62.27 32.66 L63.4 32.47 L64.85 32.69 L64.58 31.71 L65.39 32.09 L67.41 31.41 L67.67 30.7 L68.42 30.53 L68.55 30.83 L68.95 30.85 L69.35 31.19 L69.96 31.6 L70.4 31.53 L71.16 31.93 L71.35 32 L71.6 31.99 Z"/><path class="continent-country" d="M73.81 37.9 L74.37 37.57 L74.52 38.31 L74.23 38.98 L73.84 38.8 L73.64 38.22 L73.81 37.9 Z"/><path class="continent-country" d="M75.79 23.86 L76.17 23.36 L76.89 22.77 L77.17 21.75 L76.62 21.31 L76.57 20.16 L77.13 19.35 L77.99 19.37 L78.29 19.02 L77.97 18.73 L79.32 17.51 L80.18 16.55 L80.75 15.94 L81.59 15.94 L81.81 15.46 L83.44 15.6 L83.57 15.03 L84.11 14.99 L85.26 15.42 L86.61 16.01 L86.63 17.34 L86.93 17.67 L85.44 17.92 L84.6 18.52 L84.73 19.05 L83.36 19.75 L81.69 20.49 L81.06 21.71 L81.67 22.32 L82.5 22.8 L81.71 23.78 L80.81 23.98 L80.48 25.43 L79.99 26.24 L78.94 26.16 L78.45 26.84 L77.44 26.88 L77.17 26.07 L76.45 25.08 L75.79 23.86 Z"/><path class="continent-country" d="M90.62 26.18 L91.53 26.4 L91.66 26.62 L92.11 26.51 L92.96 26.72 L93.04 27.13 L92.86 27.36 L93.4 27.93 L93.75 28.08 L93.7 28.24 L94.28 28.39 L94.53 28.62 L94.19 28.81 L93.5 28.78 L93.33 28.86 L93.53 29.15 L93.75 29.7 L93.75 29.7 L93 29.75 L92.74 29.94 L92.68 30.38 L92.34 30.3 L91.56 30.34 L91.33 30.14 L91 30.29 L90.68 30.16 L90 30.14 L89.03 29.94 L88.16 29.87 L87.49 29.89 L87.01 30.12 L86.6 30.16 L86.58 29.77 L86.32 29.37 L86.84 29.19 L86.84 28.85 L86.6 28.52 L86.56 28.14 L87.4 28.14 L88.34 27.82 L88.54 27.33 L89.25 27.05 L89.17 26.66 L89.69 26.52 L90.62 26.18 Z"/><path class="continent-country" d="M93.75 29.7 L94.07 29.74 L94.29 29.54 L94.55 29.58 L95.45 29.5 L96 29.99 L95.78 30.17 L95.86 30.43 L96.55 30.48 L96.85 30.85 L96.83 31.02 L97.93 31.33 L98.6 31.19 L99.13 31.59 L99.64 31.59 L100.91 31.87 L100.92 32.12 L100.57 32.57 L100.76 33.05 L100.63 33.34 L99.79 33.4 L99.34 33.64 L99.31 34.03 L98.62 34.1 L98.05 34.38 L97.24 34.42 L96.49 34.75 L96.54 35.21 L96.41 35.18 L96.29 35.01 L96.02 34.98 L95.4 34.79 L95.17 35.01 L95.05 34.91 L93.71 34.69 L93.65 34.37 L92.85 34.48 L92.53 34.95 L91.86 35.59 L91.47 35.44 L91.06 35.58 L90.67 35.42 L90.89 35.33 L91.04 35.03 L91.28 34.76 L91.22 34.6 L91.4 34.53 L91.48 34.65 L91.99 34.68 L92.22 34.62 L92.06 34.53 L92.12 34.4 L91.82 34.18 L91.69 33.82 L91.38 33.68 L91.44 33.38 L91.05 33.15 L90.7 33.12 L90.06 32.85 L89.48 32.93 L89.28 33.06 L88.91 33.06 L88.69 33.26 L88.05 33.35 L87.76 33.48 L87.36 33.27 L86.8 33.26 L86.27 33.17 L85.89 33.35 L85.83 33.12 L85.35 32.89 L85.52 32.54 L85.76 32.31 L85.95 32.36 L85.73 31.97 L86.51 31.25 L86.94 31.15 L87.04 30.91 L86.6 30.16 L87.01 30.12 L87.49 29.89 L88.16 29.87 L89.03 29.94 L90 30.14 L90.68 30.16 L91 30.29 L91.33 30.14 L91.56 30.34 L92.34 30.3 L92.68 30.38 L92.74 29.94 L93 29.75 L93.75 29.7 Z"/><path class="continent-country" d="M86.56 28.14 L86.6 28.52 L86.84 28.85 L86.84 29.19 L86.32 29.37 L86.58 29.77 L86.6 30.16 L87.04 30.91 L86.94 31.15 L86.51 31.25 L85.73 31.97 L85.95 32.36 L85.76 32.31 L84.94 31.98 L84.32 32.1 L83.91 32.01 L83.4 32.2 L82.96 31.89 L82.61 32.01 L82.56 31.96 L82.16 31.53 L81.52 31.48 L81.43 31.21 L80.84 31.11 L80.71 31.33 L80.24 31.16 L80.3 30.92 L79.65 30.84 L79.24 30.56 L78.88 30.01 L78.95 29.71 L78.74 29.25 L78.42 28.94 L78.66 28.71 L78.46 28.27 L79.05 28.02 L80.4 27.62 L81.49 27.32 L82.36 27.47 L82.42 27.68 L83.26 27.69 L84.32 27.79 L85.91 27.78 L86.36 27.87 L86.56 28.14 Z"/><path class="continent-country" d="M80.94 33.14 L80.87 33.5 L80.38 33.5 L80.55 33.69 L80.26 34.24 L80.1 34.39 L79.34 34.41 L78.91 34.61 L78.19 34.54 L76.95 34.32 L76.76 34.02 L75.91 34.17 L75.81 34.33 L75.28 34.21 L74.84 34.19 L74.45 34.03 L74.58 33.82 L74.55 33.66 L74.81 33.61 L75.25 33.86 L75.37 33.63 L76.13 33.66 L76.75 33.51 L77.17 33.54 L77.44 33.71 L77.52 33.57 L77.39 33 L77.7 32.89 L78.01 32.49 L78.65 32.77 L79.14 32.42 L79.44 32.35 L80.11 32.62 L80.52 32.57 L80.92 32.74 L80.85 32.85 L80.94 33.14 Z"/><path class="continent-country" d="M85.35 32.89 L85.83 33.12 L85.89 33.35 L85.37 33.54 L84.96 34.12 L84.43 34.71 L83.74 34.87 L83.2 34.83 L82.54 35.06 L82.54 35.06 L82.21 35.19 L81.5 35.02 L80.85 34.65 L80.58 34.55 L80.41 34.25 L80.26 34.24 L80.55 33.69 L80.38 33.5 L80.87 33.5 L80.94 33.14 L81.38 33.37 L81.7 33.46 L82.42 33.35 L82.49 33.18 L82.84 33.16 L83.26 33.02 L83.35 33.08 L83.76 32.97 L83.96 32.76 L84.24 32.71 L85.17 32.97 L85.35 32.89 Z"/><path class="continent-country" d="M89.28 33.06 L89.48 32.93 L90.06 32.85 L90.7 33.12 L91.05 33.15 L91.44 33.38 L91.38 33.68 L91.69 33.82 L91.82 34.18 L92.12 34.4 L92.06 34.53 L92.22 34.62 L91.99 34.68 L91.48 34.65 L91.4 34.53 L91.22 34.6 L91.28 34.76 L91.04 35.03 L90.89 35.33 L90.67 35.42 L90.52 35.03 L90.61 34.66 L90.58 34.28 L90.08 33.77 L89.81 33.4 L89.54 33.15 L89.28 33.06 Z"/><path class="continent-country" d="M90.67 35.42 L91.06 35.58 L91.47 35.44 L91.86 35.59 L91.88 35.82 L91.46 36 L91.2 35.92 L90.95 36.97 L90.44 36.87 L89.82 36.56 L88.8 36.76 L88.37 36.98 L87.1 36.94 L86.43 36.8 L86.1 36.86 L85.85 36.51 L85.69 36.36 L85.89 36.21 L85.68 36.1 L85.41 36.3 L84.9 36.05 L84.83 35.69 L84.31 35.49 L84.21 35.21 L83.74 34.87 L84.43 34.71 L84.96 34.12 L85.37 33.54 L85.89 33.35 L86.27 33.17 L86.8 33.26 L87.36 33.27 L87.76 33.48 L88.05 33.35 L88.69 33.26 L88.91 33.06 L89.28 33.06 L89.54 33.15 L89.81 33.4 L90.08 33.77 L90.58 34.28 L90.61 34.66 L90.52 35.03 L90.67 35.42 Z"/><path class="continent-country" d="M89.17 26.66 L89.25 27.05 L88.54 27.33 L88.34 27.82 L87.4 28.14 L86.56 28.14 L86.36 27.87 L85.91 27.78 L85.84 27.56 L85.94 27.32 L85.55 27.18 L84.65 27.03 L84.46 26.3 L85.45 26.04 L86.9 26.09 L87.75 26.01 L87.88 26.19 L88.34 26.24 L89.17 26.66 Z"/><path class="continent-country" d="M89.85 25.06 L90.27 25.25 L90.35 25.67 L90.62 26.18 L89.69 26.52 L89.17 26.66 L88.34 26.24 L87.88 26.19 L87.75 26.01 L86.9 26.09 L85.45 26.04 L84.46 26.3 L84.49 25.65 L84.92 25.11 L85.73 24.81 L86.42 25.46 L87.11 25.44 L87.28 24.78 L88.02 24.63 L88.4 24.73 L89.14 25.05 L89.85 25.06 Z"/><path class="continent-country" d="M90.45 23.32 L90.45 23.32 L90.58 23.48 L89.97 23.97 L90.23 24.78 L89.85 25.06 L89.14 25.05 L88.4 24.73 L88.02 24.63 L87.28 24.78 L87.38 24.27 L87.06 24.38 L86.51 24.07 L86.44 23.57 L87.53 23.33 L88.62 23.21 L89.56 23.35 L90.45 23.32 L90.45 23.32 Z"/><path class="continent-country" d="M78.46 28.27 L78.66 28.71 L78.42 28.94 L78.74 29.25 L78.95 29.71 L78.88 30.01 L79.24 30.56 L78.85 30.65 L78.62 30.55 L78.41 30.72 L77.79 30.89 L77.47 31.1 L76.84 31.29 L76.99 31.55 L77.08 31.91 L77.52 32.12 L78.01 32.49 L77.7 32.89 L77.39 33 L77.52 33.57 L77.44 33.71 L77.17 33.54 L76.75 33.51 L76.13 33.66 L75.37 33.63 L75.25 33.86 L74.81 33.61 L74.55 33.66 L73.62 33.4 L73.44 33.59 L72.71 33.58 L72.82 32.96 L73.25 32.37 L72.01 32.21 L71.6 31.99 L71.65 31.61 L71.48 31.41 L71.57 30.83 L71.43 29.92 L71.95 29.92 L72.17 29.59 L72.38 28.8 L72.22 28.51 L72.39 28.33 L73.11 28.28 L73.27 28.47 L73.86 28.04 L73.66 27.72 L73.62 27.23 L74.28 27.34 L74.83 27.21 L74.85 27.54 L75.72 27.75 L75.71 28.05 L76.59 27.89 L77.08 27.65 L78.05 28 L78.46 28.27 Z"/><path class="continent-country" d="M85.85 36.51 L86.1 36.86 L86.43 36.8 L87.1 36.94 L88.37 36.98 L88.8 36.76 L89.82 36.56 L90.44 36.87 L90.95 36.97 L90.5 37.32 L90.19 37.94 L90.47 38.44 L89.72 38.32 L88.84 38.59 L88.83 39.02 L88.05 39.1 L87.44 38.8 L86.74 39.04 L86.1 39.01 L86.04 38.44 L85.61 38.17 L85.75 38.04 L85.66 37.94 L85.8 37.66 L86.13 37.39 L85.71 37.02 L85.63 36.71 L85.85 36.51 Z"/><path class="continent-country" d="M88.99 44.24 L88.88 44.49 L87.64 44.57 L87.65 44.42 L86.59 44.26 L86.75 43.89 L87.22 44.18 L87.9 44.13 L88.54 44.19 L88.52 44.34 L88.99 44.24 Z"/><path class="continent-country" d="M86.1 39.01 L86.74 39.04 L87.44 38.8 L88.05 39.1 L88.83 39.02 L88.84 38.59 L89.26 38.82 L89 39.36 L88.79 39.46 L88.26 39.43 L87.81 39.35 L86.76 39.58 L87.36 40.06 L86.92 40.21 L86.44 40.21 L85.98 39.76 L85.82 39.95 L86.02 40.47 L86.45 40.87 L86.12 41.06 L86.6 41.46 L87.03 41.71 L87.04 42.2 L86.24 41.97 L86.5 42.41 L85.95 42.5 L86.28 43.27 L85.7 43.28 L84.99 42.9 L84.67 42.21 L84.52 41.63 L84.18 41.24 L83.74 40.74 L83.68 40.5 L84.08 40.08 L84.13 39.8 L84.41 39.67 L84.43 39.44 L85 39.37 L85.33 39.18 L85.8 39.19 L85.94 39.04 L86.1 39.01 Z"/><path class="continent-country" d="M84.43 39.44 L84.41 39.67 L84.13 39.8 L84.08 40.08 L83.68 40.5 L83.53 40.44 L83.52 40.25 L83.04 39.96 L82.96 39.54 L83.03 38.95 L83.15 38.68 L83.01 38.55 L83.01 38.55 L82.95 38.27 L83.32 37.85 L83.38 38.01 L83.61 37.93 L83.8 38.17 L84 38.25 L84.06 38.57 L84.06 38.57 L83.95 38.86 L84.07 39.23 L84.43 39.44 Z"/><path class="continent-country" d="M80.58 34.55 L80.85 34.65 L81.5 35.02 L82.21 35.19 L82.54 35.06 L82.75 35.4 L83.02 35.64 L82.69 35.97 L82.3 35.78 L81.7 35.79 L80.96 35.64 L80.55 35.66 L80.36 35.84 L80.05 35.64 L79.87 36 L80.3 36.41 L80.48 36.68 L80.88 37 L81.21 37.19 L81.54 37.55 L82.3 37.88 L82.21 38.03 L82.21 38.03 L81.4 37.71 L80.89 37.4 L80.1 37.14 L79.38 36.5 L79.55 36.44 L79.16 36.07 L79.14 35.78 L78.58 35.64 L78.32 36.02 L78.06 35.73 L78.08 35.43 L78.11 35.41 L78.72 35.44 L78.87 35.3 L79.17 35.44 L79.51 35.46 L79.5 35.21 L79.81 35.13 L79.89 34.78 L80.58 34.55 Z"/><path class="continent-country" d="M74.55 33.66 L74.58 33.82 L74.45 34.03 L74.84 34.19 L75.28 34.21 L75.21 34.56 L74.83 34.71 L74.19 34.6 L74 34.95 L73.59 34.98 L73.44 34.84 L72.96 35.13 L72.54 35.17 L72.17 34.99 L71.87 34.61 L71.46 34.75 L71.47 34.35 L72.1 33.87 L72.08 33.65 L72.47 33.73 L72.71 33.58 L73.44 33.59 L73.62 33.4 L74.55 33.66 Z"/><path class="continent-country" d="M71.48 31.41 L71.65 31.61 L71.6 31.99 L71.35 32 L71.16 31.93 L71.25 31.44 L71.48 31.41 Z"/><path class="continent-country" d="M71.57 30.83 L71.48 31.41 L71.25 31.44 L71.16 31.93 L70.4 31.53 L69.96 31.6 L69.35 31.19 L68.95 30.85 L68.55 30.83 L68.42 30.53 L69.12 30.36 L69.12 30.36 L69.12 30.36 L69.75 30.43 L70.55 30.25 L71.1 30.62 L71.57 30.83 Z"/><path class="continent-country" d="M72.22 28.51 L72.38 28.8 L72.17 29.59 L71.95 29.92 L71.43 29.92 L71.57 30.83 L71.1 30.62 L70.55 30.25 L69.75 30.43 L69.12 30.36 L69.12 30.36 L69.56 30.12 L70.32 28.85 L71.5 28.48 L72.22 28.51 Z"/><path class="continent-country" d="M58.43 38.55 L58.75 38.33 L59.1 38.2 L59.32 38.62 L59.83 38.62 L59.97 38.51 L60.48 38.54 L60.72 38.98 L60.32 39.21 L60.31 39.89 L60.17 40.01 L60.13 40.42 L59.76 40.49 L60.11 41.01 L59.87 41.58 L60.17 41.84 L60.05 42.07 L59.73 42.4 L59.8 42.68 L59.45 42.91 L59 42.79 L58.55 42.88 L58.68 42.2 L58.6 41.67 L58.21 41.59 L58.01 41.26 L58.08 40.7 L58.42 40.38 L58.48 40.03 L58.66 39.51 L58.64 39.15 L58.47 38.84 L58.43 38.55 Z"/><path class="continent-country" d="M59.8 42.68 L59.73 42.4 L60.05 42.07 L60.17 41.84 L59.87 41.58 L60.11 41.01 L59.76 40.49 L60.13 40.42 L60.17 40.01 L60.31 39.89 L60.32 39.21 L60.72 38.98 L60.48 38.54 L59.97 38.51 L59.83 38.62 L59.32 38.62 L59.1 38.2 L58.75 38.33 L58.43 38.55 L58.48 37.93 L58.12 37.55 L59.35 36.93 L60.4 37.09 L61.57 37.08 L62.49 37.23 L63.2 37.18 L64.6 37.21 L64.95 37.55 L66.54 37.94 L66.85 37.75 L67.83 38.15 L68.83 38.03 L68.88 38.54 L68.06 39.11 L66.95 39.29 L66.87 39.59 L66.34 40.07 L66.01 40.77 L66.34 41.26 L65.84 41.65 L65.66 42.21 L65 42.38 L64.39 43.05 L63.29 43.06 L62.47 43.05 L61.93 43.35 L61.6 43.68 L61.17 43.61 L60.85 43.31 L60.61 42.82 L59.8 42.68 Z"/><path class="continent-country" d="M60.89 28.18 L61.03 28.79 L60.37 29.57 L58.84 30.08 L57.62 29.95 L58.32 29.04 L57.87 28.16 L59.04 27.49 L59.7 27.08 L59.88 27.55 L59.7 28.01 L60.23 28 L60.89 28.18 Z"/><path class="continent-country" d="M75.28 34.21 L75.81 34.33 L75.91 34.17 L76.76 34.02 L76.95 34.32 L78.19 34.54 L78.1 34.97 L78.31 35.34 L77.62 35.21 L76.91 35.52 L76.96 35.95 L76.86 36.19 L77.14 36.63 L77.95 37.07 L78.38 37.78 L79.35 38.48 L80.03 38.48 L80.24 38.67 L79.99 38.84 L80.77 39.15 L81.4 39.41 L82.15 39.86 L82.23 40.03 L82.07 40.34 L81.59 39.93 L80.84 39.79 L80.48 40.35 L81.1 40.67 L81 41.12 L80.64 41.17 L80.18 41.91 L79.82 41.98 L79.82 41.72 L80 41.25 L80.18 41.07 L79.85 40.57 L79.58 40.13 L79.22 40.02 L78.97 39.65 L78.41 39.49 L78.04 39.14 L77.4 39.09 L76.72 38.7 L75.93 38.13 L75.34 37.64 L75.07 36.78 L74.64 36.68 L73.94 36.4 L73.54 36.51 L73.04 36.91 L72.68 36.98 L72.78 36.6 L72.31 36.49 L72.09 35.82 L72.39 35.56 L72.13 35.23 L72.17 34.99 L72.54 35.17 L72.96 35.13 L73.44 34.84 L73.59 34.98 L74 34.95 L74.19 34.6 L74.83 34.71 L75.21 34.56 L75.28 34.21 Z"/><path class="continent-country" d="M79.02 41.78 L79.67 41.7 L79.36 42.38 L79.49 42.65 L79.31 43.1 L78.65 42.77 L78.21 42.68 L77 42.24 L77.12 41.79 L78.14 41.87 L79.02 41.78 Z"/><path class="continent-country" d="M73.78 39.39 L74.22 39.13 L74.73 39.74 L74.61 40.88 L74.22 40.83 L73.87 41.12 L73.54 40.89 L73.5 39.85 L73.31 39.35 L73.78 39.39 Z"/><path class="continent-country" d="M74.83 27.21 L74.28 27.34 L73.62 27.23 L73.27 26.75 L73.25 25.86 L73.39 25.63 L73.64 25.37 L74.4 25.32 L74.7 25.08 L75.4 24.83 L75.37 25.28 L75.11 25.56 L75.22 25.8 L75.69 25.93 L75.48 26.26 L75.22 26.17 L74.6 26.79 L74.83 27.21 Z"/><path class="continent-country" d="M76.95 26.23 L77.23 26.67 L76.71 27.37 L75.8 26.88 L75.68 26.52 L76.95 26.23 Z"/><path class="continent-country" d="M60.89 28.18 L60.23 28 L59.7 28.01 L59.88 27.55 L59.7 27.08 L60.42 27.05 L61.35 27.58 L60.89 28.18 Z"/><path class="continent-country" d="M63.57 28.58 L63.57 28.58 L63.7 28.07 L63.12 27.54 L63.11 27.53 L62.06 27.38 L61.85 27.14 L62.17 26.76 L61.88 26.52 L61.41 26.93 L61.36 26.09 L60.93 25.65 L61.24 24.76 L61.91 24.06 L62.6 24.12 L63.65 24.05 L62.72 24.99 L63.6 24.87 L64.55 24.87 L64.33 25.58 L63.55 26.35 L64.44 26.41 L64.51 26.5 L65.28 27.52 L65.88 27.66 L66.41 28.64 L66.65 28.99 L67.7 29.15 L67.6 29.7 L67.16 29.96 L67.5 30.41 L66.72 30.86 L65.57 30.85 L64.09 31.09 L63.69 30.92 L63.12 31.32 L62.32 31.23 L61.71 31.56 L61.25 31.38 L62.52 30.47 L63.29 30.29 L63.29 30.29 L61.94 30.14 L61.69 29.8 L62.59 29.53 L62.12 29.06 L62.29 28.5 L63.57 28.58 Z"/><path class="continent-country" d="M53.7 17.29 L53.5 17.85 L54.47 18.44 L53.35 19.1 L50.85 19.69 L50.11 19.85 L48.97 19.72 L46.56 19.44 L47.41 19.06 L45.52 18.64 L47.06 18.47 L47.02 18.22 L45.2 18.02 L45.79 17.45 L47.1 17.32 L48.45 17.91 L49.76 17.44 L50.85 17.69 L52.26 17.22 L53.7 17.29 Z"/><path class="continent-country" d="M78.19 34.54 L78.91 34.61 L79.34 34.41 L80.1 34.39 L80.26 34.24 L80.41 34.25 L80.58 34.55 L79.89 34.78 L79.81 35.13 L79.5 35.21 L79.51 35.46 L79.17 35.44 L78.87 35.3 L78.72 35.44 L78.11 35.41 L78.31 35.34 L78.1 34.97 L78.19 34.54 Z"/><path class="continent-country" d="M90.98 15.03 L90.86 15.63 L92.18 16.21 L91.38 16.86 L92.39 17.85 L91.81 18.59 L92.59 19.23 L92.23 19.8 L93.51 20.39 L93.19 20.83 L92.38 21.33 L90.53 22.43 L90.53 22.43 L90.53 22.43 L88.96 22.5 L87.44 22.82 L86.03 23 L85.53 22.53 L84.69 22.25 L84.89 21.4 L84.47 20.61 L84.88 20.11 L85.66 19.57 L87.64 18.63 L88.22 18.45 L88.13 18.08 L86.93 17.67 L86.63 17.34 L86.61 16.01 L85.26 15.42 L84.11 14.99 L84.63 14.76 L85.59 15.22 L86.72 15.18 L87.65 15.39 L88.47 15 L88.9 14.37 L90.24 14.08 L91.35 14.42 L90.98 15.03 Z"/><path class="continent-country" d="M85.76 32.31 L85.52 32.54 L85.35 32.89 L85.17 32.97 L84.24 32.71 L83.96 32.76 L83.76 32.97 L83.35 33.08 L83.26 33.02 L82.84 33.16 L82.49 33.18 L82.42 33.35 L81.7 33.46 L81.38 33.37 L80.94 33.14 L80.85 32.85 L80.92 32.74 L81.04 32.54 L81.43 32.56 L81.72 32.47 L81.74 32.39 L81.91 32.35 L81.97 32.15 L82.17 32.11 L82.3 31.96 L82.56 31.96 L82.61 32.01 L82.96 31.89 L83.4 32.2 L83.91 32.01 L84.32 32.1 L84.94 31.98 L85.76 32.31 Z"/><path class="continent-country" d="M79.24 30.56 L79.65 30.84 L80.3 30.92 L80.24 31.16 L80.71 31.33 L80.84 31.11 L81.43 31.21 L81.52 31.48 L82.16 31.53 L82.56 31.96 L82.3 31.96 L82.17 32.11 L81.97 32.15 L81.91 32.35 L81.74 32.39 L81.72 32.47 L81.43 32.56 L81.04 32.54 L80.92 32.74 L80.52 32.57 L80.11 32.62 L79.44 32.35 L79.14 32.42 L78.65 32.77 L78.01 32.49 L77.52 32.12 L77.08 31.91 L76.99 31.55 L76.84 31.29 L77.47 31.1 L77.79 30.89 L78.41 30.72 L78.62 30.55 L78.85 30.65 L79.24 30.56 Z"/><path class="continent-country" d="M82.3 37.88 L81.54 37.55 L81.21 37.19 L80.88 37 L80.48 36.68 L80.3 36.41 L79.87 36 L80.05 35.64 L80.36 35.84 L80.55 35.66 L80.96 35.64 L81.7 35.79 L82.3 35.78 L82.69 35.97 L82.69 35.97 L83 35.97 L82.79 36.35 L83.2 36.68 L83.08 37.09 L82.87 37.12 L82.71 37.2 L82.43 37.4 L82.3 37.88 Z"/><path class="continent-country" d="M85.61 38.17 L86.04 38.44 L86.1 39.01 L85.94 39.04 L85.8 39.19 L85.33 39.18 L85 39.37 L84.43 39.44 L84.07 39.23 L83.95 38.86 L84.06 38.57 L84.06 38.57 L84.17 38.57 L84.21 38.4 L84.72 38.26 L84.91 38.23 L85.21 38.18 L85.61 38.17 Z"/><path class="continent-country" d="M82.54 35.06 L82.54 35.06 L83.2 34.83 L83.74 34.87 L84.21 35.21 L84.31 35.49 L84.83 35.69 L84.9 36.05 L85.41 36.3 L85.68 36.1 L85.89 36.21 L85.69 36.36 L85.85 36.51 L85.63 36.71 L85.71 37.02 L86.13 37.39 L85.8 37.66 L85.66 37.94 L85.75 38.04 L85.61 38.17 L85.21 38.18 L84.91 38.23 L84.88 38.17 L84.99 38.06 L85.09 37.85 L84.96 37.86 L84.79 37.7 L84.65 37.66 L84.54 37.52 L84.38 37.46 L84.25 37.34 L84.1 37.39 L83.98 37.68 L83.77 37.74 L83.84 37.66 L83.51 37.49 L83.23 37.39 L83.1 37.27 L82.87 37.12 L83.08 37.09 L83.2 36.68 L82.79 36.35 L83 35.97 L82.69 35.97 L82.69 35.97 L83.02 35.64 L82.75 35.4 L82.54 35.06 Z"/><path class="continent-country" d="M83.61 37.93 L83.38 38.01 L83.32 37.85 L82.95 38.27 L83.01 38.55 L82.83 38.48 L82.58 38.2 L82.21 38.03 L82.3 37.88 L82.43 37.4 L82.71 37.2 L82.87 37.12 L83.1 37.27 L83.23 37.39 L83.51 37.49 L83.84 37.66 L83.77 37.74 L83.61 37.93 Z"/><path class="continent-country" d="M84.06 38.57 L84 38.25 L83.8 38.17 L83.61 37.93 L83.77 37.74 L83.98 37.68 L84.1 37.39 L84.25 37.34 L84.38 37.46 L84.54 37.52 L84.65 37.66 L84.79 37.7 L84.96 37.86 L85.09 37.85 L84.99 38.06 L84.88 38.17 L84.91 38.23 L84.72 38.26 L84.21 38.4 L84.17 38.57 L84.06 38.57 Z"/></g>
</svg>
