<svg xmlns="http://www.w3.org/2000/svg" viewBox="0 0 120 78" role="img" aria-label="North America map outline">
  <style>
    .continent-country{fill:rgba(9,8,11,.76);stroke:rgb(240, 163, 91);stroke-width:.52;stroke-linejoin:round;vector-effect:non-scaling-stroke}
  </style>
  <title>North America</title>
  <desc>Country polygons generated from Natural Earth public domain Admin 0 data.</desc>
  <g><path class="continent-country" d="M38.74 36.54 L38.65 36.54 L37.31 35.86 L36.82 35.56 L35.57 35.28 L35.19 34.67 L35.29 34.25 L34.41 33.95 L34.29 33.4 L33.45 32.9 L33.44 32.54 L33.44 32.54 L33.82 32.21 L33.8 31.77 L32.63 31.34 L31.92 30.55 L31.49 30.05 L30.86 29.74 L30.4 29.46 L30.03 29.11 L29.34 29.33 L28.67 29.71 L28.06 29.26 L27.58 28.96 L26.9 28.77 L26.23 28.75 L26.23 24.82 L26.23 22.26 L26.23 22.26 L27.52 22.43 L28.6 22.76 L29.32 22.83 L29.93 22.54 L30.76 22.32 L31.79 22.41 L32.82 22.1 L33.95 21.93 L34.42 22.22 L34.94 22.06 L35.09 21.73 L35.57 21.81 L36.73 22.42 L37.65 21.96 L37.74 22.48 L38.59 22.37 L38.85 22.17 L39.68 22.21 L40.74 22.49 L42.35 22.75 L43.3 22.86 L43.98 22.82 L44.91 23.17 L43.94 23.51 L45.18 23.66 L47.04 23.58 L47.63 23.46 L48.36 23.87 L49.11 23.52 L48.41 23.23 L48.86 22.99 L49.69 22.96 L50.25 22.89 L50.8 23.06 L51.5 23.43 L52.27 23.38 L53.48 23.69 L54.55 23.58 L55.56 23.59 L55.48 23.17 L56.09 23.05 L57.16 23.28 L57.16 23.93 L57.59 23.38 L58.15 23.4 L58.46 22.71 L57.72 22.28 L56.92 22 L56.97 21.24 L57.79 20.74 L58.7 20.85 L59.39 21.16 L60.33 21.93 L59.72 22.27 L61 22.41 L61 23.12 L61.92 22.58 L62.74 23.02 L62.54 23.53 L63.21 24 L63.92 23.5 L64.43 22.9 L64.47 22.15 L65.44 22.2 L66.46 22.3 L67.39 22.64 L67.43 22.99 L66.92 23.35 L67.4 23.72 L67.32 24.06 L65.97 24.54 L65.01 24.65 L64.29 24.44 L64.09 24.78 L63.42 25.37 L63.22 25.67 L62.42 26.13 L61.44 26.18 L60.89 26.47 L60.85 26.92 L60.05 27 L59.2 27.56 L58.45 28.34 L58.19 28.88 L58.15 29.68 L59.16 29.8 L59.47 30.44 L59.8 30.97 L60.76 30.83 L62.04 31.13 L62.73 31.39 L63.22 31.72 L64.09 31.91 L64.82 32.2 L65.96 32.24 L66.7 32.3 L66.59 32.9 L66.81 33.59 L67.31 34.36 L68.33 35.02 L68.86 34.79 L69.24 34.09 L68.88 33 L68.39 32.63 L69.49 32.31 L70.27 31.83 L70.66 31.35 L70.6 30.89 L70.13 30.3 L69.29 29.78 L70.11 29.06 L69.81 28.44 L69.58 27.36 L70.06 27.2 L71.24 27.39 L71.95 27.46 L72.52 27.27 L73.16 27.51 L74.01 27.91 L74.22 28.18 L75.45 28.23 L75.43 28.81 L75.66 29.68 L76.28 29.79 L76.78 30.19 L77.78 29.81 L78.44 29.05 L78.9 28.73 L79.43 29.34 L80.33 30.22 L81.09 31.05 L80.82 31.48 L81.73 31.87 L82.35 32.26 L83.45 32.44 L83.9 32.66 L84.17 33.25 L84.71 33.34 L84.98 33.6 L85.03 34.37 L84.53 34.63 L84.04 34.87 L82.9 35.12 L82.03 35.68 L80.87 35.8 L79.4 35.65 L78.36 35.65 L77.65 35.69 L77.07 36.19 L76.19 36.49 L75.2 37.41 L74.4 38.04 L74.99 37.93 L76.1 37.02 L77.54 36.45 L78.57 36.38 L79.18 36.72 L78.53 37.18 L78.75 37.92 L78.97 38.44 L79.87 38.79 L81.01 38.69 L81.7 37.91 L81.75 38.41 L82.19 38.66 L81.34 39.12 L79.81 39.53 L79.13 39.8 L78.36 40.3 L77.84 40.25 L77.81 39.67 L79.01 39.1 L77.9 39.12 L77.14 39.2 L76.69 38.81 L76.69 37.87 L76.38 37.68 L75.92 37.79 L75.69 37.61 L75.16 38.13 L74.95 38.67 L74.71 38.98 L74.42 39.09 L74.2 39.12 L74.13 39.29 L72.86 39.29 L71.81 39.3 L71.5 39.42 L70.77 39.92 L70.68 39.97 L70.46 40.24 L69.83 40.24 L69.15 40.25 L68.84 40.36 L68.95 40.49 L69.02 40.7 L69 40.77 L68.1 41.11 L67.39 41.22 L66.59 41.59 L66.42 41.59 L66.18 41.48 L66.11 41.38 L66.12 41.31 L66.27 41.07 L66.6 40.69 L66.8 40.28 L66.66 39.68 L66.51 39.06 L65.79 38.74 L65.88 38.61 L65.78 38.53 L65.59 38.53 L65.45 38.42 L65.42 38.26 L65.28 38.33 L65.1 38.31 L65.14 38.24 L64.98 38.17 L64.91 37.99 L64.38 37.77 L63.82 37.54 L63.14 37.27 L62.5 37.02 L61.88 37.22 L61.65 37.22 L60.81 37.04 L60.25 37.13 L59.58 36.92 L58.88 36.81 L58.39 36.77 L58.18 36.65 L58.06 36.27 L57.82 36.28 L57.82 36.54 L56.4 36.54 L54.04 36.54 L51.7 36.54 L49.63 36.54 L47.56 36.54 L45.52 36.54 L43.42 36.54 L42.75 36.54 L40.7 36.54 L38.74 36.54 Z"/><path class="continent-country" d="M65.52 27.27 L66.03 26.95 L66.98 26.96 L66.96 27.09 L66.16 27.47 L65.67 27.45 L65.52 27.27 Z"/><path class="continent-country" d="M68.43 20.13 L67.67 19.77 L67.7 19.52 L68.03 19.47 L69.61 19.55 L70.79 19.93 L70.86 20.12 L70.12 20.1 L69.38 20.08 L68.63 20.18 L68.43 20.13 Z"/><path class="continent-country" d="M68.05 27.52 L68.32 27.31 L68.6 27.33 L68.78 27.47 L68.51 27.83 L68.2 27.77 L68.02 27.57 L68.05 27.52 Z"/><path class="continent-country" d="M58.89 18.63 L58.51 18.9 L57.51 18.85 L56.68 18.67 L57.04 18.36 L58.03 18.17 L58.64 18.42 L58.89 18.63 Z"/><path class="continent-country" d="M58.73 16.88 L58.42 16.9 L57.13 16.86 L56.94 16.67 L58.33 16.68 L58.81 16.8 L58.73 16.88 Z"/><path class="continent-country" d="M56.72 16.02 L57.55 16.26 L57.36 16.51 L56.34 16.65 L55.78 16.49 L55.48 16.24 L55.43 15.95 L56.32 15.98 L56.72 16.02 Z"/><path class="continent-country" d="M62.65 19.04 L61.54 18.95 L59.71 18.73 L59.47 18.35 L59.39 18.01 L58.69 17.71 L57.27 17.63 L56.47 17.41 L56.73 17.13 L58.15 17.17 L58.91 17.4 L60.27 17.39 L60.87 17.62 L60.71 17.88 L61.5 18.04 L61.94 18.2 L62.87 18.23 L63.87 18.29 L64.97 18.14 L66.37 18.08 L67.49 18.13 L68.23 18.39 L68.39 18.67 L67.96 18.86 L66.93 19 L66.05 18.92 L64.07 19.03 L62.65 19.04 Z"/><path class="continent-country" d="M46.72 16.45 L47.69 16.55 L47.46 16.76 L46.18 16.96 L45.16 16.74 L45.71 16.52 L46.72 16.45 Z"/><path class="continent-country" d="M46.93 16 L47.82 16.14 L46.99 16.27 L45.84 16.27 L45.85 16.17 L46.56 15.97 L46.93 16 Z"/><path class="continent-country" d="M85.09 34.94 L84.72 35.38 L84.27 35.98 L84.72 35.75 L85.18 35.9 L84.94 36.14 L85.55 36.33 L85.87 36.16 L86.55 36.37 L86.34 36.87 L86.82 36.76 L86.91 37.12 L87.13 37.55 L86.83 38.16 L86.52 38.18 L86.07 38.05 L86.22 37.49 L86.03 37.4 L85.23 38 L84.82 37.98 L85.3 37.65 L84.64 37.48 L83.9 37.52 L82.56 37.5 L82.46 37.3 L82.89 37.06 L82.59 36.87 L83.17 36.45 L83.88 35.36 L84.31 34.96 L84.9 34.73 L85.22 34.76 L85.09 34.94 Z"/><path class="continent-country" d="M65.6 25.44 L66.35 25.67 L67.14 25.89 L67.2 26.22 L67.71 26.16 L68.2 26.39 L67.59 26.61 L66.52 26.44 L66.13 26.13 L65.45 26.5 L64.46 26.85 L64.23 26.45 L63.29 26.52 L63.89 26.18 L63.98 25.63 L64.22 25 L64.71 25.06 L64.84 25.36 L65.19 25.26 L65.6 25.44 Z"/><path class="continent-country" d="M69.12 20.44 L69.77 20.17 L71.3 20.52 L72.25 20.85 L72.34 21.15 L73.62 20.99 L74.34 21.43 L76 21.7 L76.6 21.98 L77.25 22.63 L75.99 22.95 L77.61 23.4 L78.71 23.55 L79.7 24.18 L80.78 24.23 L80.57 24.71 L79.36 25.51 L78.51 25.22 L77.42 24.56 L76.53 24.64 L76.45 25.04 L77.17 25.44 L78.11 25.75 L78.39 25.94 L78.84 26.62 L78.6 27.12 L77.73 26.93 L76 26.38 L76.98 26.97 L77.7 27.39 L77.81 27.63 L75.94 27.35 L74.46 26.95 L73.62 26.62 L73.86 26.42 L72.84 26.07 L71.83 25.73 L71.84 25.93 L69.85 26.04 L69.27 25.81 L69.72 25.3 L71.02 25.29 L72.43 25.2 L72.2 24.95 L72.45 24.61 L73.34 23.94 L73.15 23.63 L72.88 23.4 L71.83 23.06 L70.43 22.83 L70.87 22.65 L70.14 22.22 L69.53 22.19 L68.99 21.95 L68.62 22.15 L67.37 22.24 L64.86 22.09 L63.41 21.89 L62.29 21.78 L61.71 21.54 L62.43 21.23 L61.46 21.22 L61.24 20.53 L61.77 19.91 L62.48 19.63 L64.26 19.44 L63.75 19.89 L64.29 20.32 L64.93 19.76 L66.68 19.48 L67.86 20.19 L67.76 20.64 L69.12 20.44 Z"/><path class="continent-country" d="M58.27 19.22 L59.71 19.24 L61.03 19.41 L60 20.02 L59.18 20.16 L58.44 20.67 L57.65 20.64 L57.22 20.04 L57.23 19.7 L57.59 19.4 L58.27 19.22 Z"/><path class="continent-country" d="M38.73 17.85 L38.73 17.85 L39.9 17.33 L41.32 16.89 L42.37 16.9 L43.32 16.8 L43.23 17.33 L42.69 17.56 L42.05 17.6 L40.77 17.89 L39.67 18 L38.73 17.85 Z"/><path class="continent-country" d="M31.94 33.07 L32.6 33.01 L32.39 33.79 L32.99 34.35 L32.72 34.35 L32.3 34.03 L32.05 33.72 L31.7 33.5 L31.57 33.2 L31.61 32.98 L31.94 33.07 Z"/><path class="continent-country" d="M50.7 15.65 L52.05 15.75 L53.92 16 L54.44 16.33 L54.71 16.62 L53.59 16.54 L52.45 16.31 L50.92 16.29 L51.58 16.08 L50.75 15.92 L50.7 15.65 Z"/><path class="continent-country" d="M38.28 36.88 L37.93 36.97 L36.8 36.66 L36.59 36.42 L35.98 36.18 L35.85 35.98 L35.14 35.86 L34.88 35.48 L34.94 35.32 L35.66 35.47 L36.08 35.58 L36.73 35.65 L36.97 35.89 L37.31 36.21 L38 36.5 L38.28 36.88 Z"/><path class="continent-country" d="M39.64 19 L40.62 19.14 L42.38 19.18 L43.05 19.38 L43.79 19.67 L42.93 19.84 L41.24 20.33 L40.38 20.81 L40.38 21.11 L38.57 21.44 L38.2 21.14 L36.61 20.78 L36.91 20.49 L37.39 19.98 L37.98 19.53 L37.31 19.11 L39.64 19 Z"/><path class="continent-country" d="M49.1 18.04 L49.71 17.92 L50.43 17.95 L50.55 18.29 L50.13 18.62 L47.8 18.72 L46.06 19.02 L45.01 19.04 L44.92 18.81 L46.36 18.51 L43.24 18.59 L42.28 18.47 L43.22 17.79 L43.87 17.6 L45.81 17.83 L47.03 18.24 L48.24 18.29 L47.25 17.63 L47.88 17.38 L48.59 17.46 L48.83 17.79 L49.1 18.04 Z"/><path class="continent-country" d="M49.99 19.95 L50.76 20.22 L51.19 20.9 L51.41 21.38 L52.57 21.72 L53.81 22.05 L53.73 22.35 L52.6 22.41 L53.04 22.67 L52.81 22.93 L51.56 22.82 L50.38 22.63 L49.58 22.67 L48.28 22.91 L46.54 23.01 L45.31 23.08 L44.94 22.75 L43.99 22.56 L43.38 22.64 L42.53 22.09 L42.99 22.02 L44.06 21.9 L45.03 21.93 L45.93 21.81 L44.59 21.65 L43.12 21.71 L42.14 21.69 L41.78 21.44 L43.38 21.16 L42.32 21.17 L41.11 20.99 L41.69 20.48 L42.17 20.2 L44.02 19.78 L44.72 19.91 L44.38 20.24 L45.91 20.03 L46.87 20.38 L47.65 20.02 L48.28 20.25 L48.84 20.93 L49.19 20.64 L48.7 19.94 L49.3 19.84 L49.99 19.95 Z"/><path class="continent-country" d="M54.18 20.2 L53.42 19.75 L54.24 19.42 L55.06 19.56 L56.29 19.47 L56.47 19.67 L55.83 20 L56.87 20.3 L56.75 20.92 L55.62 21.19 L54.95 21.13 L54.48 20.87 L52.76 20.34 L52.78 20.12 L54.18 20.2 Z"/><path class="continent-country" d="M49.94 19.58 L50.86 19.56 L51.38 19.71 L50.78 20.16 L49.7 19.68 L49.94 19.58 Z"/><path class="continent-country" d="M55.52 17.43 L56.05 17.75 L56.07 18.11 L55.75 18.62 L54.62 18.69 L53.88 18.58 L53.89 18.18 L52.76 18.23 L52.72 17.7 L53.46 17.72 L54.5 17.48 L55.47 17.52 L55.52 17.43 Z"/><path class="continent-country" d="M57.23 14.76 L57.71 14.55 L58.42 14.5 L58.11 14.34 L59.72 14.31 L60.6 14.67 L61.76 14.82 L62.89 14.95 L63.43 15.41 L64.26 15.63 L63.32 15.84 L62.04 16.35 L60.82 16.4 L59.4 16.31 L58.65 16.03 L58.67 15.78 L59.21 15.6 L57.95 15.61 L57.19 15.38 L56.75 15.06 L57.23 14.76 Z"/><path class="continent-country" d="M60.28 13.87 L61.31 13.74 L62.11 13.71 L63.47 13.6 L64.48 13.34 L65.34 13.38 L66.08 13.57 L66.6 13.2 L67.51 13.09 L68.75 13.02 L70.86 12.99 L71.22 13.06 L73.21 12.94 L74.71 12.99 L76.2 13.03 L78.04 13.09 L79.52 13.17 L80.78 13.36 L80.75 13.55 L79.07 13.84 L77.4 13.98 L76.78 14.14 L78.28 14.13 L76.65 14.55 L75.53 14.75 L74.35 15.31 L72.93 15.43 L72.49 15.57 L70.4 15.64 L71.35 15.73 L70.88 15.85 L71.45 16.19 L70.79 16.43 L69.73 16.62 L69.4 16.89 L68.44 17.1 L68.53 17.25 L69.71 17.23 L69.73 17.39 L67.88 17.81 L66.08 17.62 L64.06 17.72 L63.03 17.64 L61.73 17.6 L61.64 17.27 L62.92 17.12 L62.58 16.62 L63 16.57 L64.84 16.87 L63.9 16.43 L62.78 16.3 L63.34 16.03 L64.56 15.86 L64.76 15.62 L63.79 15.35 L63.49 15 L65.38 15.03 L65.92 15.1 L67 14.85 L65.45 14.77 L63.03 14.82 L61.82 14.58 L61.24 14.3 L60.44 14.1 L60.28 13.87 Z"/><path class="continent-country" d="M71.57 23.83 L71.12 24.03 L70.35 24.07 L70.18 23.73 L70.47 23.34 L71.1 23.25 L71.64 23.44 L71.65 23.73 L71.57 23.83 Z"/><path class="continent-country" d="M57.07 22.42 L57.49 22.68 L57.06 22.92 L56.13 22.71 L55.57 22.79 L54.63 22.48 L55.23 22.27 L55.71 21.97 L56.44 22.16 L56.86 22.29 L57.07 22.42 Z"/><path class="continent-country" d="M78.94 35.94 L79.18 35.88 L80.09 36.05 L80.79 36.34 L80.81 36.47 L80.48 36.48 L79.58 36.26 L78.94 35.94 Z"/><path class="continent-country" d="M79.29 37.89 L79.53 38.23 L80.03 38.32 L80.67 38.3 L80.33 38.59 L80.08 38.63 L79.2 38.34 L79.03 38.11 L79.29 37.89 Z"/><path class="continent-country" d="M38.74 36.54 L40.7 36.54 L42.75 36.54 L43.42 36.54 L45.52 36.54 L47.56 36.54 L49.63 36.54 L51.7 36.54 L54.04 36.54 L56.4 36.54 L57.82 36.54 L57.82 36.28 L58.06 36.27 L58.18 36.65 L58.39 36.77 L58.88 36.81 L59.58 36.92 L60.25 37.13 L60.81 37.04 L61.65 37.22 L61.88 37.22 L62.5 37.02 L63.14 37.27 L63.82 37.54 L64.38 37.77 L64.91 37.99 L64.98 38.17 L65.14 38.24 L65.1 38.31 L65.28 38.33 L65.42 38.26 L65.45 38.42 L65.59 38.53 L65.78 38.53 L65.88 38.61 L65.79 38.74 L66.51 39.06 L66.66 39.68 L66.8 40.28 L66.6 40.69 L66.27 41.07 L66.12 41.31 L66.11 41.38 L66.18 41.48 L66.42 41.59 L66.59 41.59 L67.39 41.22 L68.1 41.11 L69 40.77 L69.02 40.7 L68.95 40.49 L68.84 40.36 L69.15 40.25 L69.83 40.24 L70.46 40.24 L70.68 39.97 L70.77 39.92 L71.5 39.42 L71.81 39.3 L72.86 39.29 L74.13 39.29 L74.2 39.12 L74.42 39.09 L74.71 38.98 L74.95 38.67 L75.16 38.13 L75.69 37.61 L75.92 37.79 L76.38 37.68 L76.69 37.87 L76.69 38.81 L77.14 39.2 L77.26 39.43 L76.52 39.76 L75.81 40 L75.08 40.21 L74.72 40.61 L74.6 40.77 L74.6 41.14 L74.82 41.5 L75.11 41.52 L75.04 41.27 L75.24 41.42 L75.19 41.62 L74.72 41.73 L74.39 41.71 L73.88 41.83 L73.58 41.87 L73.18 41.9 L72.61 42.1 L73.62 41.97 L73.82 42.1 L72.86 42.31 L72.42 42.31 L72.44 42.23 L72.23 42.42 L72.43 42.45 L72.28 42.95 L71.78 43.48 L71.73 43.3 L71.58 43.26 L71.35 43.09 L71.5 43.46 L71.67 43.58 L71.68 43.84 L71.46 44.11 L71.07 44.66 L71.01 44.64 L71.22 44.17 L70.87 43.9 L70.79 43.33 L70.65 43.63 L70.8 44.07 L70.35 43.96 L70.82 44.18 L70.85 44.84 L71.05 44.88 L71.12 45.12 L71.22 45.81 L70.78 46.32 L70.07 46.53 L69.61 46.93 L69.27 46.98 L68.92 47.23 L68.82 47.46 L68.06 47.91 L67.68 48.24 L67.35 48.64 L67.24 49.13 L67.37 49.61 L67.6 50.2 L67.9 50.69 L67.91 50.99 L68.23 51.79 L68.21 52.25 L68.18 52.52 L68.01 52.94 L67.8 53.03 L67.46 52.95 L67.35 52.64 L67.09 52.48 L66.73 51.89 L66.41 51.36 L66.3 51.09 L66.44 50.64 L66.25 50.26 L65.71 49.68 L65.45 49.58 L64.75 49.89 L64.63 49.85 L64.29 49.53 L63.86 49.36 L63.08 49.45 L62.47 49.37 L61.94 49.42 L61.66 49.53 L61.78 49.71 L61.77 49.99 L61.92 50.13 L61.79 50.22 L61.53 50.12 L61.27 50.25 L60.77 50.22 L60.26 49.86 L59.66 49.95 L59.15 49.79 L58.73 49.84 L58.15 50 L57.52 50.51 L56.83 50.8 L56.46 51.13 L56.3 51.44 L56.29 51.92 L56.33 52.25 L56.46 52.48 L56.19 52.51 L55.7 52.35 L55.16 52.14 L54.97 51.82 L54.82 51.33 L54.41 50.94 L54.17 50.54 L53.83 50.06 L53.34 49.79 L52.78 49.8 L52.34 50.35 L51.77 50.14 L51.41 49.93 L51.24 49.55 L51.01 49.19 L50.6 48.89 L50.25 48.67 L50 48.43 L48.81 48.43 L48.8 48.71 L48.26 48.71 L46.89 48.72 L45.31 48.23 L44.27 47.9 L44.34 47.76 L43.46 47.84 L42.68 47.89 L42.56 47.54 L42.12 47.14 L41.8 47.06 L41.72 46.86 L41.33 46.83 L41.09 46.64 L40.45 46.57 L40.27 46.46 L40.19 46.08 L39.52 45.39 L38.94 44.43 L38.97 44.27 L38.66 44.05 L38.13 43.47 L38.04 42.91 L37.67 42.53 L37.82 41.96 L37.8 41.37 L37.58 40.84 L37.84 40.19 L37.93 39.56 L38.01 38.94 L37.89 38.01 L37.67 37.42 L37.47 37.1 L37.55 36.97 L38.55 37.2 L38.92 37.85 L39.09 37.67 L38.98 37.11 L38.74 36.54 Z"/><path class="continent-country" d="M16.3 56.48 L16.42 56.54 L16.53 56.63 L16.71 56.87 L16.69 56.91 L16.42 57.05 L16.2 57.16 L16.1 57.28 L15.93 57.18 L15.95 56.99 L15.83 56.74 L15.87 56.66 L15.99 56.55 L15.94 56.41 L15.98 56.35 L16.03 56.36 L16.3 56.48 Z"/><path class="continent-country" d="M15.89 56 L15.83 56.09 L15.6 56.14 L15.48 55.99 L15.4 55.94 L15.4 55.89 L15.46 55.83 L15.71 55.9 L15.89 56 Z"/><path class="continent-country" d="M15.36 55.72 L15.34 55.79 L14.97 55.77 L15.02 55.69 L15.36 55.72 Z"/><path class="continent-country" d="M14.49 55.35 L14.55 55.39 L14.75 55.62 L14.71 55.66 L14.66 55.65 L14.42 55.63 L14.33 55.47 L14.3 55.44 L14.49 55.35 Z"/><path class="continent-country" d="M13.56 55 L13.58 55.16 L13.5 55.23 L13.27 55.11 L13.3 55.06 L13.41 54.99 L13.56 55 Z"/><path class="continent-country" d="M8.67 28.69 L9.22 28.76 L9.28 29.02 L8.86 29.13 L8.41 29 L7.99 28.81 L8.67 28.69 Z"/><path class="continent-country" d="M17.8 30.36 L18.25 30.41 L18.54 30.62 L17.95 30.95 L17.26 31.21 L16.91 31.03 L16.8 30.71 L17.43 30.46 L17.8 30.36 Z"/><path class="continent-country" d="M26.23 22.26 L26.23 22.26 L26.23 24.82 L26.23 28.75 L26.9 28.77 L27.58 28.96 L28.06 29.26 L28.67 29.71 L29.34 29.33 L30.03 29.11 L30.4 29.46 L30.86 29.74 L31.49 30.05 L31.92 30.55 L32.63 31.34 L33.8 31.77 L33.82 32.21 L33.44 32.54 L33.44 32.54 L33.44 32.54 L33.06 32.28 L32.45 32.06 L32.26 31.46 L31.37 30.9 L31 30.25 L30.33 30.21 L29.24 30.19 L28.43 29.99 L27 29.28 L26.34 29.15 L25.14 28.9 L24.18 28.96 L22.83 28.64 L22.01 28.35 L21.24 28.49 L21.39 28.97 L21.01 29.02 L20.21 29.16 L19.6 29.39 L18.84 29.54 L18.74 29.13 L19.05 28.46 L19.78 28.25 L19.59 28.07 L18.71 28.46 L18.24 28.92 L17.25 29.41 L17.75 29.74 L17.1 30.24 L16.36 30.53 L15.67 30.74 L15.5 31.04 L14.43 31.4 L14.21 31.72 L13.4 32.01 L12.93 31.96 L12.28 32.15 L11.59 32.39 L11.01 32.62 L9.83 32.82 L9.72 32.7 L10.47 32.38 L11.15 32.17 L11.88 31.79 L12.74 31.71 L13.08 31.43 L14.03 31.02 L14.19 30.88 L14.7 30.63 L14.82 30.11 L15.17 29.7 L14.37 29.91 L14.15 29.79 L13.78 30.05 L13.33 29.7 L13.14 29.94 L12.88 29.6 L12.19 29.88 L11.77 29.87 L11.71 29.46 L11.84 29.21 L11.39 28.97 L10.5 29.1 L9.91 28.77 L9.44 28.61 L9.44 28.22 L8.91 27.92 L9.17 27.53 L9.74 27.14 L9.98 26.79 L10.54 26.74 L11.01 26.85 L11.57 26.52 L12.07 26.58 L12.6 26.36 L12.47 26.05 L12.08 25.92 L12.59 25.66 L12.17 25.67 L11.44 25.82 L11.23 25.97 L10.68 25.82 L9.71 25.89 L8.7 25.73 L8.41 25.45 L7.54 25.05 L8.51 24.76 L10.04 24.43 L10.61 24.43 L10.52 24.77 L11.97 24.74 L11.41 24.32 L10.56 24.05 L10.07 23.71 L9.41 23.42 L8.46 23.2 L8.85 22.84 L10.07 22.81 L10.94 22.5 L11.11 22.16 L11.81 21.84 L12.48 21.76 L13.79 21.45 L14.42 21.5 L15.48 21.13 L16.53 21.27 L17.03 21.59 L17.33 21.45 L18.5 21.49 L18.46 21.65 L19.51 21.77 L20.21 21.7 L21.67 21.92 L22.99 21.98 L23.52 22.07 L24.44 21.96 L25.48 22.17 L26.23 22.26 L26.23 22.26 Z"/><path class="continent-country" d="M5.04 26.35 L5.47 26.48 L5.9 26.41 L6.45 26.59 L7.14 26.69 L7.08 26.76 L6.56 26.91 L6.03 26.76 L5.77 26.63 L5.16 26.67 L5 26.61 L5.04 26.35 Z"/><path class="continent-country" d="M73.98 56.73 L74.04 57.1 L73.99 57.37 L73.82 57.48 L74 57.69 L73.99 57.88 L73.53 57.76 L73.2 57.81 L72.78 57.76 L72.46 57.89 L72.09 57.67 L72.15 57.45 L72.79 57.55 L73.31 57.6 L73.56 57.45 L73.24 57.15 L73.25 56.89 L72.81 56.78 L72.97 56.59 L73.39 56.62 L73.98 56.73 Z"/><path class="continent-country" d="M73.99 57.88 L74 57.69 L73.82 57.48 L73.99 57.37 L74.04 57.1 L73.98 56.73 L74.07 56.61 L74.61 56.61 L75.02 56.79 L75.2 56.77 L75.32 57.02 L75.7 57 L75.68 57.21 L75.99 57.23 L76.32 57.49 L76.07 57.77 L75.74 57.62 L75.42 57.65 L75.2 57.61 L75.07 57.74 L74.81 57.78 L74.7 57.62 L74.48 57.71 L74.2 58.19 L74.02 58.08 L73.99 57.88 Z"/><path class="continent-country" d="M68.97 51.85 L69.3 51.8 L69.75 51.82 L69.77 52 L69.02 52.11 L68.97 51.85 Z"/><path class="continent-country" d="M69.79 51.68 L70.34 51.99 L70.22 52.48 L70.09 52.39 L70.1 52.03 L69.8 51.76 L69.79 51.68 Z"/><path class="continent-country" d="M69.52 52.94 L69.73 52.97 L69.97 53.54 L69.97 53.94 L69.8 53.97 L69.63 53.58 L69.37 53.38 L69.52 52.94 Z"/><path class="continent-country" d="M91.18 13.36 L93.5 12.95 L95.91 12.98 L96.79 12.73 L99.23 12.66 L104.74 12.75 L109.05 13.29 L107.77 13.56 L105.14 13.59 L101.43 13.66 L101.77 13.78 L104.21 13.7 L106.29 13.94 L107.63 13.73 L108.2 13.98 L107.44 14.38 L109.2 14.12 L112.55 13.85 L114.61 13.99 L115 14.28 L112.19 14.77 L111.8 14.93 L109.6 15.05 L111.19 15.08 L110.39 15.59 L109.83 16.03 L109.85 16.8 L110.68 17.25 L109.61 17.28 L108.47 17.5 L109.74 17.86 L109.91 18.45 L109.17 18.51 L110.06 19.1 L108.53 19.15 L109.33 19.43 L109.1 19.68 L108.13 19.78 L107.17 19.79 L108.03 20.25 L108.04 20.56 L106.68 20.28 L106.33 20.46 L107.26 20.63 L108.16 21.05 L108.42 21.61 L107.19 21.74 L106.66 21.48 L105.81 21.08 L106.04 21.55 L105.24 21.91 L107.06 21.94 L108.01 21.98 L106.16 22.58 L104.29 23.12 L102.27 23.36 L101.51 23.36 L100.8 23.63 L99.84 24.35 L98.36 24.84 L97.88 24.87 L96.96 25.04 L95.97 25.2 L95.38 25.62 L95.37 26.11 L95.02 26.56 L93.9 27.11 L94.18 27.65 L93.87 28.22 L93.51 28.89 L92.54 28.93 L91.53 28.37 L90.15 28.37 L89.48 27.99 L89.02 27.32 L87.82 26.46 L87.48 26.01 L87.38 25.39 L86.43 24.75 L86.67 24.25 L86.21 24 L86.9 23.2 L87.93 22.94 L88.21 22.65 L88.35 22.11 L87.56 22.36 L87.19 22.46 L86.57 22.56 L85.72 22.33 L85.68 21.87 L85.95 21.5 L86.59 21.49 L87.99 21.67 L86.81 21.24 L86.19 21 L85.5 21.1 L84.93 20.93 L85.7 20.28 L85.28 20.03 L84.73 19.55 L83.9 18.82 L83.02 18.55 L83.03 18.26 L81.18 17.86 L79.72 17.81 L77.88 17.84 L76.2 17.89 L75.4 17.67 L74.2 17.23 L76.01 17.02 L77.4 16.98 L74.45 16.8 L72.89 16.52 L72.99 16.25 L75.6 15.92 L78.12 15.59 L78.39 15.34 L76.53 15.09 L77.13 14.82 L79.51 14.34 L80.52 14.26 L80.23 13.95 L81.86 13.77 L83.98 13.66 L86.1 13.66 L86.85 13.87 L88.68 13.49 L90.33 13.75 L91.29 13.8 L92.73 14.03 L91.09 13.66 L91.18 13.36 Z"/><path class="continent-country" d="M42.68 47.89 L43.46 47.84 L44.34 47.76 L44.27 47.9 L45.31 48.23 L46.89 48.72 L48.26 48.71 L48.8 48.71 L48.81 48.43 L50 48.43 L50.25 48.67 L50.6 48.89 L51.01 49.19 L51.24 49.55 L51.41 49.93 L51.77 50.14 L52.34 50.35 L52.78 49.8 L53.34 49.79 L53.83 50.06 L54.17 50.54 L54.41 50.94 L54.82 51.33 L54.97 51.82 L55.16 52.14 L55.7 52.35 L56.19 52.51 L56.46 52.48 L56.19 53.09 L56.07 53.59 L56.02 54.51 L55.95 54.85 L56.07 55.22 L56.29 55.56 L56.42 56.09 L56.88 56.61 L57.04 57 L57.31 57.34 L58.04 57.52 L58.33 57.81 L58.93 57.62 L59.46 57.55 L59.97 57.42 L60.41 57.31 L60.85 57.02 L61.01 56.62 L61.07 56.04 L61.19 55.84 L61.65 55.66 L62.38 55.5 L62.99 55.53 L63.41 55.47 L63.58 55.61 L63.55 55.95 L63.18 56.35 L63.02 56.77 L63.15 56.89 L63.04 57.19 L62.87 57.73 L62.69 57.55 L62.55 57.56 L62.42 57.57 L62.17 57.99 L62.05 57.91 L61.96 57.94 L61.97 58.04 L61.33 58.03 L60.69 58.04 L60.69 58.42 L60.38 58.42 L60.63 58.65 L60.89 58.81 L60.96 58.96 L61.08 59.01 L61.06 59.24 L60.17 59.24 L59.84 59.8 L59.94 59.93 L59.86 60.09 L59.84 60.3 L59.06 59.55 L58.71 59.33 L58.14 59.15 L57.76 59.2 L57.21 59.46 L56.86 59.53 L56.37 59.35 L55.86 59.21 L55.21 58.9 L54.69 58.8 L53.91 58.48 L53.34 58.15 L53.16 57.97 L52.78 57.93 L52.07 57.71 L51.79 57.39 L51.04 57 L50.7 56.57 L50.53 56.23 L50.76 56.16 L50.69 55.97 L50.85 55.79 L50.86 55.55 L50.62 55.24 L50.56 54.97 L50.33 54.62 L49.72 53.93 L49.03 53.4 L48.69 52.97 L48.1 52.68 L47.98 52.52 L48.08 52.09 L47.73 51.93 L47.32 51.59 L47.15 51.11 L46.78 51.06 L46.38 50.69 L46.06 50.36 L46.03 50.14 L45.66 49.62 L45.41 49.1 L45.42 48.83 L44.92 48.56 L44.69 48.59 L44.3 48.4 L44.19 48.68 L44.3 49.01 L44.37 49.53 L44.61 49.81 L45.12 50.28 L45.23 50.45 L45.34 50.5 L45.43 50.73 L45.55 50.72 L45.69 51.17 L45.9 51.34 L46.05 51.59 L46.48 51.94 L46.71 52.58 L46.91 52.88 L47.1 53.2 L47.14 53.57 L47.47 53.59 L47.75 53.9 L48 54.21 L47.98 54.33 L47.69 54.59 L47.57 54.58 L47.39 54.17 L46.94 53.77 L46.44 53.44 L46.09 53.26 L46.11 52.76 L46.01 52.39 L45.68 52.17 L45.2 51.87 L45.11 51.95 L44.94 51.77 L44.51 51.61 L44.11 51.21 L44.16 51.16 L44.44 51.19 L44.7 50.94 L44.72 50.63 L44.19 50.13 L43.79 49.94 L43.53 49.51 L43.28 49.06 L42.96 48.51 L42.68 47.89 Z"/><path class="continent-country" d="M70.1 64.34 L70.01 64.44 L70.17 64.85 L70.04 65.05 L69.82 65 L69.73 65.34 L69.5 65.14 L69.35 64.77 L69.52 64.58 L69.35 64.54 L69.22 64.31 L68.88 64.12 L68.58 64.16 L68.44 64.4 L68.16 64.57 L68.01 64.6 L67.94 64.74 L68.27 65.11 L68.08 65.2 L67.98 65.3 L67.66 65.34 L67.54 64.93 L67.45 65.05 L67.22 65 L67.08 64.73 L66.8 64.68 L66.62 64.6 L66.33 64.6 L66.31 64.75 L66.23 64.65 L66.26 64.51 L66.32 64.37 L66.29 64.25 L66.4 64.16 L66.25 64.06 L66.25 63.78 L66.52 63.72 L66.76 63.97 L66.75 64.12 L67.02 64.15 L67.09 64.09 L67.28 64.26 L67.62 64.21 L67.91 64.04 L68.33 63.9 L68.57 63.69 L68.95 63.73 L68.92 63.8 L69.3 63.82 L69.61 63.94 L69.84 64.15 L70.1 64.34 Z"/><path class="continent-country" d="M66.52 63.72 L66.25 63.78 L66.25 64.06 L66.4 64.16 L66.29 64.25 L66.32 64.37 L66.26 64.51 L66.23 64.65 L65.85 64.49 L65.71 64.35 L65.79 64.23 L65.77 64.08 L65.58 63.91 L65.31 63.78 L65.07 63.69 L65.02 63.49 L64.84 63.36 L64.89 63.56 L64.75 63.73 L64.59 63.54 L64.37 63.47 L64.28 63.33 L64.28 63.12 L64.37 62.9 L64.18 62.81 L64.33 62.67 L64.44 62.58 L64.89 62.77 L65.05 62.68 L65.27 62.74 L65.38 62.88 L65.59 62.92 L65.75 62.78 L65.93 63.15 L66.19 63.43 L66.52 63.72 Z"/><path class="continent-country" d="M65.75 62.78 L65.59 62.92 L65.38 62.88 L65.27 62.74 L65.05 62.68 L64.89 62.77 L64.44 62.58 L64.33 62.67 L64.1 62.46 L63.77 62.18 L63.62 61.95 L63.33 61.73 L62.99 61.42 L63.06 61.31 L63.18 61.42 L63.23 61.37 L63.44 61.34 L63.53 61.18 L63.63 61.17 L63.62 60.84 L63.78 60.82 L63.92 60.82 L64.07 60.64 L64.27 60.78 L64.34 60.69 L64.47 60.61 L64.71 60.42 L64.72 60.28 L64.79 60.29 L64.88 60.12 L64.95 60.1 L65.07 60.21 L65.2 60.24 L65.36 60.15 L65.53 60.15 L65.77 60.06 L65.87 59.97 L66.1 59.98 L66.04 60.05 L66.01 60.2 L66.08 60.45 L65.92 60.69 L65.85 60.96 L65.82 61.27 L65.86 61.45 L65.88 61.76 L65.77 61.82 L65.71 62.12 L65.75 62.3 L65.61 62.48 L65.65 62.66 L65.75 62.78 Z"/><path class="continent-country" d="M66.1 59.98 L65.87 59.97 L65.77 60.06 L65.53 60.15 L65.36 60.15 L65.2 60.24 L65.07 60.21 L64.95 60.1 L64.88 60.12 L64.79 60.29 L64.72 60.28 L64.71 60.42 L64.47 60.61 L64.34 60.69 L64.27 60.78 L64.07 60.64 L63.92 60.82 L63.78 60.82 L63.62 60.84 L63.63 61.17 L63.53 61.18 L63.44 61.34 L63.23 61.37 L63.11 61.15 L62.9 61.09 L62.95 60.81 L62.85 60.74 L62.71 60.69 L62.41 60.77 L62.38 60.68 L62.18 60.57 L62.03 60.43 L61.82 60.37 L61.97 60.2 L61.91 60.06 L61.96 59.93 L62.29 59.74 L62.6 59.48 L62.67 59.5 L62.82 59.38 L63.02 59.37 L63.09 59.43 L63.19 59.39 L63.51 59.46 L63.83 59.44 L64.05 59.36 L64.13 59.28 L64.35 59.32 L64.52 59.37 L64.7 59.35 L64.84 59.29 L65.15 59.39 L65.26 59.4 L65.47 59.53 L65.67 59.68 L65.92 59.79 L66.1 59.98 Z"/><path class="continent-country" d="M61.82 60.37 L62.03 60.43 L62.18 60.57 L62.38 60.68 L62.41 60.77 L62.71 60.69 L62.85 60.74 L62.95 60.81 L62.9 61.09 L62.82 61.25 L62.42 61.24 L62.18 61.18 L61.89 61.04 L61.51 61 L61.31 60.85 L61.33 60.75 L61.57 60.57 L61.7 60.5 L61.66 60.42 L61.82 60.37 Z"/><path class="continent-country" d="M59.84 60.3 L59.86 60.09 L59.94 59.93 L59.84 59.8 L60.17 59.24 L61.06 59.24 L61.08 59.01 L60.96 58.96 L60.89 58.81 L60.63 58.65 L60.38 58.42 L60.69 58.42 L60.69 58.04 L61.33 58.03 L61.97 58.04 L61.96 58.59 L61.91 59.37 L62.12 59.37 L62.34 59.49 L62.4 59.39 L62.6 59.48 L62.29 59.74 L61.96 59.93 L61.91 60.06 L61.97 60.2 L61.82 60.37 L61.66 60.42 L61.7 60.5 L61.57 60.57 L61.33 60.75 L61.31 60.85 L60.96 60.73 L60.53 60.72 L60.21 60.58 L59.84 60.3 Z"/><path class="continent-country" d="M61.97 58.04 L61.96 57.94 L62.05 57.91 L62.17 57.99 L62.42 57.57 L62.55 57.56 L62.55 57.67 L62.68 57.67 L62.67 57.86 L62.56 58.15 L62.62 58.26 L62.55 58.51 L62.59 58.57 L62.51 58.92 L62.38 59.11 L62.25 59.13 L62.12 59.37 L61.91 59.37 L61.96 58.59 L61.97 58.04 Z"/><path class="continent-country" d="M77.73 57.55 L78.08 57.62 L78.2 57.75 L78.03 57.93 L77.51 57.92 L77.11 57.95 L77.07 57.65 L77.16 57.55 L77.73 57.55 Z"/><path class="continent-country" d="M69.95 57.57 L70.41 57.63 L70.78 57.8 L70.89 57.99 L70.41 58 L70.2 58.12 L69.81 58 L69.42 57.75 L69.5 57.6 L69.79 57.55 L69.95 57.57 Z"/><path class="continent-country" d="M66.71 54.33 L67.3 54.38 L67.84 54.39 L68.49 54.62 L68.77 54.88 L69.41 54.8 L69.65 54.96 L70.24 55.39 L70.67 55.7 L70.89 55.69 L71.31 55.83 L71.26 56.02 L71.76 56.05 L72.28 56.33 L72.2 56.5 L71.74 56.58 L71.28 56.62 L70.81 56.56 L69.82 56.63 L70.28 56.25 L70 56.07 L69.56 56.02 L69.32 55.82 L69.15 55.43 L68.76 55.46 L68.12 55.27 L67.91 55.13 L67.02 55.02 L66.78 54.89 L67.03 54.71 L66.36 54.68 L65.86 55.04 L65.58 55.05 L65.48 55.21 L65.14 55.29 L64.84 55.22 L65.21 55.01 L65.36 54.76 L65.67 54.61 L66.02 54.47 L66.54 54.41 L66.71 54.33 Z"/><path class="continent-country" d="M80.9 62.9 L81.3 62.81 L81.44 62.83 L81.41 63.35 L80.84 63.42 L80.71 63.36 L80.91 63.17 L80.9 62.9 Z"/></g>
</svg>
