<svg xmlns="http://www.w3.org/2000/svg" viewBox="0 0 120 78" role="img" aria-label="South America map outline">
  <style>
    .continent-country{fill:rgba(7,9,12,.76);stroke:rgb(159, 244, 215);stroke-width:.52;stroke-linejoin:round;vector-effect:non-scaling-stroke}
  </style>
  <title>South America</title>
  <desc>Country polygons generated from Natural Earth public domain Admin 0 data.</desc>
  <g><path class="continent-country" d="M49.44 70.03 L49.83 70.49 L50.33 71.24 L51.63 71.84 L53.03 72.09 L52.58 72.59 L51.63 72.64 L51.12 72.29 L50.51 72.26 L49.44 72.26 L49.44 70.03 Z"/><path class="continent-country" d="M60.45 47.62 L60.2 48.42 L59.93 49.45 L59.94 50.45 L59.72 50.67 L59.64 51.31 L59.58 51.83 L60.84 52.69 L60.71 53.38 L61.33 53.82 L61.28 54.3 L60.32 55.58 L58.84 56.12 L56.84 56.33 L55.74 56.23 L55.95 56.82 L55.74 57.57 L55.93 58.08 L55.33 58.43 L54.3 58.57 L53.34 58.2 L52.96 58.46 L53.1 59.46 L53.77 59.76 L54.32 59.44 L54.62 59.96 L53.7 60.27 L52.89 60.89 L52.75 61.9 L52.51 62.43 L51.57 62.44 L50.78 62.95 L50.5 63.7 L51.48 64.43 L52.43 64.63 L52.09 65.53 L50.91 66.09 L50.26 67.26 L49.35 67.66 L48.94 68.12 L49.26 69.16 L49.93 69.74 L49.51 69.69 L48.58 69.53 L46.17 69.4 L45.75 68.82 L45.77 68.07 L45.11 68.13 L44.75 67.77 L44.67 66.71 L45.43 66.27 L45.75 65.64 L45.63 65.13 L46.16 64.28 L46.53 62.96 L46.42 62.37 L46.86 62.18 L46.75 61.8 L46.29 61.6 L46.62 61.18 L46.17 60.81 L45.93 59.65 L46.33 59.45 L46.16 58.23 L46.4 57.21 L46.67 56.32 L47.27 55.95 L46.96 54.98 L46.96 54.06 L47.71 53.41 L47.69 52.57 L48.26 51.6 L48.26 50.68 L48 50.5 L47.54 48.77 L48.16 47.74 L48.07 46.78 L48.42 45.87 L49.08 44.93 L49.78 44.31 L49.48 43.92 L49.69 43.59 L49.66 41.93 L50.75 41.44 L51.09 40.4 L50.97 40.15 L51.8 39.24 L53.11 39.49 L53.7 40.21 L54.09 39.41 L55.23 39.45 L55.39 39.66 L57.23 41.29 L58.04 41.44 L59.26 42.18 L60.29 42.57 L60.44 43.01 L59.45 44.53 L60.46 44.8 L61.58 44.96 L62.37 44.8 L63.28 44.03 L63.44 43.15 L63.94 42.96 L64.44 43.53 L64.42 44.33 L63.58 44.88 L62.91 45.29 L61.78 46.26 L60.45 47.62 Z"/><path class="continent-country" d="M49.44 70.03 L49.44 72.26 L50.51 72.26 L51.12 72.29 L50.79 72.69 L49.93 73 L49.44 72.97 L48.85 72.89 L48.12 72.59 L47.07 72.44 L45.82 71.88 L44.8 71.35 L43.42 70.23 L44.24 70.44 L45.65 71.1 L46.97 71.46 L47.49 71.01 L47.81 70.32 L48.73 69.91 L49.44 70.03 Z"/><path class="continent-country" d="M48.49 35 L48.98 35.68 L49.11 36.4 L49.64 36.82 L49.32 37.79 L49.86 38.91 L50.25 40.28 L50.97 40.15 L51.09 40.4 L50.75 41.44 L49.66 41.93 L49.69 43.59 L49.48 43.92 L49.78 44.31 L49.08 44.93 L48.42 45.87 L48.07 46.78 L48.16 47.74 L47.54 48.77 L48 50.5 L48.26 50.68 L48.26 51.6 L47.69 52.57 L47.71 53.41 L46.96 54.06 L46.96 54.98 L47.27 55.95 L46.67 56.32 L46.4 57.21 L46.16 58.23 L46.33 59.45 L45.93 59.65 L46.17 60.81 L46.62 61.18 L46.29 61.6 L46.75 61.8 L46.86 62.18 L46.42 62.37 L46.53 62.96 L46.16 64.28 L45.63 65.13 L45.75 65.64 L45.43 66.27 L44.67 66.71 L44.75 67.77 L45.11 68.13 L45.77 68.07 L45.75 68.82 L46.17 69.4 L48.58 69.53 L49.51 69.69 L48.62 69.68 L48.14 69.93 L47.23 70.29 L47.07 71.22 L46.65 71.25 L45.52 70.92 L44.38 70.23 L44.38 70.23 L43.14 69.65 L42.82 69.02 L43.11 68.43 L42.6 67.77 L42.48 66.07 L42.9 65.11 L43.96 64.33 L42.44 64.04 L43.39 63.16 L43.73 61.5 L44.84 61.85 L45.36 59.78 L44.69 59.52 L44.38 60.76 L43.75 60.62 L44.06 59.19 L44.4 57.34 L44.86 56.66 L44.58 55.68 L44.49 54.56 L44.91 54.53 L45.53 52.91 L46.22 51.31 L46.64 49.82 L46.41 48.33 L46.71 47.5 L46.59 46.27 L47.17 45.05 L47.35 43.12 L47.68 41.04 L47.99 38.81 L47.91 37.17 L47.71 35.76 L48.22 35.51 L48.49 35 Z"/><path class="continent-country" d="M56.87 69.24 L58.07 68.64 L58.92 68.89 L59.52 68.49 L60.32 68.94 L60.02 69.29 L58.67 69.59 L58.22 69.24 L57.37 69.69 L56.87 69.24 Z"/><path class="continent-country" d="M60.45 47.62 L61.09 47.52 L62.1 48.29 L62.47 48.26 L63.5 48.9 L64.28 49.45 L64.86 50.13 L64.42 50.61 L64.69 51.17 L64.26 51.8 L63.13 52.36 L62.39 52.16 L61.85 52.26 L60.93 51.83 L60.25 51.87 L59.64 51.31 L59.72 50.67 L59.94 50.45 L59.93 49.45 L60.2 48.42 L60.45 47.62 Z"/><path class="continent-country" d="M64.69 51.17 L64.42 50.61 L64.86 50.13 L64.28 49.45 L63.5 48.9 L62.47 48.26 L62.1 48.29 L61.09 47.52 L60.45 47.62 L61.78 46.26 L62.91 45.29 L63.58 44.88 L64.42 44.33 L64.44 43.53 L63.94 42.96 L63.44 43.15 L63.64 42.57 L63.77 41.98 L63.77 41.43 L63.42 41.25 L63.04 41.41 L62.67 41.37 L62.55 40.98 L62.46 40.07 L62.27 39.77 L61.6 39.5 L61.19 39.69 L60.13 39.5 L60.2 38.15 L59.9 37.59 L60.22 37.38 L60.12 36.81 L60.39 36.38 L60.57 35.59 L60.34 34.97 L59.79 34.69 L59.68 34.29 L59.83 33.72 L57.91 33.67 L57.53 32.51 L57.82 32.49 L57.81 32.06 L57.61 31.77 L57.57 31.19 L56.99 30.9 L56.36 30.91 L55.95 30.62 L55.27 30.42 L54.88 30.05 L53.76 29.88 L52.67 28.99 L52.75 28.32 L52.63 27.93 L52.74 27.18 L51.43 27.35 L50.9 27.73 L50.03 28.13 L49.81 28.43 L49.29 28.46 L48.55 28.37 L47.99 28.54 L47.53 28.43 L47.6 26.91 L46.78 27.5 L45.9 27.47 L45.52 26.94 L44.85 26.88 L45.07 26.45 L44.51 25.85 L44.09 24.95 L44.36 24.76 L44.36 24.34 L44.96 24.05 L44.86 23.51 L45.12 23.17 L45.19 22.7 L46.33 22.02 L47.15 21.83 L47.28 21.68 L48.19 21.72 L48.63 18.98 L48.66 18.55 L48.5 17.98 L48.06 17.61 L48.06 16.89 L48.63 16.72 L48.83 16.83 L48.86 16.44 L48.27 16.34 L48.26 15.71 L50.21 15.74 L50.54 15.39 L50.82 15.71 L51.01 16.3 L51.2 16.18 L51.75 16.7 L52.53 16.64 L52.72 16.33 L53.46 16.1 L53.88 15.94 L53.99 15.51 L54.71 15.23 L54.65 15.02 L53.8 14.93 L53.67 14.3 L53.71 13.63 L53.26 13.37 L53.45 13.28 L54.19 13.41 L54.98 13.66 L55.27 13.42 L55.99 13.27 L57.11 12.9 L57.47 12.51 L57.34 12.23 L57.86 12.19 L58.09 12.42 L57.96 12.86 L58.3 13.01 L58.53 13.47 L58.26 13.82 L58.1 14.68 L58.35 15.18 L58.43 15.64 L59.04 16.11 L59.53 16.16 L59.64 15.97 L59.96 15.92 L60.41 15.75 L60.73 15.48 L61.29 15.57 L61.53 15.53 L62.07 15.61 L62.16 15.41 L62 15.21 L62.1 14.92 L62.5 15.01 L62.97 14.91 L63.54 15.12 L63.98 15.32 L64.29 15.05 L64.51 15.1 L64.65 15.38 L65.13 15.3 L65.51 14.93 L65.82 14.19 L66.41 13.28 L66.75 13.23 L67 13.78 L67.56 15.53 L68.09 15.69 L68.12 16.38 L67.37 17.21 L67.68 17.51 L69.44 17.66 L69.48 18.67 L70.24 18.01 L71.5 18.37 L73.16 18.98 L73.64 19.56 L73.48 20.12 L74.64 19.81 L76.59 20.34 L78.08 20.3 L79.56 21.13 L80.83 22.25 L81.6 22.53 L82.46 22.57 L82.82 22.89 L83.16 24.16 L83.32 24.77 L82.93 26.42 L82.42 27.07 L81.01 28.46 L80.37 29.59 L79.63 30.46 L79.38 30.48 L79.1 31.21 L79.17 33.08 L78.9 34.62 L78.79 35.28 L78.47 35.68 L78.3 37.01 L77.28 38.32 L77.11 39.35 L76.3 39.78 L76.07 40.38 L74.98 40.38 L73.41 40.76 L72.71 41.21 L71.59 41.5 L70.41 42.3 L69.57 43.29 L69.42 44.03 L69.59 44.58 L69.4 45.59 L69.18 46.08 L68.48 46.63 L67.37 48.39 L66.49 49.18 L65.81 49.65 L65.35 50.6 L64.69 51.17 Z"/><path class="continent-country" d="M48.55 28.37 L49.29 28.46 L49.81 28.43 L50.03 28.13 L50.9 27.73 L51.43 27.35 L52.74 27.18 L52.63 27.93 L52.75 28.32 L52.67 28.99 L53.76 29.88 L54.88 30.05 L55.27 30.42 L55.95 30.62 L56.36 30.91 L56.99 30.9 L57.57 31.19 L57.61 31.77 L57.81 32.06 L57.82 32.49 L57.53 32.51 L57.91 33.67 L59.83 33.72 L59.68 34.29 L59.79 34.69 L60.34 34.97 L60.57 35.59 L60.39 36.38 L60.12 36.81 L60.22 37.38 L59.9 37.59 L59.89 37.28 L58.96 36.77 L58.03 36.76 L56.29 37.05 L55.81 37.93 L55.78 38.46 L55.39 39.66 L55.23 39.45 L54.09 39.41 L53.7 40.21 L53.11 39.49 L51.8 39.24 L50.97 40.15 L50.25 40.28 L49.86 38.91 L49.32 37.79 L49.64 36.82 L49.11 36.4 L48.98 35.68 L48.49 35 L49.12 33.92 L48.69 33.08 L48.92 32.74 L48.74 32.37 L49.13 31.87 L49.15 31.02 L49.2 30.32 L49.41 29.98 L48.55 28.37 Z"/><path class="continent-country" d="M48.19 21.72 L47.28 21.68 L47.15 21.83 L46.33 22.02 L45.19 22.7 L45.12 23.17 L44.86 23.51 L44.96 24.05 L44.36 24.34 L44.36 24.76 L44.09 24.95 L44.51 25.85 L45.07 26.45 L44.85 26.88 L45.52 26.94 L45.9 27.47 L46.78 27.5 L47.6 26.91 L47.53 28.43 L47.99 28.54 L48.55 28.37 L49.41 29.98 L49.2 30.32 L49.15 31.02 L49.13 31.87 L48.74 32.37 L48.92 32.74 L48.69 33.08 L49.12 33.92 L48.49 35 L48.22 35.51 L47.71 35.76 L46.7 35.19 L46.62 34.78 L44.64 33.78 L42.84 32.68 L42.07 32.07 L41.66 31.24 L41.82 30.95 L40.98 29.64 L39.99 27.8 L39.05 25.81 L38.64 25.35 L38.33 24.62 L37.55 23.97 L36.84 23.56 L37.16 23.11 L36.68 22.16 L36.99 21.46 L37.78 20.83 L37.9 21.25 L37.62 21.48 L37.64 21.85 L38.06 21.77 L38.46 21.88 L38.88 22.38 L39.45 21.97 L39.63 21.3 L40.25 20.43 L41.45 20.04 L42.54 18.99 L42.85 18.34 L42.71 17.58 L42.98 17.49 L43.64 17.96 L43.96 18.43 L44.42 18.69 L45.01 19.74 L45.75 19.86 L46.31 19.6 L46.67 19.77 L47.27 19.68 L48.03 20.15 L47.39 21.17 L47.69 21.19 L48.19 21.72 Z"/><path class="continent-country" d="M51.2 16.18 L51.01 16.3 L50.82 15.71 L50.54 15.39 L50.21 15.74 L48.26 15.71 L48.27 16.34 L48.86 16.44 L48.83 16.83 L48.63 16.72 L48.06 16.89 L48.06 17.61 L48.5 17.98 L48.66 18.55 L48.63 18.98 L48.19 21.72 L47.69 21.19 L47.39 21.17 L48.03 20.15 L47.27 19.68 L46.67 19.77 L46.31 19.6 L45.75 19.86 L45.01 19.74 L44.42 18.69 L43.96 18.43 L43.64 17.96 L42.98 17.49 L42.71 17.58 L42.28 17.34 L41.79 17.01 L41.51 17.17 L40.66 17.03 L40.42 16.6 L40.23 16.62 L39.23 16.05 L39.09 15.74 L39.47 15.66 L39.42 15.16 L39.66 14.8 L40.15 14.73 L40.57 14.11 L40.96 13.58 L40.59 13.34 L40.78 12.76 L40.55 11.85 L40.77 11.59 L40.61 10.74 L40.2 10.21 L40.33 9.72 L40.65 9.8 L40.84 9.5 L40.61 8.91 L40.73 8.76 L41.25 8.8 L42 8.1 L42.41 7.99 L42.42 7.66 L42.6 6.82 L43.18 6.35 L43.81 6.33 L43.88 6.13 L44.67 6.21 L45.45 5.7 L45.84 5.48 L46.33 5 L46.68 5.06 L46.94 5.32 L46.75 5.66 L46.11 5.83 L45.85 6.33 L45.47 6.61 L45.18 6.99 L45.05 7.7 L44.78 8.28 L45.29 8.35 L45.42 8.81 L45.64 9.03 L45.72 9.43 L45.6 9.8 L45.64 10.01 L45.88 10.09 L46.12 10.44 L47.41 10.35 L47.99 10.47 L48.69 11.33 L49.09 11.23 L49.81 11.28 L50.38 11.17 L50.74 11.34 L50.56 11.88 L50.33 12.21 L50.25 12.93 L50.46 13.59 L50.74 13.89 L50.77 14.11 L50.27 14.61 L50.63 14.83 L50.9 15.18 L51.2 16.18 Z"/><path class="continent-country" d="M57.34 12.23 L57.47 12.51 L57.11 12.9 L55.99 13.27 L55.27 13.42 L54.98 13.66 L54.19 13.41 L53.45 13.28 L53.26 13.37 L53.71 13.63 L53.67 14.3 L53.8 14.93 L54.65 15.02 L54.71 15.23 L53.99 15.51 L53.88 15.94 L53.46 16.1 L52.72 16.33 L52.53 16.64 L51.75 16.7 L51.2 16.18 L50.9 15.18 L50.63 14.83 L50.27 14.61 L50.77 14.11 L50.74 13.89 L50.46 13.59 L50.25 12.93 L50.33 12.21 L50.56 11.88 L50.74 11.34 L50.38 11.17 L49.81 11.28 L49.09 11.23 L48.69 11.33 L47.99 10.47 L47.41 10.35 L46.12 10.44 L45.88 10.09 L45.64 10.01 L45.6 9.8 L45.72 9.43 L45.64 9.03 L45.42 8.81 L45.29 8.35 L44.78 8.28 L45.05 7.7 L45.18 6.99 L45.47 6.61 L45.85 6.33 L46.11 5.83 L46.75 5.66 L46.72 5.9 L46.13 6.01 L46.46 6.47 L46.45 6.99 L46.01 7.57 L46.38 8.36 L46.82 8.3 L47.04 7.58 L46.73 7.22 L46.68 6.47 L47.92 6.06 L47.79 5.59 L48.14 5.27 L48.49 5.98 L49.2 5.99 L49.84 6.55 L49.88 6.88 L50.78 6.89 L51.85 6.79 L52.42 7.23 L53.18 7.36 L53.75 7.05 L53.76 6.79 L54.99 6.73 L56.19 6.72 L55.34 7.02 L55.69 7.49 L56.48 7.56 L57.24 8.05 L57.4 8.85 L57.92 8.83 L58.31 9.07 L57.52 9.65 L57.43 10.02 L57.78 10.39 L57.53 10.58 L56.91 10.74 L56.93 11.2 L56.66 11.47 L57.34 12.23 Z"/><path class="continent-country" d="M61.53 15.53 L61.29 15.57 L60.73 15.48 L60.41 15.75 L59.96 15.92 L59.64 15.97 L59.53 16.16 L59.04 16.11 L58.43 15.64 L58.35 15.18 L58.1 14.68 L58.26 13.82 L58.53 13.47 L58.3 13.01 L57.96 12.86 L58.09 12.42 L57.86 12.19 L57.34 12.23 L56.66 11.47 L56.93 11.2 L56.91 10.74 L57.53 10.58 L57.78 10.39 L57.43 10.02 L57.52 9.65 L58.31 9.07 L58.97 9.43 L59.59 10.09 L59.62 10.6 L59.99 10.62 L60.53 11.11 L60.92 11.46 L60.76 12.36 L60.16 12.62 L60.21 12.85 L60.03 13.37 L60.47 14.1 L60.79 14.1 L60.92 14.66 L61.53 15.53 Z"/><path class="continent-country" d="M63.54 15.12 L62.97 14.91 L62.5 15.01 L62.1 14.92 L62 15.21 L62.16 15.41 L62.07 15.61 L61.53 15.53 L60.92 14.66 L60.79 14.1 L60.47 14.1 L60.03 13.37 L60.21 12.85 L60.16 12.62 L60.76 12.36 L60.92 11.46 L62.12 11.66 L62.23 11.48 L63.04 11.41 L64.11 11.68 L63.59 12.54 L63.67 13.22 L64.06 13.81 L63.89 14.24 L63.8 14.7 L63.54 15.12 Z"/><path class="continent-country" d="M42.71 17.58 L42.85 18.34 L42.54 18.99 L41.45 20.04 L40.25 20.43 L39.63 21.3 L39.45 21.97 L38.88 22.38 L38.46 21.88 L38.06 21.77 L37.64 21.85 L37.62 21.48 L37.9 21.25 L37.78 20.83 L38.32 20.08 L38.1 19.65 L37.72 20.11 L37.12 19.67 L37.32 19.39 L37.15 18.49 L37.5 18.33 L37.69 17.71 L38.07 17.07 L38 16.66 L38.54 16.45 L39.23 16.05 L40.23 16.62 L40.42 16.6 L40.66 17.03 L41.51 17.17 L41.79 17.01 L42.28 17.34 L42.71 17.58 Z"/><path class="continent-country" d="M59.9 37.59 L60.2 38.15 L60.13 39.5 L61.19 39.69 L61.6 39.5 L62.27 39.77 L62.46 40.07 L62.55 40.98 L62.67 41.37 L63.04 41.41 L63.42 41.25 L63.77 41.43 L63.77 41.98 L63.64 42.57 L63.44 43.15 L63.28 44.03 L62.37 44.8 L61.58 44.96 L60.46 44.8 L59.45 44.53 L60.44 43.01 L60.29 42.57 L59.26 42.18 L58.04 41.44 L57.23 41.29 L55.39 39.66 L55.78 38.46 L55.81 37.93 L56.29 37.05 L58.03 36.76 L58.96 36.77 L59.89 37.28 L59.9 37.59 Z"/></g>
</svg>
